ZillaSlab-LightItalic.ufo
<glyph name="exclam" format="1">
  <advance width="232"/>
  <unicode hex="0021"/>
  <outline>
    <contour>
      <point x="187" y="650" type="line"/>
      <point x="127" y="181" type="line"/>
      <point x="85" y="181" type="line"/>
      <point x="124" y="650" type="line"/>
    </contour>
    <contour>
      <point x="53" y="0" type="line"/>
      <point x="124" y="0" type="line"/>
      <point x="133" y="84" type="line"/>
      <point x="62" y="84" type="line"/>
    </contour>
  </outline>
</glyph>
<glyph name="quotedbl" format="1">
  <advance width="362"/>
  <unicode hex="0022"/>
  <outline>
    <contour>
      <point x="128" y="377" type="line"/>
      <point x="160" y="650" type="line"/>
      <point x="105" y="650" type="line"/>
      <point x="79" y="377" type="line"/>
    </contour>
    <contour>
      <point x="304" y="377" type="line"/>
      <point x="336" y="650" type="line"/>
      <point x="281" y="650" type="line"/>
      <point x="255" y="377" type="line"/>
    </contour>
  </outline>
</glyph>
<glyph name="dollar" format="1">
  <advance width="458"/>
  <unicode hex="0024"/>
  <outline>
    <contour>
      <point x="397" y="156" type="curve" smooth="yes"/>
      <point x="397" y="57"/>
      <point x="328" y="-2"/>
      <point x="218" y="-7" type="curve"/>
      <point x="212" y="-65" type="line"/>
      <point x="177" y="-65" type="line"/>
      <point x="183" y="-7" type="line"/>
      <point x="116" y="-3"/>
      <point x="56" y="21"/>
      <point x="27" y="41" type="curve"/>
      <point x="48" y="150" type="line"/>
      <point x="94" y="146" type="line"/>
      <point x="84" y="69" type="line"/>
      <point x="112" y="54"/>
      <point x="150" y="42"/>
      <point x="188" y="39" type="curve"/>
      <point x="210" y="252" type="line"/>
      <point x="131" y="270"/>
      <point x="68" y="298"/>
      <point x="68" y="377" type="curve" smooth="yes"/>
      <point x="68" y="470"/>
      <point x="139" y="524"/>
      <point x="239" y="528" type="curve"/>
      <point x="246" y="593" type="line"/>
      <point x="281" y="593" type="line"/>
      <point x="274" y="528" type="line"/>
      <point x="326" y="525"/>
      <point x="374" y="508"/>
      <point x="408" y="482" type="curve"/>
      <point x="402" y="370" type="line"/>
      <point x="356" y="367" type="line"/>
      <point x="355" y="455" type="line"/>
      <point x="328" y="474"/>
      <point x="299" y="482"/>
      <point x="269" y="484" type="curve"/>
      <point x="250" y="296" type="line"/>
      <point x="318" y="279"/>
      <point x="397" y="251"/>
    </contour>
    <contour>
      <point x="339" y="147" type="curve" smooth="yes"/>
      <point x="339" y="206"/>
      <point x="302" y="227"/>
      <point x="244" y="243" type="curve"/>
      <point x="223" y="38" type="line"/>
      <point x="287" y="43"/>
      <point x="339" y="77"/>
    </contour>
    <contour>
      <point x="126" y="387" type="curve" smooth="yes"/>
      <point x="126" y="333"/>
      <point x="163" y="317"/>
      <point x="216" y="304" type="curve"/>
      <point x="234" y="484" type="line"/>
      <point x="166" y="479"/>
      <point x="126" y="442"/>
    </contour>
  </outline>
</glyph>
<glyph name="quotesingle" format="1">
  <advance width="186"/>
  <unicode hex="0027"/>
  <outline>
    <contour>
      <point x="128" y="377" type="line"/>
      <point x="160" y="650" type="line"/>
      <point x="105" y="650" type="line"/>
      <point x="79" y="377" type="line"/>
    </contour>
  </outline>
</glyph>
<glyph name="parenright" format="1">
  <advance width="268"/>
  <unicode hex="0029"/>
  <outline>
    <contour>
      <point x="17" y="-183" type="curve"/>
      <point x="-37" y="-183" type="line"/>
      <point x="104" y="-22"/>
      <point x="177" y="143"/>
      <point x="177" y="323" type="curve" smooth="yes"/>
      <point x="177" y="456"/>
      <point x="138" y="601"/>
      <point x="58" y="718" type="curve"/>
      <point x="114" y="718" type="line"/>
      <point x="191" y="595"/>
      <point x="225" y="456"/>
      <point x="225" y="327" type="curve" smooth="yes"/>
      <point x="225" y="150"/>
      <point x="161" y="-17"/>
    </contour>
  </outline>
</glyph>
<glyph name="hyphen" format="1">
  <advance width="349"/>
  <unicode hex="002D"/>
  <outline>
    <contour>
      <point x="59" y="254" type="line"/>
      <point x="285" y="254" type="line"/>
      <point x="280" y="205" type="line"/>
      <point x="54" y="205" type="line"/>
    </contour>
  </outline>
</glyph>
<glyph name="period" format="1">
  <advance width="204"/>
  <unicode hex="002E"/>
  <outline>
    <contour>
      <point x="35" y="0" type="line"/>
      <point x="113" y="0" type="line"/>
      <point x="121" y="84" type="line"/>
      <point x="43" y="84" type="line"/>
    </contour>
  </outline>
</glyph>
<glyph name="slash" format="1">
  <advance width="372"/>
  <unicode hex="002F"/>
  <outline>
    <contour>
      <point x="370" y="688" type="line"/>
      <point x="80" y="0" type="line"/>
      <point x="28" y="0" type="line"/>
      <point x="317" y="688" type="line"/>
    </contour>
  </outline>
</glyph>
<glyph name="zero" format="1">
  <advance width="566"/>
  <unicode hex="0030"/>
  <outline>
    <contour>
      <point x="46" y="224" type="curve" smooth="yes"/>
      <point x="46" y="389"/>
      <point x="140" y="530"/>
      <point x="310" y="530" type="curve" smooth="yes"/>
      <point x="452" y="530"/>
      <point x="516" y="431"/>
      <point x="516" y="293" type="curve" smooth="yes"/>
      <point x="516" y="122"/>
      <point x="419" y="-10"/>
      <point x="253" y="-10" type="curve" smooth="yes"/>
      <point x="114" y="-10"/>
      <point x="46" y="85"/>
    </contour>
    <contour>
      <point x="104" y="231" type="curve" smooth="yes"/>
      <point x="104" y="116"/>
      <point x="150" y="41"/>
      <point x="259" y="41" type="curve" smooth="yes"/>
      <point x="385" y="41"/>
      <point x="457" y="144"/>
      <point x="457" y="292" type="curve" smooth="yes"/>
      <point x="457" y="403"/>
      <point x="416" y="479"/>
      <point x="304" y="479" type="curve" smooth="yes"/>
      <point x="174" y="479"/>
      <point x="104" y="374"/>
    </contour>
  </outline>
</glyph>
<glyph name="one" format="1">
  <advance width="370"/>
  <unicode hex="0031"/>
  <outline>
    <contour>
      <point x="30" y="51" type="line"/>
      <point x="152" y="51" type="line"/>
      <point x="196" y="470" type="line"/>
      <point x="75" y="470" type="line"/>
      <point x="80" y="521" type="line"/>
      <point x="258" y="521" type="line"/>
      <point x="208" y="51" type="line"/>
      <point x="328" y="51" type="line"/>
      <point x="322" y="0" type="line"/>
      <point x="25" y="0" type="line"/>
    </contour>
  </outline>
</glyph>
<glyph name="two" format="1">
  <advance width="500"/>
  <unicode hex="0032"/>
  <outline>
    <contour>
      <point x="113" y="371" type="line"/>
      <point x="139" y="456" type="line"/>
      <point x="178" y="472"/>
      <point x="224" y="481"/>
      <point x="252" y="481" type="curve" smooth="yes"/>
      <point x="329" y="481"/>
      <point x="367" y="443"/>
      <point x="367" y="383" type="curve" smooth="yes"/>
      <point x="367" y="273"/>
      <point x="245" y="187"/>
      <point x="26" y="44" type="curve"/>
      <point x="27" y="0" type="line"/>
      <point x="413" y="0" type="line"/>
      <point x="437" y="133" type="line"/>
      <point x="391" y="136" type="line"/>
      <point x="372" y="51" type="line"/>
      <point x="103" y="51" type="line"/>
      <point x="214" y="117"/>
      <point x="427" y="242"/>
      <point x="427" y="389" type="curve" smooth="yes"/>
      <point x="427" y="457"/>
      <point x="385" y="531"/>
      <point x="273" y="531" type="curve" smooth="yes"/>
      <point x="211" y="531"/>
      <point x="139" y="512"/>
      <point x="96" y="486" type="curve"/>
      <point x="69" y="377" type="line"/>
    </contour>
  </outline>
</glyph>
<glyph name="four" format="1">
  <advance width="521"/>
  <unicode hex="0034"/>
  <outline>
    <contour>
      <point x="349" y="-131" type="line"/>
      <point x="367" y="35" type="line"/>
      <point x="464" y="35" type="line"/>
      <point x="477" y="84" type="line"/>
      <point x="372" y="84" type="line"/>
      <point x="418" y="521" type="line"/>
      <point x="287" y="521" type="line"/>
      <point x="3" y="84" type="line"/>
      <point x="4" y="35" type="line"/>
      <point x="312" y="35" type="line"/>
      <point x="294" y="-131" type="line"/>
    </contour>
    <contour>
      <point x="317" y="84" type="line"/>
      <point x="57" y="84" type="line"/>
      <point x="307" y="471" type="line"/>
      <point x="358" y="471" type="line"/>
    </contour>
  </outline>
</glyph>
<glyph name="seven" format="1">
  <advance width="457"/>
  <unicode hex="0037"/>
  <outline>
    <contour>
      <point x="62" y="521" type="line"/>
      <point x="44" y="360" type="line"/>
      <point x="96" y="360" type="line"/>
      <point x="107" y="471" type="line"/>
      <point x="399" y="471" type="line"/>
      <point x="91" y="-130" type="line"/>
      <point x="152" y="-130" type="line"/>
      <point x="459" y="484" type="line"/>
      <point x="455" y="521" type="line"/>
    </contour>
  </outline>
</glyph>
<glyph name="nine" format="1">
  <advance width="525"/>
  <unicode hex="0039"/>
  <outline>
    <contour>
      <point x="54" y="293" type="curve" smooth="yes"/>
      <point x="54" y="193"/>
      <point x="99" y="122"/>
      <point x="215" y="122" type="curve" smooth="yes"/>
      <point x="324" y="122"/>
      <point x="387" y="185"/>
      <point x="411" y="242" type="curve"/>
      <point x="400" y="37"/>
      <point x="335" y="-90"/>
      <point x="204" y="-90" type="curve" smooth="yes"/>
      <point x="142" y="-90"/>
      <point x="95" y="-62"/>
      <point x="64" y="-17" type="curve"/>
      <point x="26" y="-53" type="line"/>
      <point x="66" y="-107"/>
      <point x="114" y="-140"/>
      <point x="195" y="-140" type="curve" smooth="yes"/>
      <point x="398" y="-140"/>
      <point x="468" y="66"/>
      <point x="468" y="269" type="curve" smooth="yes"/>
      <point x="468" y="427"/>
      <point x="426" y="530"/>
      <point x="276" y="530" type="curve" smooth="yes"/>
      <point x="115" y="530"/>
      <point x="54" y="410"/>
    </contour>
    <contour>
      <point x="111" y="302" type="curve" smooth="yes"/>
      <point x="111" y="400"/>
      <point x="156" y="478"/>
      <point x="271" y="478" type="curve" smooth="yes"/>
      <point x="378" y="478"/>
      <point x="408" y="411"/>
      <point x="411" y="325" type="curve"/>
      <point x="398" y="262"/>
      <point x="350" y="172"/>
      <point x="230" y="172" type="curve" smooth="yes"/>
      <point x="145" y="172"/>
      <point x="111" y="217"/>
    </contour>
  </outline>
</glyph>
<glyph name="colon" format="1">
  <advance width="214"/>
  <unicode hex="003A"/>
  <outline>
    <contour>
      <point x="84" y="443" type="line"/>
      <point x="162" y="443" type="line"/>
      <point x="154" y="359" type="line"/>
      <point x="76" y="359" type="line"/>
    </contour>
    <contour>
      <point x="47" y="84" type="line"/>
      <point x="125" y="84" type="line"/>
      <point x="117" y="0" type="line"/>
      <point x="39" y="0" type="line"/>
    </contour>
  </outline>
</glyph>
<glyph name="semicolon" format="1">
  <advance width="229"/>
  <unicode hex="003B"/>
  <outline>
    <contour>
      <point x="1" y="-107" type="line"/>
      <point x="54" y="-107" type="line"/>
      <point x="126" y="105" type="line"/>
      <point x="73" y="105" type="line"/>
    </contour>
    <contour>
      <point x="94" y="359" type="line"/>
      <point x="172" y="359" type="line"/>
      <point x="180" y="443" type="line"/>
      <point x="102" y="443" type="line"/>
    </contour>
  </outline>
</glyph>
<glyph name="less" format="1">
  <advance width="400"/>
  <unicode hex="003C"/>
  <outline>
    <contour>
      <point x="315" y="14" type="line"/>
      <point x="321" y="69" type="line"/>
      <point x="92" y="280" type="line"/>
      <point x="364" y="494" type="line"/>
      <point x="371" y="549" type="line"/>
      <point x="31" y="286" type="line"/>
      <point x="30" y="272" type="line"/>
    </contour>
  </outline>
</glyph>
<glyph name="equal" format="1">
  <advance width="574"/>
  <unicode hex="003D"/>
  <outline>
    <contour>
      <point x="73" y="369" type="line"/>
      <point x="521" y="369" type="line"/>
      <point x="526" y="413" type="line"/>
      <point x="78" y="413" type="line"/>
    </contour>
    <contour>
      <point x="50" y="149" type="line"/>
      <point x="498" y="149" type="line"/>
      <point x="503" y="192" type="line"/>
      <point x="55" y="192" type="line"/>
    </contour>
  </outline>
</glyph>
<glyph name="greater" format="1">
  <advance width="401"/>
  <unicode hex="003E"/>
  <outline>
    <contour>
      <point x="370" y="272" type="line"/>
      <point x="372" y="286" type="line"/>
      <point x="87" y="549" type="line"/>
      <point x="81" y="494" type="line"/>
      <point x="311" y="280" type="line"/>
      <point x="37" y="69" type="line"/>
      <point x="31" y="14" type="line"/>
    </contour>
  </outline>
</glyph>
<glyph name="at" format="1">
  <advance width="894"/>
  <unicode hex="0040"/>
  <outline>
    <contour>
      <point x="610" y="311" type="curve"/>
      <point x="588" y="132" type="line" smooth="yes"/>
      <point x="588" y="128"/>
      <point x="586" y="119"/>
      <point x="586" y="110" type="curve" smooth="yes"/>
      <point x="586" y="71"/>
      <point x="601" y="31"/>
      <point x="652" y="31" type="curve" smooth="yes"/>
      <point x="758" y="31"/>
      <point x="799" y="185"/>
      <point x="799" y="302" type="curve" smooth="yes"/>
      <point x="799" y="540"/>
      <point x="634" y="610"/>
      <point x="492" y="610" type="curve" smooth="yes"/>
      <point x="259" y="610"/>
      <point x="81" y="426"/>
      <point x="81" y="186" type="curve" smooth="yes"/>
      <point x="81" y="-31"/>
      <point x="227" y="-158"/>
      <point x="413" y="-158" type="curve" smooth="yes"/>
      <point x="491" y="-158"/>
      <point x="574" y="-135"/>
      <point x="636" y="-94" type="curve"/>
      <point x="653" y="-130" type="line"/>
      <point x="582" y="-174"/>
      <point x="494" y="-202"/>
      <point x="404" y="-202" type="curve" smooth="yes"/>
      <point x="190" y="-202"/>
      <point x="35" y="-42"/>
      <point x="35" y="183" type="curve" smooth="yes"/>
      <point x="35" y="439"/>
      <point x="232" y="654"/>
      <point x="490" y="654" type="curve" smooth="yes"/>
      <point x="654" y="654"/>
      <point x="848" y="560"/>
      <point x="848" y="314" type="curve" smooth="yes"/>
      <point x="848" y="179"/>
      <point x="789" y="-10"/>
      <point x="639" y="-10" type="curve" smooth="yes"/>
      <point x="569" y="-10"/>
      <point x="537" y="38"/>
      <point x="532" y="92" type="curve"/>
      <point x="503" y="37"/>
      <point x="458" y="-10"/>
      <point x="379" y="-10" type="curve" smooth="yes"/>
      <point x="282" y="-10"/>
      <point x="229" y="60"/>
      <point x="229" y="177" type="curve" smooth="yes"/>
      <point x="229" y="289"/>
      <point x="279" y="453"/>
      <point x="435" y="453" type="curve" smooth="yes"/>
      <point x="501" y="453"/>
      <point x="550" y="422"/>
      <point x="569" y="367" type="curve"/>
      <point x="574" y="393"/>
      <point x="580" y="418"/>
      <point x="588" y="444" type="curve"/>
      <point x="640" y="444" type="line"/>
      <point x="628" y="401"/>
      <point x="615" y="350"/>
    </contour>
    <contour>
      <point x="437" y="406" type="curve" smooth="yes"/>
      <point x="318" y="406"/>
      <point x="286" y="274"/>
      <point x="286" y="185" type="curve" smooth="yes"/>
      <point x="286" y="87"/>
      <point x="325" y="36"/>
      <point x="391" y="36" type="curve" smooth="yes"/>
      <point x="470" y="36"/>
      <point x="523" y="112"/>
      <point x="539" y="173" type="curve"/>
      <point x="554" y="291" type="line"/>
      <point x="551" y="358"/>
      <point x="507" y="406"/>
    </contour>
  </outline>
</glyph>
<glyph name="B" format="1">
  <advance width="585"/>
  <unicode hex="0042"/>
  <outline>
    <contour>
      <point x="359" y="650" type="line" smooth="yes"/>
      <point x="481" y="650"/>
      <point x="537" y="595"/>
      <point x="537" y="512" type="curve" smooth="yes"/>
      <point x="537" y="428"/>
      <point x="482" y="366"/>
      <point x="415" y="352" type="curve"/>
      <point x="414" y="348" type="line"/>
      <point x="496" y="334"/>
      <point x="532" y="274"/>
      <point x="532" y="201" type="curve" smooth="yes"/>
      <point x="532" y="90"/>
      <point x="449" y="0"/>
      <point x="300" y="0" type="curve" smooth="yes"/>
      <point x="14" y="0" type="line"/>
      <point x="19" y="51" type="line"/>
      <point x="101" y="51" type="line"/>
      <point x="158" y="599" type="line"/>
      <point x="76" y="599" type="line"/>
      <point x="82" y="650" type="line"/>
    </contour>
    <contour>
      <point x="298" y="51" type="line" smooth="yes"/>
      <point x="400" y="51"/>
      <point x="473" y="105"/>
      <point x="473" y="200" type="curve" smooth="yes"/>
      <point x="473" y="269"/>
      <point x="435" y="313"/>
      <point x="352" y="313" type="curve" smooth="yes"/>
      <point x="184" y="313" type="line"/>
      <point x="156" y="51" type="line"/>
    </contour>
    <contour>
      <point x="325" y="361" type="line" smooth="yes"/>
      <point x="407" y="361"/>
      <point x="478" y="410"/>
      <point x="478" y="497" type="curve" smooth="yes"/>
      <point x="478" y="570"/>
      <point x="432" y="599"/>
      <point x="351" y="599" type="curve" smooth="yes"/>
      <point x="213" y="599" type="line"/>
      <point x="189" y="361" type="line"/>
    </contour>
  </outline>
</glyph>
<glyph name="D" format="1">
  <advance width="689"/>
  <unicode hex="0044"/>
  <outline>
    <contour>
      <point x="362" y="650" type="line" smooth="yes"/>
      <point x="551" y="650"/>
      <point x="653" y="529"/>
      <point x="653" y="360" type="curve" smooth="yes"/>
      <point x="653" y="156"/>
      <point x="513" y="0"/>
      <point x="296" y="0" type="curve" smooth="yes"/>
      <point x="13" y="0" type="line"/>
      <point x="19" y="50" type="line"/>
      <point x="101" y="50" type="line"/>
      <point x="158" y="600" type="line"/>
      <point x="76" y="600" type="line"/>
      <point x="81" y="650" type="line"/>
    </contour>
    <contour>
      <point x="299" y="50" type="line" smooth="yes"/>
      <point x="481" y="50"/>
      <point x="595" y="180"/>
      <point x="595" y="356" type="curve" smooth="yes"/>
      <point x="595" y="500"/>
      <point x="512" y="600"/>
      <point x="356" y="600" type="curve" smooth="yes"/>
      <point x="212" y="600" type="line"/>
      <point x="155" y="50" type="line"/>
    </contour>
  </outline>
</glyph>
<glyph name="F" format="1">
  <advance width="544"/>
  <unicode hex="0046"/>
  <outline>
    <contour>
      <point x="533" y="466" type="line"/>
      <point x="532" y="650" type="line"/>
      <point x="81" y="650" type="line"/>
      <point x="76" y="599" type="line"/>
      <point x="159" y="599" type="line"/>
      <point x="101" y="51" type="line"/>
      <point x="18" y="51" type="line"/>
      <point x="13" y="0" type="line"/>
      <point x="267" y="0" type="line"/>
      <point x="272" y="51" type="line"/>
      <point x="156" y="51" type="line"/>
      <point x="180" y="277" type="line"/>
      <point x="481" y="277" type="line"/>
      <point x="486" y="328" type="line"/>
      <point x="185" y="328" type="line"/>
      <point x="214" y="599" type="line"/>
      <point x="476" y="599" type="line"/>
      <point x="480" y="460" type="line"/>
    </contour>
  </outline>
</glyph>
<glyph name="K" format="1">
  <advance width="616"/>
  <unicode hex="004B"/>
  <outline>
    <contour>
      <point x="18" y="51" type="line"/>
      <point x="100" y="51" type="line"/>
      <point x="157" y="599" type="line"/>
      <point x="75" y="599" type="line"/>
      <point x="80" y="650" type="line"/>
      <point x="297" y="650" type="line"/>
      <point x="292" y="599" type="line"/>
      <point x="212" y="599" type="line"/>
      <point x="187" y="356" type="line"/>
      <point x="296" y="356" type="line"/>
      <point x="496" y="600" type="line"/>
      <point x="419" y="600" type="line"/>
      <point x="425" y="651" type="line"/>
      <point x="637" y="651" type="line"/>
      <point x="631" y="600" type="line"/>
      <point x="560" y="600" type="line"/>
      <point x="340" y="337" type="line"/>
      <point x="513" y="51" type="line"/>
      <point x="586" y="51" type="line"/>
      <point x="581" y="0" type="line"/>
      <point x="365" y="0" type="line"/>
      <point x="371" y="51" type="line"/>
      <point x="448" y="51" type="line"/>
      <point x="295" y="306" type="line"/>
      <point x="182" y="306" type="line"/>
      <point x="155" y="51" type="line"/>
      <point x="234" y="51" type="line"/>
      <point x="228" y="0" type="line"/>
      <point x="12" y="0" type="line"/>
    </contour>
  </outline>
</glyph>
<glyph name="M" format="1">
  <advance width="854"/>
  <unicode hex="004D"/>
  <outline>
    <contour>
      <point x="19" y="51" type="line"/>
      <point x="101" y="51" type="line"/>
      <point x="158" y="599" type="line"/>
      <point x="74" y="599" type="line"/>
      <point x="79" y="650" type="line"/>
      <point x="214" y="650" type="line"/>
      <point x="410" y="116" type="line"/>
      <point x="414" y="116" type="line"/>
      <point x="718" y="650" type="line"/>
      <point x="853" y="650" type="line"/>
      <point x="848" y="599" type="line"/>
      <point x="762" y="599" type="line"/>
      <point x="705" y="51" type="line"/>
      <point x="788" y="51" type="line"/>
      <point x="783" y="0" type="line"/>
      <point x="565" y="0" type="line"/>
      <point x="570" y="51" type="line"/>
      <point x="649" y="51" type="line"/>
      <point x="697" y="508" type="line"/>
      <point x="694" y="508" type="line"/>
      <point x="418" y="28" type="line"/>
      <point x="384" y="28" type="line"/>
      <point x="207" y="509" type="line"/>
      <point x="203" y="509" type="line"/>
      <point x="154" y="51" type="line"/>
      <point x="235" y="51" type="line"/>
      <point x="230" y="0" type="line"/>
      <point x="14" y="0" type="line"/>
    </contour>
  </outline>
</glyph>
<glyph name="O" format="1">
  <advance width="717"/>
  <unicode hex="004F"/>
  <outline>
    <contour>
      <point x="396" y="660" type="curve" smooth="yes"/>
      <point x="198" y="660"/>
      <point x="46" y="494"/>
      <point x="46" y="291" type="curve" smooth="yes"/>
      <point x="46" y="125"/>
      <point x="154" y="-10"/>
      <point x="329" y="-10" type="curve" smooth="yes"/>
      <point x="532" y="-10"/>
      <point x="681" y="158"/>
      <point x="681" y="359" type="curve" smooth="yes"/>
      <point x="681" y="526"/>
      <point x="571" y="660"/>
    </contour>
    <contour>
      <point x="337" y="42" type="curve" smooth="yes"/>
      <point x="181" y="42"/>
      <point x="105" y="158"/>
      <point x="105" y="296" type="curve" smooth="yes"/>
      <point x="105" y="465"/>
      <point x="222" y="608"/>
      <point x="390" y="608" type="curve" smooth="yes"/>
      <point x="539" y="608"/>
      <point x="622" y="499"/>
      <point x="622" y="355" type="curve" smooth="yes"/>
      <point x="622" y="188"/>
      <point x="509" y="42"/>
    </contour>
  </outline>
</glyph>
<glyph name="Q" format="1">
  <advance width="727"/>
  <unicode hex="0051"/>
  <outline>
    <contour>
      <point x="396" y="660" type="curve" smooth="yes"/>
      <point x="198" y="660"/>
      <point x="46" y="494"/>
      <point x="46" y="291" type="curve" smooth="yes"/>
      <point x="46" y="125"/>
      <point x="154" y="-10"/>
      <point x="329" y="-10" type="curve" smooth="yes"/>
      <point x="404" y="-10"/>
      <point x="471" y="13"/>
      <point x="527" y="52" type="curve"/>
      <point x="612" y="-41" type="line"/>
      <point x="648" y="-6" type="line"/>
      <point x="566" y="84" type="line"/>
      <point x="638" y="152"/>
      <point x="681" y="251"/>
      <point x="681" y="359" type="curve" smooth="yes"/>
      <point x="681" y="526"/>
      <point x="571" y="660"/>
    </contour>
    <contour>
      <point x="398" y="194" type="line"/>
      <point x="492" y="90" type="line"/>
      <point x="449" y="60"/>
      <point x="397" y="42"/>
      <point x="337" y="42" type="curve" smooth="yes"/>
      <point x="181" y="42"/>
      <point x="105" y="158"/>
      <point x="105" y="296" type="curve" smooth="yes"/>
      <point x="105" y="465"/>
      <point x="222" y="608"/>
      <point x="390" y="608" type="curve" smooth="yes"/>
      <point x="539" y="608"/>
      <point x="622" y="499"/>
      <point x="622" y="355" type="curve" smooth="yes"/>
      <point x="622" y="264"/>
      <point x="589" y="181"/>
      <point x="531" y="122" type="curve"/>
      <point x="435" y="229" type="line"/>
    </contour>
  </outline>
</glyph>
<glyph name="V" format="1">
  <advance width="625"/>
  <unicode hex="0056"/>
  <outline>
    <contour>
      <point x="249" y="599" type="line"/>
      <point x="152" y="599" type="line"/>
      <point x="293" y="82" type="line"/>
      <point x="297" y="82" type="line"/>
      <point x="543" y="599" type="line"/>
      <point x="444" y="599" type="line"/>
      <point x="449" y="650" type="line"/>
      <point x="666" y="650" type="line"/>
      <point x="660" y="599" type="line"/>
      <point x="600" y="599" type="line"/>
      <point x="308" y="0" type="line"/>
      <point x="259" y="0" type="line"/>
      <point x="92" y="599" type="line"/>
      <point x="29" y="599" type="line"/>
      <point x="34" y="650" type="line"/>
      <point x="254" y="650" type="line"/>
    </contour>
  </outline>
</glyph>
<glyph name="W" format="1">
  <advance width="898"/>
  <unicode hex="0057"/>
  <outline>
    <contour>
      <point x="928" y="599" type="line"/>
      <point x="872" y="599" type="line"/>
      <point x="642" y="0" type="line"/>
      <point x="593" y="0" type="line"/>
      <point x="482" y="547" type="line"/>
      <point x="478" y="547" type="line"/>
      <point x="253" y="0" type="line"/>
      <point x="203" y="0" type="line"/>
      <point x="88" y="599" type="line"/>
      <point x="34" y="599" type="line"/>
      <point x="39" y="650" type="line"/>
      <point x="249" y="650" type="line"/>
      <point x="243" y="599" type="line"/>
      <point x="146" y="599" type="line"/>
      <point x="236" y="93" type="line"/>
      <point x="241" y="93" type="line"/>
      <point x="449" y="599" type="line"/>
      <point x="381" y="599" type="line"/>
      <point x="387" y="650" type="line"/>
      <point x="597" y="650" type="line"/>
      <point x="591" y="599" type="line"/>
      <point x="523" y="599" type="line"/>
      <point x="625" y="91" type="line"/>
      <point x="630" y="91" type="line"/>
      <point x="816" y="599" type="line"/>
      <point x="719" y="599" type="line"/>
      <point x="724" y="650" type="line"/>
      <point x="933" y="650" type="line"/>
    </contour>
  </outline>
</glyph>
<glyph name="asciicircum" format="1">
  <advance width="440"/>
  <unicode hex="005E"/>
  <outline>
    <contour>
      <point x="243" y="657" type="line"/>
      <point x="55" y="374" type="line"/>
      <point x="106" y="374" type="line"/>
      <point x="255" y="603" type="line"/>
      <point x="358" y="374" type="line"/>
      <point x="409" y="374" type="line"/>
      <point x="279" y="657" type="line"/>
    </contour>
  </outline>
</glyph>
<glyph name="underscore" format="1">
  <advance width="536"/>
  <unicode hex="005F"/>
  <outline>
    <contour>
      <point x="20" y="-75" type="line"/>
      <point x="444" y="-75" type="line"/>
      <point x="440" y="-118" type="line"/>
      <point x="16" y="-118" type="line"/>
    </contour>
  </outline>
</glyph>
<glyph name="d" format="1">
  <advance width="507"/>
  <unicode hex="0064"/>
  <outline>
    <contour>
      <point x="307" y="672" type="line"/>
      <point x="326" y="688" type="line"/>
      <point x="472" y="688" type="line"/>
      <point x="392" y="46" type="line"/>
      <point x="473" y="46" type="line"/>
      <point x="470" y="15" type="line"/>
      <point x="451" y="0" type="line"/>
      <point x="342" y="0" type="line"/>
      <point x="346" y="90" type="line"/>
      <point x="314" y="36"/>
      <point x="265" y="-10"/>
      <point x="186" y="-10" type="curve" smooth="yes"/>
      <point x="89" y="-10"/>
      <point x="35" y="61"/>
      <point x="35" y="175" type="curve" smooth="yes"/>
      <point x="35" y="290"/>
      <point x="91" y="453"/>
      <point x="247" y="453" type="curve" smooth="yes"/>
      <point x="309" y="453"/>
      <point x="358" y="426"/>
      <point x="379" y="376" type="curve"/>
      <point x="412" y="642" type="line"/>
      <point x="304" y="642" type="line"/>
    </contour>
    <contour>
      <point x="251" y="406" type="curve" smooth="yes"/>
      <point x="129" y="406"/>
      <point x="92" y="276"/>
      <point x="92" y="183" type="curve" smooth="yes"/>
      <point x="92" y="88"/>
      <point x="129" y="36"/>
      <point x="200" y="36" type="curve" smooth="yes"/>
      <point x="281" y="36"/>
      <point x="341" y="118"/>
      <point x="355" y="181" type="curve"/>
      <point x="369" y="290" type="line"/>
      <point x="366" y="356"/>
      <point x="318" y="406"/>
    </contour>
  </outline>
</glyph>
<glyph name="i" format="1">
  <advance width="250"/>
  <unicode hex="0069"/>
  <outline>
    <contour>
      <point x="37" y="426" type="line"/>
      <point x="56" y="444" type="line"/>
      <point x="173" y="444" type="line"/>
      <point x="124" y="46" type="line"/>
      <point x="204" y="46" type="line"/>
      <point x="200" y="15" type="line"/>
      <point x="181" y="0" type="line"/>
      <point x="66" y="0" type="line"/>
      <point x="114" y="397" type="line"/>
      <point x="33" y="397" type="line"/>
    </contour>
    <contour>
      <point x="129" y="568" type="line"/>
      <point x="190" y="568" type="line"/>
      <point x="198" y="647" type="line"/>
      <point x="137" y="647" type="line"/>
    </contour>
    <contour>
      <point x="243" y="566" type="move" name="top"/>
    </contour>
  </outline>
</glyph>
<glyph name="j" format="1">
  <advance width="242"/>
  <unicode hex="006A"/>
  <outline>
    <contour>
      <point x="24" y="426" type="line"/>
      <point x="43" y="444" type="line"/>
      <point x="185" y="444" type="line"/>
      <point x="127" y="-27" type="line" smooth="yes"/>
      <point x="111" y="-155"/>
      <point x="63" y="-218"/>
      <point x="-4" y="-223" type="curve"/>
      <point x="-30" y="-224"/>
      <point x="-55" y="-218"/>
      <point x="-78" y="-208" type="curve"/>
      <point x="-75" y="-166" type="line"/>
      <point x="-6" y="-195"/>
      <point x="56" y="-171"/>
      <point x="74" y="-27" type="curve" smooth="yes"/>
      <point x="126" y="397" type="line"/>
      <point x="20" y="397" type="line"/>
    </contour>
    <contour>
      <point x="134" y="568" type="line"/>
      <point x="195" y="568" type="line"/>
      <point x="203" y="647" type="line"/>
      <point x="142" y="647" type="line"/>
    </contour>
  </outline>
</glyph>
<glyph name="l" format="1">
  <advance width="234"/>
  <unicode hex="006C"/>
  <outline>
    <contour>
      <point x="53" y="671" type="line"/>
      <point x="71" y="688" type="line"/>
      <point x="189" y="688" type="line"/>
      <point x="110" y="46" type="line"/>
      <point x="189" y="46" type="line"/>
      <point x="185" y="15" type="line"/>
      <point x="167" y="0" type="line"/>
      <point x="52" y="0" type="line"/>
      <point x="130" y="642" type="line"/>
      <point x="49" y="642" type="line"/>
    </contour>
    <contour>
      <point x="229" y="566" type="move" name="top"/>
    </contour>
  </outline>
</glyph>
<glyph name="m" format="1">
  <advance width="783"/>
  <unicode hex="006D"/>
  <outline>
    <contour>
      <point x="426" y="280" type="line"/>
      <point x="392" y="0" type="line"/>
      <point x="340" y="0" type="line"/>
      <point x="372" y="267" type="line" smooth="yes"/>
      <point x="384" y="369"/>
      <point x="348" y="406"/>
      <point x="285" y="406" type="curve" smooth="yes"/>
      <point x="199" y="406"/>
      <point x="157" y="334"/>
      <point x="148" y="262" type="curve" smooth="yes"/>
      <point x="116" y="0" type="line"/>
      <point x="64" y="0" type="line"/>
      <point x="112" y="397" type="line"/>
      <point x="30" y="397" type="line"/>
      <point x="34" y="426" type="line"/>
      <point x="53" y="444" type="line"/>
      <point x="161" y="444" type="line"/>
      <point x="157" y="357" type="line"/>
      <point x="188" y="415"/>
      <point x="233" y="453"/>
      <point x="305" y="453" type="curve" smooth="yes"/>
      <point x="372" y="453"/>
      <point x="416" y="419"/>
      <point x="426" y="349" type="curve"/>
      <point x="455" y="412"/>
      <point x="502" y="453"/>
      <point x="577" y="453" type="curve" smooth="yes"/>
      <point x="662" y="453"/>
      <point x="716" y="397"/>
      <point x="702" y="280" type="curve"/>
      <point x="672" y="46" type="line"/>
      <point x="752" y="46" type="line"/>
      <point x="748" y="15" type="line"/>
      <point x="729" y="0" type="line"/>
      <point x="615" y="0" type="line"/>
      <point x="647" y="267" type="line" smooth="yes"/>
      <point x="659" y="368"/>
      <point x="623" y="406"/>
      <point x="558" y="406" type="curve" smooth="yes"/>
      <point x="481" y="406"/>
      <point x="440" y="347"/>
      <point x="426" y="284" type="curve"/>
    </contour>
    <contour>
      <point x="235" y="566" type="move" name="top"/>
    </contour>
  </outline>
</glyph>
<glyph name="p" format="1">
  <advance width="517"/>
  <unicode hex="0070"/>
  <outline>
    <contour>
      <point x="195" y="-197" type="line"/>
      <point x="175" y="-213" type="line"/>
      <point x="-28" y="-213" type="line"/>
      <point x="-24" y="-184" type="line"/>
      <point x="-6" y="-167" type="line"/>
      <point x="43" y="-167" type="line"/>
      <point x="112" y="397" type="line"/>
      <point x="31" y="397" type="line"/>
      <point x="35" y="426" type="line"/>
      <point x="54" y="444" type="line"/>
      <point x="162" y="444" type="line"/>
      <point x="157" y="350" type="line"/>
      <point x="187" y="405"/>
      <point x="233" y="453"/>
      <point x="313" y="453" type="curve" smooth="yes"/>
      <point x="412" y="453"/>
      <point x="470" y="382"/>
      <point x="470" y="264" type="curve" smooth="yes"/>
      <point x="470" y="153"/>
      <point x="421" y="-10"/>
      <point x="263" y="-10" type="curve" smooth="yes"/>
      <point x="199" y="-10"/>
      <point x="147" y="18"/>
      <point x="124" y="68" type="curve"/>
      <point x="95" y="-167" type="line"/>
      <point x="198" y="-167" type="line"/>
    </contour>
    <contour>
      <point x="260" y="36" type="curve" smooth="yes"/>
      <point x="380" y="36"/>
      <point x="413" y="171"/>
      <point x="413" y="255" type="curve" smooth="yes"/>
      <point x="413" y="354"/>
      <point x="370" y="406"/>
      <point x="301" y="406" type="curve" smooth="yes"/>
      <point x="216" y="406"/>
      <point x="161" y="323"/>
      <point x="148" y="258" type="curve"/>
      <point x="136" y="162" type="line"/>
      <point x="134" y="93"/>
      <point x="185" y="36"/>
    </contour>
    <contour>
      <point x="246" y="566" type="move" name="top"/>
    </contour>
  </outline>
</glyph>
<glyph name="s" format="1">
  <advance width="412"/>
  <unicode hex="0073"/>
  <outline>
    <contour>
      <point x="177" y="36" type="curve" smooth="yes"/>
      <point x="257" y="36"/>
      <point x="294" y="68"/>
      <point x="294" y="122" type="curve" smooth="yes"/>
      <point x="294" y="181"/>
      <point x="250" y="193"/>
      <point x="176" y="212" type="curve" smooth="yes"/>
      <point x="118" y="227"/>
      <point x="59" y="247"/>
      <point x="59" y="323" type="curve" smooth="yes"/>
      <point x="59" y="405"/>
      <point x="127" y="453"/>
      <point x="209" y="453" type="curve"/>
      <point x="271" y="453"/>
      <point x="326" y="432"/>
      <point x="357" y="412" type="curve"/>
      <point x="356" y="310" type="line"/>
      <point x="312" y="304" type="line"/>
      <point x="308" y="379" type="line"/>
      <point x="282" y="394"/>
      <point x="256" y="406"/>
      <point x="216" y="406" type="curve"/>
      <point x="148" y="406"/>
      <point x="115" y="375"/>
      <point x="115" y="329" type="curve" smooth="yes"/>
      <point x="115" y="286"/>
      <point x="143" y="270"/>
      <point x="210" y="253" type="curve" smooth="yes"/>
      <point x="271" y="237"/>
      <point x="350" y="219"/>
      <point x="350" y="128" type="curve" smooth="yes"/>
      <point x="350" y="45"/>
      <point x="286" y="-10"/>
      <point x="187" y="-10" type="curve"/>
      <point x="125" y="-10"/>
      <point x="55" y="11"/>
      <point x="25" y="34" type="curve"/>
      <point x="47" y="128" type="line"/>
      <point x="91" y="124" type="line"/>
      <point x="80" y="59" type="line"/>
      <point x="108" y="43"/>
      <point x="140" y="36"/>
    </contour>
  </outline>
</glyph>
<glyph name="t" format="1">
  <advance width="338"/>
  <unicode hex="0074"/>
  <outline>
    <contour>
      <point x="29" y="426" type="line"/>
      <point x="49" y="444" type="line"/>
      <point x="110" y="444" type="line"/>
      <point x="126" y="569" type="line"/>
      <point x="145" y="588" type="line"/>
      <point x="181" y="588" type="line"/>
      <point x="163" y="444" type="line"/>
      <point x="319" y="444" type="line"/>
      <point x="315" y="415" type="line"/>
      <point x="295" y="397" type="line"/>
      <point x="158" y="397" type="line"/>
      <point x="126" y="134" type="line" smooth="yes"/>
      <point x="118" y="68"/>
      <point x="135" y="36"/>
      <point x="187" y="36" type="curve" smooth="yes"/>
      <point x="219" y="36"/>
      <point x="244" y="47"/>
      <point x="267" y="122" type="curve"/>
      <point x="307" y="108" type="line"/>
      <point x="284" y="27"/>
      <point x="249" y="-10"/>
      <point x="181" y="-10" type="curve" smooth="yes"/>
      <point x="101" y="-10"/>
      <point x="62" y="45"/>
      <point x="73" y="130" type="curve"/>
      <point x="105" y="397" type="line"/>
      <point x="25" y="397" type="line"/>
    </contour>
  </outline>
</glyph>
<glyph name="v" format="1">
  <advance width="466"/>
  <unicode hex="0076"/>
  <outline>
    <contour>
      <point x="220" y="413" type="line"/>
      <point x="201" y="397" type="line"/>
      <point x="129" y="397" type="line"/>
      <point x="225" y="64" type="line"/>
      <point x="231" y="64" type="line"/>
      <point x="322" y="163"/>
      <point x="371" y="256"/>
      <point x="371" y="351" type="curve" smooth="yes"/>
      <point x="371" y="381"/>
      <point x="367" y="412"/>
      <point x="354" y="444" type="curve"/>
      <point x="417" y="444" type="line"/>
      <point x="439" y="357"/>
      <point x="426" y="271"/>
      <point x="375" y="184" type="curve" smooth="yes"/>
      <point x="341" y="127"/>
      <point x="284" y="58"/>
      <point x="223" y="0" type="curve"/>
      <point x="190" y="0" type="line"/>
      <point x="73" y="397" type="line"/>
      <point x="15" y="397" type="line"/>
      <point x="18" y="426" type="line"/>
      <point x="37" y="444" type="line"/>
      <point x="224" y="444" type="line"/>
    </contour>
  </outline>
</glyph>
<glyph name="x" format="1">
  <advance width="468"/>
  <unicode hex="0078"/>
  <outline>
    <contour>
      <point x="440" y="16" type="line"/>
      <point x="421" y="0" type="line"/>
      <point x="247" y="0" type="line"/>
      <point x="250" y="29" type="line"/>
      <point x="269" y="46" type="line"/>
      <point x="318" y="46" type="line"/>
      <point x="220" y="202" type="line"/>
      <point x="119" y="140"/>
      <point x="72" y="76"/>
      <point x="91" y="0" type="curve"/>
      <point x="29" y="0" type="line"/>
      <point x="8" y="95"/>
      <point x="106" y="172"/>
      <point x="198" y="231" type="curve"/>
      <point x="89" y="397" type="line"/>
      <point x="23" y="397" type="line"/>
      <point x="27" y="426" type="line"/>
      <point x="45" y="444" type="line"/>
      <point x="222" y="444" type="line"/>
      <point x="218" y="413" type="line"/>
      <point x="199" y="397" type="line"/>
      <point x="149" y="397" type="line"/>
      <point x="238" y="256" type="line"/>
      <point x="332" y="318"/>
      <point x="374" y="387"/>
      <point x="356" y="444" type="curve"/>
      <point x="416" y="444" type="line"/>
      <point x="444" y="370"/>
      <point x="353" y="289"/>
      <point x="259" y="228" type="curve"/>
      <point x="377" y="46" type="line"/>
      <point x="443" y="46" type="line"/>
    </contour>
  </outline>
</glyph>
<glyph name="braceleft" format="1">
  <advance width="273"/>
  <unicode hex="007B"/>
  <outline>
    <contour>
      <point x="106" y="267" type="curve"/>
      <point x="179" y="279"/>
      <point x="205" y="316"/>
      <point x="205" y="356" type="curve" smooth="yes"/>
      <point x="205" y="419"/>
      <point x="149" y="538"/>
      <point x="149" y="620" type="curve" smooth="yes"/>
      <point x="149" y="674"/>
      <point x="173" y="698"/>
      <point x="219" y="698" type="curve" smooth="yes"/>
      <point x="282" y="698" type="line"/>
      <point x="286" y="741" type="line"/>
      <point x="223" y="741" type="line" smooth="yes"/>
      <point x="150" y="741"/>
      <point x="103" y="697"/>
      <point x="103" y="616" type="curve" smooth="yes"/>
      <point x="103" y="527"/>
      <point x="157" y="413"/>
      <point x="157" y="354" type="curve" smooth="yes"/>
      <point x="157" y="295"/>
      <point x="86" y="284"/>
      <point x="54" y="284" type="curve" smooth="yes"/>
      <point x="36" y="284" type="line"/>
      <point x="32" y="249" type="line"/>
      <point x="50" y="249" type="line" smooth="yes"/>
      <point x="80" y="249"/>
      <point x="140" y="240"/>
      <point x="140" y="191" type="curve" smooth="yes"/>
      <point x="140" y="128"/>
      <point x="26" y="-5"/>
      <point x="26" y="-109" type="curve" smooth="yes"/>
      <point x="26" y="-168"/>
      <point x="63" y="-203"/>
      <point x="124" y="-203" type="curve" smooth="yes"/>
      <point x="187" y="-203" type="line"/>
      <point x="192" y="-160" type="line"/>
      <point x="129" y="-160" type="line" smooth="yes"/>
      <point x="92" y="-160"/>
      <point x="73" y="-143"/>
      <point x="73" y="-106" type="curve" smooth="yes"/>
      <point x="73" y="-14"/>
      <point x="188" y="122"/>
      <point x="188" y="192" type="curve" smooth="yes"/>
      <point x="188" y="226"/>
      <point x="165" y="256"/>
    </contour>
  </outline>
</glyph>
<glyph name="bar" format="1">
  <advance width="228"/>
  <unicode hex="007C"/>
  <outline>
    <contour>
      <point x="186" y="730" type="line"/>
      <point x="101" y="-80" type="line"/>
      <point x="52" y="-80" type="line"/>
      <point x="137" y="730" type="line"/>
    </contour>
  </outline>
</glyph>
<glyph name="braceright" format="1">
  <advance width="273"/>
  <unicode hex="007D"/>
  <outline>
    <contour>
      <point x="165" y="271" type="curve"/>
      <point x="92" y="259"/>
      <point x="66" y="222"/>
      <point x="66" y="182" type="curve" smooth="yes"/>
      <point x="66" y="119"/>
      <point x="122" y="0"/>
      <point x="122" y="-82" type="curve" smooth="yes"/>
      <point x="122" y="-136"/>
      <point x="98" y="-160"/>
      <point x="52" y="-160" type="curve" smooth="yes"/>
      <point x="-11" y="-160" type="line"/>
      <point x="-15" y="-203" type="line"/>
      <point x="48" y="-203" type="line" smooth="yes"/>
      <point x="121" y="-203"/>
      <point x="168" y="-159"/>
      <point x="168" y="-78" type="curve" smooth="yes"/>
      <point x="168" y="11"/>
      <point x="114" y="125"/>
      <point x="114" y="184" type="curve" smooth="yes"/>
      <point x="114" y="243"/>
      <point x="185" y="254"/>
      <point x="217" y="254" type="curve" smooth="yes"/>
      <point x="235" y="254" type="line"/>
      <point x="239" y="289" type="line"/>
      <point x="221" y="289" type="line" smooth="yes"/>
      <point x="191" y="289"/>
      <point x="131" y="298"/>
      <point x="131" y="347" type="curve" smooth="yes"/>
      <point x="131" y="410"/>
      <point x="245" y="543"/>
      <point x="245" y="647" type="curve" smooth="yes"/>
      <point x="245" y="706"/>
      <point x="208" y="741"/>
      <point x="147" y="741" type="curve" smooth="yes"/>
      <point x="84" y="741" type="line"/>
      <point x="79" y="698" type="line"/>
      <point x="142" y="698" type="line" smooth="yes"/>
      <point x="179" y="698"/>
      <point x="198" y="681"/>
      <point x="198" y="644" type="curve" smooth="yes"/>
      <point x="198" y="552"/>
      <point x="83" y="416"/>
      <point x="83" y="346" type="curve" smooth="yes"/>
      <point x="83" y="312"/>
      <point x="106" y="282"/>
    </contour>
  </outline>
</glyph>
<glyph name="currency" format="1">
  <advance width="513"/>
  <unicode hex="00A4"/>
  <outline>
    <contour>
      <point x="108" y="257" type="curve" smooth="yes"/>
      <point x="108" y="228"/>
      <point x="115" y="202"/>
      <point x="129" y="180" type="curve"/>
      <point x="22" y="82" type="line"/>
      <point x="44" y="56" type="line"/>
      <point x="151" y="154" type="line"/>
      <point x="174" y="133"/>
      <point x="205" y="120"/>
      <point x="241" y="120" type="curve" smooth="yes"/>
      <point x="276" y="120"/>
      <point x="309" y="132"/>
      <point x="337" y="153" type="curve"/>
      <point x="422" y="56" type="line"/>
      <point x="450" y="82" type="line"/>
      <point x="365" y="179" type="line"/>
      <point x="389" y="207"/>
      <point x="405" y="244"/>
      <point x="405" y="284" type="curve" smooth="yes"/>
      <point x="405" y="312"/>
      <point x="397" y="339"/>
      <point x="383" y="361" type="curve"/>
      <point x="490" y="459" type="line"/>
      <point x="468" y="485" type="line"/>
      <point x="361" y="387" type="line"/>
      <point x="338" y="409"/>
      <point x="306" y="422"/>
      <point x="271" y="422" type="curve" smooth="yes"/>
      <point x="236" y="422"/>
      <point x="202" y="409"/>
      <point x="174" y="388" type="curve"/>
      <point x="90" y="485" type="line"/>
      <point x="62" y="459" type="line"/>
      <point x="147" y="362" type="line"/>
      <point x="123" y="333"/>
      <point x="108" y="296"/>
    </contour>
    <contour>
      <point x="155" y="262" type="curve" smooth="yes"/>
      <point x="156" y="331"/>
      <point x="210" y="377"/>
      <point x="267" y="377" type="curve" smooth="yes"/>
      <point x="319" y="377"/>
      <point x="357" y="340"/>
      <point x="357" y="282" type="curve" smooth="yes"/>
      <point x="357" y="213"/>
      <point x="306" y="166"/>
      <point x="246" y="166" type="curve" smooth="yes"/>
      <point x="194" y="166"/>
      <point x="155" y="202"/>
    </contour>
  </outline>
</glyph>
<glyph name="yen" format="1">
  <advance width="576"/>
  <unicode hex="00A5"/>
  <outline>
    <contour>
      <point x="145" y="45" type="line"/>
      <point x="238" y="45" type="line"/>
      <point x="245" y="107" type="line"/>
      <point x="109" y="107" type="line"/>
      <point x="113" y="142" type="line"/>
      <point x="248" y="142" type="line"/>
      <point x="254" y="200" type="line"/>
      <point x="253" y="203" type="line"/>
      <point x="119" y="203" type="line"/>
      <point x="123" y="239" type="line"/>
      <point x="234" y="239" type="line"/>
      <point x="109" y="476" type="line"/>
      <point x="55" y="476" type="line"/>
      <point x="60" y="521" type="line"/>
      <point x="251" y="521" type="line"/>
      <point x="246" y="476" type="line"/>
      <point x="169" y="476" type="line"/>
      <point x="287" y="246" type="line"/>
      <point x="292" y="246" type="line"/>
      <point x="450" y="476" type="line"/>
      <point x="374" y="476" type="line"/>
      <point x="379" y="521" type="line"/>
      <point x="564" y="521" type="line"/>
      <point x="559" y="476" type="line"/>
      <point x="507" y="476" type="line"/>
      <point x="338" y="239" type="line"/>
      <point x="447" y="239" type="line"/>
      <point x="443" y="203" type="line"/>
      <point x="313" y="203" type="line"/>
      <point x="309" y="197" type="line"/>
      <point x="303" y="142" type="line"/>
      <point x="437" y="142" type="line"/>
      <point x="433" y="107" type="line"/>
      <point x="299" y="107" type="line"/>
      <point x="292" y="45" type="line"/>
      <point x="388" y="45" type="line"/>
      <point x="383" y="0" type="line"/>
      <point x="140" y="0" type="line"/>
    </contour>
  </outline>
</glyph>
<glyph name="guillemotleft" format="1">
  <advance width="436"/>
  <unicode hex="00AB"/>
  <outline>
    <contour>
      <point x="200" y="25" type="line"/>
      <point x="96" y="271" type="line"/>
      <point x="251" y="511" type="line"/>
      <point x="204" y="511" type="line"/>
      <point x="44" y="271" type="line"/>
      <point x="153" y="25" type="line"/>
    </contour>
    <contour>
      <point x="359" y="25" type="line"/>
      <point x="256" y="271" type="line"/>
      <point x="410" y="511" type="line"/>
      <point x="363" y="511" type="line"/>
      <point x="203" y="271" type="line"/>
      <point x="312" y="25" type="line"/>
    </contour>
  </outline>
</glyph>
<glyph name="logicalnot" format="1">
  <advance width="600"/>
  <unicode hex="00AC"/>
  <outline>
    <contour>
      <point x="476" y="105" type="line"/>
      <point x="518" y="105" type="line"/>
      <point x="539" y="304" type="line"/>
      <point x="68" y="304" type="line"/>
      <point x="64" y="261" type="line"/>
      <point x="492" y="261" type="line"/>
    </contour>
  </outline>
</glyph>
<glyph name="plusminus" format="1">
  <advance width="453"/>
  <unicode hex="00B1"/>
  <outline>
    <contour>
      <point x="57" y="262" type="line"/>
      <point x="208" y="262" type="line"/>
      <point x="193" y="111" type="line"/>
      <point x="236" y="111" type="line"/>
      <point x="252" y="262" type="line"/>
      <point x="397" y="262" type="line"/>
      <point x="402" y="306" type="line"/>
      <point x="256" y="306" type="line"/>
      <point x="273" y="458" type="line"/>
      <point x="229" y="458" type="line"/>
      <point x="213" y="306" type="line"/>
      <point x="62" y="306" type="line"/>
    </contour>
    <contour>
      <point x="30" y="0" type="line"/>
      <point x="370" y="0" type="line"/>
      <point x="374" y="44" type="line"/>
      <point x="34" y="44" type="line"/>
    </contour>
  </outline>
</glyph>
<glyph name="acute" format="1">
  <advance width="431"/>
  <unicode hex="00B4"/>
  <outline>
    <contour>
      <point x="414" y="631" type="line"/>
      <point x="385" y="678" type="line"/>
      <point x="222" y="549" type="line"/>
      <point x="238" y="523" type="line"/>
    </contour>
  </outline>
</glyph>
<glyph name="periodcentered" format="1">
  <advance width="213"/>
  <unicode hex="00B7"/>
  <outline>
    <contour>
      <point x="64" y="258" type="line"/>
      <point x="142" y="258" type="line"/>
      <point x="150" y="342" type="line"/>
      <point x="72" y="342" type="line"/>
    </contour>
  </outline>
</glyph>
<glyph name="onequarter" format="1">
  <advance width="682"/>
  <unicode hex="00BC"/>
  <outline>
    <contour>
      <point x="515" y="0" type="line"/>
      <point x="560" y="0" type="line"/>
      <point x="570" y="95" type="line"/>
      <point x="628" y="95" type="line"/>
      <point x="636" y="130" type="line"/>
      <point x="573" y="130" type="line"/>
      <point x="598" y="364" type="line"/>
      <point x="502" y="364" type="line"/>
      <point x="343" y="131" type="line"/>
      <point x="344" y="95" type="line"/>
      <point x="525" y="95" type="line"/>
    </contour>
    <contour>
      <point x="586" y="650" type="line"/>
      <point x="368" y="325" type="line"/>
      <point x="154" y="0" type="line"/>
      <point x="111" y="0" type="line"/>
      <point x="338" y="337" type="line"/>
      <point x="544" y="650" type="line"/>
    </contour>
    <contour>
      <point x="48" y="323" type="line"/>
      <point x="122" y="323" type="line"/>
      <point x="152" y="613" type="line"/>
      <point x="78" y="613" type="line"/>
      <point x="81" y="650" type="line"/>
      <point x="202" y="650" type="line"/>
      <point x="168" y="323" type="line"/>
      <point x="240" y="323" type="line"/>
      <point x="236" y="286" type="line"/>
      <point x="43" y="286" type="line"/>
    </contour>
    <contour>
      <point x="520" y="327" type="line"/>
      <point x="550" y="327" type="line"/>
      <point x="529" y="130" type="line"/>
      <point x="386" y="130" type="line"/>
    </contour>
  </outline>
</glyph>
<glyph name="onehalf" format="1">
  <advance width="721"/>
  <unicode hex="00BD"/>
  <outline>
    <contour>
      <point x="466" y="255" type="line"/>
      <point x="487" y="315" type="line"/>
      <point x="506" y="328"/>
      <point x="523" y="333"/>
      <point x="547" y="333" type="curve" smooth="yes"/>
      <point x="599" y="333"/>
      <point x="615" y="309"/>
      <point x="615" y="278" type="curve" smooth="yes"/>
      <point x="615" y="193"/>
      <point x="493" y="108"/>
      <point x="399" y="33" type="curve"/>
      <point x="400" y="0" type="line"/>
      <point x="659" y="0" type="line"/>
      <point x="678" y="87" type="line"/>
      <point x="640" y="91" type="line"/>
      <point x="626" y="37" type="line"/>
      <point x="459" y="37" type="line"/>
      <point x="513" y="80"/>
      <point x="667" y="180"/>
      <point x="667" y="280" type="curve" smooth="yes"/>
      <point x="667" y="329"/>
      <point x="630" y="370"/>
      <point x="557" y="370" type="curve" smooth="yes"/>
      <point x="517" y="370"/>
      <point x="478" y="358"/>
      <point x="448" y="330" type="curve"/>
      <point x="431" y="260" type="line"/>
    </contour>
    <contour>
      <point x="580" y="650" type="line"/>
      <point x="362" y="325" type="line"/>
      <point x="148" y="0" type="line"/>
      <point x="105" y="0" type="line"/>
      <point x="332" y="337" type="line"/>
      <point x="538" y="650" type="line"/>
    </contour>
    <contour>
      <point x="46" y="323" type="line"/>
      <point x="120" y="323" type="line"/>
      <point x="150" y="613" type="line"/>
      <point x="76" y="613" type="line"/>
      <point x="79" y="650" type="line"/>
      <point x="200" y="650" type="line"/>
      <point x="166" y="323" type="line"/>
      <point x="238" y="323" type="line"/>
      <point x="234" y="286" type="line"/>
      <point x="41" y="286" type="line"/>
    </contour>
  </outline>
</glyph>
<glyph name="questiondown" format="1">
  <advance width="422"/>
  <unicode hex="00BF"/>
  <outline>
    <contour>
      <point x="306" y="-15" type="line"/>
      <point x="282" y="-118" type="line"/>
      <point x="248" y="-147"/>
      <point x="214" y="-163"/>
      <point x="165" y="-163" type="curve" smooth="yes"/>
      <point x="93" y="-163"/>
      <point x="52" y="-128"/>
      <point x="52" y="-80" type="curve" smooth="yes"/>
      <point x="52" y="35"/>
      <point x="281" y="71"/>
      <point x="281" y="195" type="curve" smooth="yes"/>
      <point x="281" y="235"/>
      <point x="257" y="274"/>
      <point x="177" y="271" type="curve"/>
      <point x="173" y="229" type="line"/>
      <point x="208" y="229"/>
      <point x="224" y="215"/>
      <point x="224" y="189" type="curve" smooth="yes"/>
      <point x="224" y="92"/>
      <point x="-8" y="49"/>
      <point x="-8" y="-89" type="curve" smooth="yes"/>
      <point x="-8" y="-170"/>
      <point x="72" y="-214"/>
      <point x="155" y="-214" type="curve" smooth="yes"/>
      <point x="236" y="-214"/>
      <point x="301" y="-172"/>
      <point x="334" y="-130" type="curve"/>
      <point x="351" y="-18" type="line"/>
    </contour>
    <contour>
      <point x="278" y="446" type="line"/>
      <point x="207" y="446" type="line"/>
      <point x="198" y="362" type="line"/>
      <point x="269" y="362" type="line"/>
    </contour>
  </outline>
</glyph>
<glyph name="Atilde" format="1">
  <advance width="626"/>
  <unicode hex="00C3"/>
  <outline>
    <contour>
      <point x="-21" y="51" type="line"/>
      <point x="40" y="51" type="line"/>
      <point x="312" y="599" type="line"/>
      <point x="207" y="599" type="line"/>
      <point x="212" y="650" type="line"/>
      <point x="382" y="650" type="line"/>
      <point x="548" y="51" type="line"/>
      <point x="611" y="51" type="line"/>
      <point x="606" y="0" type="line"/>
      <point x="389" y="0" type="line"/>
      <point x="394" y="51" type="line"/>
      <point x="488" y="51" type="line"/>
      <point x="451" y="192" type="line"/>
      <point x="165" y="192" type="line"/>
      <point x="97" y="51" type="line"/>
      <point x="196" y="51" type="line"/>
      <point x="191" y="0" type="line"/>
      <point x="-25" y="0" type="line"/>
    </contour>
    <contour>
      <point x="348" y="566" type="line"/>
      <point x="188" y="238" type="line"/>
      <point x="439" y="238" type="line"/>
      <point x="352" y="566" type="line"/>
    </contour>
    <contour>
      <point x="243" y="707" type="line"/>
      <point x="258" y="740"/>
      <point x="282" y="748"/>
      <point x="299" y="748" type="curve" smooth="yes"/>
      <point x="336" y="748"/>
      <point x="366" y="712"/>
      <point x="415" y="712" type="curve" smooth="yes"/>
      <point x="455" y="712"/>
      <point x="481" y="739"/>
      <point x="498" y="792" type="curve"/>
      <point x="468" y="800" type="line"/>
      <point x="453" y="762"/>
      <point x="435" y="757"/>
      <point x="418" y="757" type="curve" smooth="yes"/>
      <point x="368" y="757"/>
      <point x="347" y="793"/>
      <point x="303" y="793" type="curve" smooth="yes"/>
      <point x="258" y="793"/>
      <point x="227" y="752"/>
      <point x="216" y="719" type="curve"/>
    </contour>
  </outline>
</glyph>
<glyph name="Aring" format="1">
  <advance width="626"/>
  <unicode hex="00C5"/>
  <outline>
    <contour>
      <point x="-21" y="51" type="line"/>
      <point x="40" y="51" type="line"/>
      <point x="312" y="599" type="line"/>
      <point x="207" y="599" type="line"/>
      <point x="212" y="650" type="line"/>
      <point x="382" y="650" type="line"/>
      <point x="548" y="51" type="line"/>
      <point x="611" y="51" type="line"/>
      <point x="606" y="0" type="line"/>
      <point x="389" y="0" type="line"/>
      <point x="394" y="51" type="line"/>
      <point x="488" y="51" type="line"/>
      <point x="451" y="192" type="line"/>
      <point x="165" y="192" type="line"/>
      <point x="97" y="51" type="line"/>
      <point x="196" y="51" type="line"/>
      <point x="191" y="0" type="line"/>
      <point x="-25" y="0" type="line"/>
    </contour>
    <contour>
      <point x="348" y="566" type="line"/>
      <point x="188" y="238" type="line"/>
      <point x="439" y="238" type="line"/>
      <point x="352" y="566" type="line"/>
    </contour>
    <contour>
      <point x="359" y="690" type="curve" smooth="yes"/>
      <point x="427" y="690"/>
      <point x="466" y="736"/>
      <point x="466" y="793" type="curve" smooth="yes"/>
      <point x="466" y="842"/>
      <point x="438" y="874"/>
      <point x="380" y="874" type="curve" smooth="yes"/>
      <point x="315" y="874"/>
      <point x="273" y="832"/>
      <point x="273" y="772" type="curve" smooth="yes"/>
      <point x="273" y="720"/>
      <point x="302" y="690"/>
    </contour>
    <contour>
      <point x="363" y="725" type="curve" smooth="yes"/>
      <point x="329" y="725"/>
      <point x="313" y="745"/>
      <point x="313" y="774" type="curve" smooth="yes"/>
      <point x="313" y="812"/>
      <point x="336" y="840"/>
      <point x="376" y="840" type="curve" smooth="yes"/>
      <point x="411" y="840"/>
      <point x="425" y="818"/>
      <point x="425" y="790" type="curve" smooth="yes"/>
      <point x="425" y="754"/>
      <point x="404" y="725"/>
    </contour>
  </outline>
</glyph>
<glyph name="Ntilde" format="1">
  <advance width="710"/>
  <unicode hex="00D1"/>
  <outline>
    <contour>
      <point x="25" y="51" type="line"/>
      <point x="101" y="51" type="line"/>
      <point x="158" y="599" type="line"/>
      <point x="74" y="599" type="line"/>
      <point x="79" y="650" type="line"/>
      <point x="204" y="650" type="line"/>
      <point x="521" y="117" type="line"/>
      <point x="524" y="117" type="line"/>
      <point x="574" y="599" type="line"/>
      <point x="479" y="599" type="line"/>
      <point x="484" y="650" type="line"/>
      <point x="716" y="650" type="line"/>
      <point x="711" y="599" type="line"/>
      <point x="628" y="599" type="line"/>
      <point x="566" y="0" type="line"/>
      <point x="528" y="0" type="line"/>
      <point x="208" y="539" type="line"/>
      <point x="205" y="539" type="line"/>
      <point x="153" y="51" type="line"/>
      <point x="259" y="51" type="line"/>
      <point x="254" y="0" type="line"/>
      <point x="20" y="0" type="line"/>
    </contour>
    <contour>
      <point x="282" y="707" type="line"/>
      <point x="297" y="740"/>
      <point x="321" y="748"/>
      <point x="338" y="748" type="curve" smooth="yes"/>
      <point x="375" y="748"/>
      <point x="405" y="712"/>
      <point x="454" y="712" type="curve" smooth="yes"/>
      <point x="494" y="712"/>
      <point x="520" y="739"/>
      <point x="537" y="792" type="curve"/>
      <point x="507" y="800" type="line"/>
      <point x="492" y="762"/>
      <point x="474" y="757"/>
      <point x="457" y="757" type="curve" smooth="yes"/>
      <point x="407" y="757"/>
      <point x="386" y="793"/>
      <point x="342" y="793" type="curve" smooth="yes"/>
      <point x="297" y="793"/>
      <point x="266" y="752"/>
      <point x="255" y="719" type="curve"/>
    </contour>
  </outline>
</glyph>
<glyph name="multiply" format="1">
  <advance width="385"/>
  <unicode hex="00D7"/>
  <outline>
    <contour>
      <point x="71" y="134" type="line"/>
      <point x="189" y="243" type="line"/>
      <point x="283" y="136" type="line"/>
      <point x="316" y="168" type="line"/>
      <point x="223" y="274" type="line"/>
      <point x="337" y="380" type="line"/>
      <point x="311" y="411" type="line"/>
      <point x="196" y="305" type="line"/>
      <point x="102" y="413" type="line"/>
      <point x="69" y="382" type="line"/>
      <point x="163" y="274" type="line"/>
      <point x="45" y="165" type="line"/>
    </contour>
  </outline>
</glyph>
<glyph name="aring" format="1">
  <advance width="500"/>
  <unicode hex="00E5"/>
  <outline>
    <contour>
      <point x="447" y="444" type="line"/>
      <point x="435" y="399"/>
      <point x="423" y="355"/>
      <point x="418" y="311" type="curve" smooth="yes"/>
      <point x="385" y="46" type="line"/>
      <point x="454" y="46" type="line"/>
      <point x="451" y="15" type="line"/>
      <point x="432" y="0" type="line"/>
      <point x="335" y="0" type="line"/>
      <point x="338" y="90" type="line"/>
      <point x="309" y="36"/>
      <point x="264" y="-10"/>
      <point x="186" y="-10" type="curve" smooth="yes"/>
      <point x="89" y="-10"/>
      <point x="36" y="60"/>
      <point x="36" y="177" type="curve" smooth="yes"/>
      <point x="36" y="289"/>
      <point x="86" y="453"/>
      <point x="242" y="453" type="curve" smooth="yes"/>
      <point x="308" y="453"/>
      <point x="357" y="423"/>
      <point x="376" y="368" type="curve"/>
      <point x="381" y="393"/>
      <point x="387" y="418"/>
      <point x="395" y="444" type="curve"/>
    </contour>
    <contour>
      <point x="246" y="406" type="curve" smooth="yes"/>
      <point x="124" y="406"/>
      <point x="93" y="275"/>
      <point x="93" y="186" type="curve" smooth="yes"/>
      <point x="93" y="87"/>
      <point x="132" y="36"/>
      <point x="199" y="36" type="curve" smooth="yes"/>
      <point x="277" y="36"/>
      <point x="330" y="112"/>
      <point x="346" y="174" type="curve"/>
      <point x="361" y="285" type="line"/>
      <point x="361" y="353"/>
      <point x="315" y="406"/>
    </contour>
    <contour>
      <point x="284" y="514" type="curve" smooth="yes"/>
      <point x="353" y="514"/>
      <point x="392" y="562"/>
      <point x="392" y="617" type="curve" smooth="yes"/>
      <point x="392" y="665"/>
      <point x="359" y="698"/>
      <point x="306" y="698" type="curve" smooth="yes"/>
      <point x="241" y="698"/>
      <point x="199" y="656"/>
      <point x="199" y="595" type="curve" smooth="yes"/>
      <point x="199" y="548"/>
      <point x="228" y="514"/>
    </contour>
    <contour>
      <point x="289" y="549" type="curve" smooth="yes"/>
      <point x="255" y="549"/>
      <point x="240" y="568"/>
      <point x="240" y="598" type="curve" smooth="yes"/>
      <point x="240" y="636"/>
      <point x="263" y="663"/>
      <point x="302" y="663" type="curve" smooth="yes"/>
      <point x="338" y="663"/>
      <point x="352" y="641"/>
      <point x="352" y="614" type="curve" smooth="yes"/>
      <point x="352" y="577"/>
      <point x="329" y="549"/>
    </contour>
  </outline>
</glyph>
<glyph name="ecircumflex" format="1">
  <advance width="435"/>
  <unicode hex="00EA"/>
  <outline>
    <contour>
      <point x="209" y="36" type="curve" smooth="yes"/>
      <point x="269" y="36"/>
      <point x="315" y="67"/>
      <point x="339" y="130" type="curve"/>
      <point x="382" y="119" type="line"/>
      <point x="362" y="47"/>
      <point x="299" y="-10"/>
      <point x="200" y="-10" type="curve" smooth="yes"/>
      <point x="92" y="-10"/>
      <point x="35" y="60"/>
      <point x="35" y="181" type="curve" smooth="yes"/>
      <point x="35" y="335"/>
      <point x="124" y="453"/>
      <point x="255" y="453" type="curve" smooth="yes"/>
      <point x="330" y="453"/>
      <point x="393" y="412"/>
      <point x="393" y="345" type="curve" smooth="yes"/>
      <point x="393" y="279"/>
      <point x="347" y="233"/>
      <point x="235" y="209" type="curve" smooth="yes"/>
      <point x="191" y="200"/>
      <point x="141" y="190"/>
      <point x="92" y="183" type="curve"/>
      <point x="92" y="92"/>
      <point x="124" y="36"/>
    </contour>
    <contour>
      <point x="215" y="245" type="curve" smooth="yes"/>
      <point x="322" y="270"/>
      <point x="335" y="306"/>
      <point x="335" y="340" type="curve" smooth="yes"/>
      <point x="335" y="387"/>
      <point x="302" y="406"/>
      <point x="251" y="406" type="curve" smooth="yes"/>
      <point x="147" y="406"/>
      <point x="104" y="315"/>
      <point x="94" y="225" type="curve"/>
      <point x="148" y="232"/>
      <point x="186" y="239"/>
    </contour>
    <contour>
      <point x="289" y="667" type="line"/>
      <point x="273" y="667" type="line"/>
      <point x="146" y="549" type="line"/>
      <point x="167" y="522" type="line"/>
      <point x="274" y="612" type="line"/>
      <point x="365" y="522" type="line"/>
      <point x="391" y="549" type="line"/>
    </contour>
  </outline>
</glyph>
<glyph name="icircumflex" format="1">
  <advance width="251"/>
  <unicode hex="00EE"/>
  <outline>
    <contour>
      <point x="37" y="426" type="line"/>
      <point x="56" y="444" type="line"/>
      <point x="173" y="444" type="line"/>
      <point x="124" y="46" type="line"/>
      <point x="204" y="46" type="line"/>
      <point x="200" y="15" type="line"/>
      <point x="181" y="0" type="line"/>
      <point x="66" y="0" type="line"/>
      <point x="114" y="397" type="line"/>
      <point x="33" y="397" type="line"/>
    </contour>
    <contour>
      <point x="171" y="667" type="line"/>
      <point x="155" y="667" type="line"/>
      <point x="28" y="549" type="line"/>
      <point x="49" y="522" type="line"/>
      <point x="156" y="612" type="line"/>
      <point x="247" y="522" type="line"/>
      <point x="273" y="549" type="line"/>
    </contour>
  </outline>
</glyph>
<glyph name="otilde" format="1">
  <advance width="480"/>
  <unicode hex="00F5"/>
  <outline>
    <contour>
      <point x="36" y="188" type="curve" smooth="yes"/>
      <point x="36" y="329"/>
      <point x="113" y="453"/>
      <point x="260" y="453" type="curve" smooth="yes"/>
      <point x="386" y="453"/>
      <point x="432" y="361"/>
      <point x="432" y="252" type="curve" smooth="yes"/>
      <point x="432" y="107"/>
      <point x="351" y="-10"/>
      <point x="208" y="-10" type="curve" smooth="yes"/>
      <point x="87" y="-10"/>
      <point x="36" y="74"/>
    </contour>
    <contour>
      <point x="93" y="190" type="curve" smooth="yes"/>
      <point x="93" y="100"/>
      <point x="122" y="36"/>
      <point x="213" y="36" type="curve" smooth="yes"/>
      <point x="325" y="36"/>
      <point x="374" y="135"/>
      <point x="374" y="251" type="curve" smooth="yes"/>
      <point x="374" y="340"/>
      <point x="346" y="406"/>
      <point x="254" y="406" type="curve" smooth="yes"/>
      <point x="148" y="406"/>
      <point x="93" y="313"/>
    </contour>
    <contour>
      <point x="170" y="558" type="line"/>
      <point x="184" y="591"/>
      <point x="208" y="601"/>
      <point x="226" y="601" type="curve" smooth="yes"/>
      <point x="261" y="601"/>
      <point x="290" y="563"/>
      <point x="341" y="563" type="curve" smooth="yes"/>
      <point x="382" y="563"/>
      <point x="406" y="593"/>
      <point x="424" y="646" type="curve"/>
      <point x="393" y="654" type="line"/>
      <point x="380" y="616"/>
      <point x="362" y="611"/>
      <point x="344" y="611" type="curve" smooth="yes"/>
      <point x="293" y="611"/>
      <point x="273" y="648"/>
      <point x="230" y="648" type="curve" smooth="yes"/>
      <point x="185" y="648"/>
      <point x="152" y="603"/>
      <point x="142" y="569" type="curve"/>
    </contour>
  </outline>
</glyph>
<glyph name="divide" format="1">
  <advance width="448"/>
  <unicode hex="00F7"/>
  <outline>
    <contour>
      <point x="52" y="259" type="line"/>
      <point x="392" y="259" type="line"/>
      <point x="397" y="303" type="line"/>
      <point x="57" y="303" type="line"/>
    </contour>
    <contour>
      <point x="166" y="105" type="line"/>
      <point x="244" y="105" type="line"/>
      <point x="252" y="189" type="line"/>
      <point x="174" y="189" type="line"/>
    </contour>
    <contour>
      <point x="195" y="379" type="line"/>
      <point x="273" y="379" type="line"/>
      <point x="281" y="463" type="line"/>
      <point x="203" y="463" type="line"/>
    </contour>
  </outline>
</glyph>
<glyph name="ccaron" format="1">
  <advance width="440"/>
  <unicode hex="010D"/>
  <outline>
    <contour>
      <point x="248" y="522" type="line"/>
      <point x="263" y="522" type="line"/>
      <point x="391" y="639" type="line"/>
      <point x="370" y="666" type="line"/>
      <point x="262" y="577" type="line"/>
      <point x="173" y="663" type="line"/>
      <point x="146" y="637" type="line"/>
    </contour>
    <contour>
      <point x="252" y="406" type="curve" smooth="yes"/>
      <point x="131" y="406"/>
      <point x="92" y="288"/>
      <point x="92" y="187" type="curve" smooth="yes"/>
      <point x="92" y="94"/>
      <point x="125" y="36"/>
      <point x="205" y="36" type="curve" smooth="yes"/>
      <point x="272" y="36"/>
      <point x="317" y="76"/>
      <point x="342" y="156" type="curve"/>
      <point x="385" y="145" type="line"/>
      <point x="365" y="68"/>
      <point x="310" y="-10"/>
      <point x="201" y="-10" type="curve" smooth="yes"/>
      <point x="96" y="-10"/>
      <point x="35" y="63"/>
      <point x="35" y="183" type="curve" smooth="yes"/>
      <point x="35" y="299"/>
      <point x="92" y="453"/>
      <point x="249" y="453" type="curve"/>
      <point x="310" y="453"/>
      <point x="349" y="438"/>
      <point x="388" y="405" type="curve"/>
      <point x="394" y="306" type="line"/>
      <point x="347" y="300" type="line"/>
      <point x="338" y="375" type="line"/>
      <point x="312" y="398"/>
      <point x="283" y="406"/>
    </contour>
  </outline>
</glyph>
<glyph name="Emacron" format="1">
  <advance width="574"/>
  <unicode hex="0112"/>
  <outline>
    <contour>
      <point x="228" y="782" type="line"/>
      <point x="493" y="782" type="line"/>
      <point x="488" y="736" type="line"/>
      <point x="223" y="736" type="line"/>
    </contour>
    <contour>
      <point x="477" y="0" type="line"/>
      <point x="13" y="0" type="line"/>
      <point x="18" y="51" type="line"/>
      <point x="101" y="51" type="line"/>
      <point x="159" y="599" type="line"/>
      <point x="76" y="599" type="line"/>
      <point x="81" y="650" type="line"/>
      <point x="541" y="650" type="line"/>
      <point x="541" y="468" type="line"/>
      <point x="491" y="462" type="line"/>
      <point x="486" y="599" type="line"/>
      <point x="215" y="599" type="line"/>
      <point x="188" y="356" type="line"/>
      <point x="498" y="356" type="line"/>
      <point x="493" y="305" type="line"/>
      <point x="183" y="305" type="line"/>
      <point x="156" y="51" type="line"/>
      <point x="432" y="51" type="line"/>
      <point x="466" y="188" type="line"/>
      <point x="514" y="183" type="line"/>
    </contour>
  </outline>
</glyph>
<glyph name="Eogonek" format="1">
  <advance width="573"/>
  <unicode hex="0118"/>
  <outline>
    <contour>
      <point x="476" y="0" type="line"/>
      <point x="438" y="0" type="line"/>
      <point x="377" y="-34"/>
      <point x="357" y="-77"/>
      <point x="357" y="-113" type="curve" smooth="yes"/>
      <point x="357" y="-152"/>
      <point x="378" y="-165"/>
      <point x="413" y="-165" type="curve" smooth="yes"/>
      <point x="431" y="-165"/>
      <point x="448" y="-161"/>
      <point x="470" y="-149" type="curve"/>
      <point x="474" y="-189" type="line"/>
      <point x="451" y="-201"/>
      <point x="425" y="-209"/>
      <point x="397" y="-209" type="curve" smooth="yes"/>
      <point x="340" y="-209"/>
      <point x="307" y="-178"/>
      <point x="307" y="-126" type="curve" smooth="yes"/>
      <point x="307" y="-73"/>
      <point x="344" y="-27"/>
      <point x="391" y="0" type="curve"/>
      <point x="12" y="0" type="line"/>
      <point x="17" y="51" type="line"/>
      <point x="100" y="51" type="line"/>
      <point x="158" y="599" type="line"/>
      <point x="75" y="599" type="line"/>
      <point x="80" y="650" type="line"/>
      <point x="540" y="650" type="line"/>
      <point x="540" y="468" type="line"/>
      <point x="490" y="462" type="line"/>
      <point x="485" y="599" type="line"/>
      <point x="214" y="599" type="line"/>
      <point x="187" y="356" type="line"/>
      <point x="497" y="356" type="line"/>
      <point x="492" y="305" type="line"/>
      <point x="182" y="305" type="line"/>
      <point x="155" y="51" type="line"/>
      <point x="431" y="51" type="line"/>
      <point x="465" y="188" type="line"/>
      <point x="513" y="183" type="line"/>
    </contour>
  </outline>
</glyph>
<glyph name="eogonek" format="1">
  <advance width="435"/>
  <unicode hex="0119"/>
  <outline>
    <contour>
      <point x="298" y="-189" type="line"/>
      <point x="275" y="-201"/>
      <point x="249" y="-209"/>
      <point x="221" y="-209" type="curve" smooth="yes"/>
      <point x="164" y="-209"/>
      <point x="131" y="-178"/>
      <point x="131" y="-126" type="curve" smooth="yes"/>
      <point x="131" y="-79"/>
      <point x="160" y="-37"/>
      <point x="199" y="-10" type="curve"/>
      <point x="92" y="-10"/>
      <point x="35" y="60"/>
      <point x="35" y="181" type="curve" smooth="yes"/>
      <point x="35" y="335"/>
      <point x="124" y="453"/>
      <point x="255" y="453" type="curve" smooth="yes"/>
      <point x="330" y="453"/>
      <point x="393" y="412"/>
      <point x="393" y="345" type="curve" smooth="yes"/>
      <point x="393" y="279"/>
      <point x="347" y="233"/>
      <point x="235" y="209" type="curve" smooth="yes"/>
      <point x="191" y="200"/>
      <point x="141" y="190"/>
      <point x="92" y="183" type="curve"/>
      <point x="92" y="92"/>
      <point x="124" y="36"/>
      <point x="209" y="36" type="curve" smooth="yes"/>
      <point x="269" y="36"/>
      <point x="315" y="67"/>
      <point x="339" y="130" type="curve"/>
      <point x="382" y="119" type="line"/>
      <point x="366" y="62"/>
      <point x="323" y="14"/>
      <point x="256" y="-3" type="curve"/>
      <point x="199" y="-37"/>
      <point x="181" y="-78"/>
      <point x="181" y="-113" type="curve" smooth="yes"/>
      <point x="181" y="-152"/>
      <point x="202" y="-165"/>
      <point x="237" y="-165" type="curve" smooth="yes"/>
      <point x="255" y="-165"/>
      <point x="272" y="-161"/>
      <point x="294" y="-149" type="curve"/>
    </contour>
    <contour>
      <point x="215" y="245" type="curve" smooth="yes"/>
      <point x="322" y="270"/>
      <point x="335" y="306"/>
      <point x="335" y="340" type="curve" smooth="yes"/>
      <point x="335" y="387"/>
      <point x="302" y="406"/>
      <point x="251" y="406" type="curve" smooth="yes"/>
      <point x="147" y="406"/>
      <point x="104" y="315"/>
      <point x="94" y="225" type="curve"/>
      <point x="148" y="232"/>
      <point x="186" y="239"/>
    </contour>
  </outline>
</glyph>
<glyph name="Ecaron" format="1">
  <advance width="574"/>
  <unicode hex="011A"/>
  <outline>
    <contour>
      <point x="347" y="705" type="line"/>
      <point x="362" y="705" type="line"/>
      <point x="494" y="792" type="line"/>
      <point x="479" y="820" type="line"/>
      <point x="360" y="755" type="line"/>
      <point x="254" y="818" type="line"/>
      <point x="235" y="789" type="line"/>
    </contour>
    <contour>
      <point x="477" y="0" type="line"/>
      <point x="13" y="0" type="line"/>
      <point x="18" y="51" type="line"/>
      <point x="101" y="51" type="line"/>
      <point x="159" y="599" type="line"/>
      <point x="76" y="599" type="line"/>
      <point x="81" y="650" type="line"/>
      <point x="541" y="650" type="line"/>
      <point x="541" y="468" type="line"/>
      <point x="491" y="462" type="line"/>
      <point x="486" y="599" type="line"/>
      <point x="215" y="599" type="line"/>
      <point x="188" y="356" type="line"/>
      <point x="498" y="356" type="line"/>
      <point x="493" y="305" type="line"/>
      <point x="183" y="305" type="line"/>
      <point x="156" y="51" type="line"/>
      <point x="432" y="51" type="line"/>
      <point x="466" y="188" type="line"/>
      <point x="514" y="183" type="line"/>
    </contour>
  </outline>
</glyph>
<glyph name="Gbreve" format="1">
  <advance width="680"/>
  <unicode hex="011E"/>
  <outline>
    <contour>
      <point x="470" y="812" type="curve"/>
      <point x="516" y="812" type="line"/>
      <point x="508" y="732"/>
      <point x="463" y="700"/>
      <point x="389" y="700" type="curve" smooth="yes"/>
      <point x="316" y="700"/>
      <point x="278" y="733"/>
      <point x="286" y="812" type="curve"/>
      <point x="332" y="812" type="line"/>
      <point x="326" y="755"/>
      <point x="349" y="740"/>
      <point x="393" y="740" type="curve" smooth="yes"/>
      <point x="441" y="740"/>
      <point x="464" y="758"/>
    </contour>
    <contour>
      <point x="651" y="277" type="line"/>
      <point x="657" y="328" type="line"/>
      <point x="387" y="328" type="line"/>
      <point x="381" y="277" type="line"/>
      <point x="542" y="277" type="line"/>
      <point x="534" y="204" type="line" smooth="yes"/>
      <point x="526" y="129"/>
      <point x="449" y="42"/>
      <point x="321" y="42" type="curve" smooth="yes"/>
      <point x="187" y="42"/>
      <point x="104" y="138"/>
      <point x="104" y="295" type="curve" smooth="yes"/>
      <point x="104" y="484"/>
      <point x="223" y="608"/>
      <point x="395" y="608" type="curve" smooth="yes"/>
      <point x="475" y="608"/>
      <point x="521" y="581"/>
      <point x="552" y="558" type="curve"/>
      <point x="562" y="461" type="line"/>
      <point x="611" y="467" type="line"/>
      <point x="606" y="584" type="line"/>
      <point x="561" y="630"/>
      <point x="484" y="660"/>
      <point x="396" y="660" type="curve" smooth="yes"/>
      <point x="195" y="660"/>
      <point x="47" y="502"/>
      <point x="47" y="292" type="curve" smooth="yes"/>
      <point x="47" y="119"/>
      <point x="148" y="-10"/>
      <point x="308" y="-10" type="curve" smooth="yes"/>
      <point x="404" y="-10"/>
      <point x="484" y="36"/>
      <point x="527" y="96" type="curve"/>
      <point x="525" y="0" type="line"/>
      <point x="568" y="0" type="line"/>
      <point x="597" y="277" type="line"/>
    </contour>
  </outline>
</glyph>
<glyph name="Gcommaaccent" format="1">
  <advance width="680"/>
  <unicode hex="0122"/>
  <outline>
    <contour>
      <point x="335" y="-66" type="line"/>
      <point x="283" y="-66" type="line"/>
      <point x="258" y="-219" type="line"/>
      <point x="303" y="-219" type="line"/>
    </contour>
    <contour>
      <point x="651" y="277" type="line"/>
      <point x="657" y="328" type="line"/>
      <point x="387" y="328" type="line"/>
      <point x="381" y="277" type="line"/>
      <point x="542" y="277" type="line"/>
      <point x="534" y="204" type="line" smooth="yes"/>
      <point x="526" y="129"/>
      <point x="449" y="42"/>
      <point x="321" y="42" type="curve" smooth="yes"/>
      <point x="187" y="42"/>
      <point x="104" y="138"/>
      <point x="104" y="295" type="curve" smooth="yes"/>
      <point x="104" y="484"/>
      <point x="223" y="608"/>
      <point x="395" y="608" type="curve" smooth="yes"/>
      <point x="475" y="608"/>
      <point x="521" y="581"/>
      <point x="552" y="558" type="curve"/>
      <point x="562" y="461" type="line"/>
      <point x="611" y="467" type="line"/>
      <point x="606" y="584" type="line"/>
      <point x="561" y="630"/>
      <point x="484" y="660"/>
      <point x="396" y="660" type="curve" smooth="yes"/>
      <point x="195" y="660"/>
      <point x="47" y="502"/>
      <point x="47" y="292" type="curve" smooth="yes"/>
      <point x="47" y="119"/>
      <point x="148" y="-10"/>
      <point x="308" y="-10" type="curve" smooth="yes"/>
      <point x="404" y="-10"/>
      <point x="484" y="36"/>
      <point x="527" y="96" type="curve"/>
      <point x="525" y="0" type="line"/>
      <point x="568" y="0" type="line"/>
      <point x="597" y="277" type="line"/>
    </contour>
  </outline>
</glyph>
<glyph name="hcircumflex" format="1">
  <advance width="501"/>
  <unicode hex="0125"/>
  <outline>
    <contour>
      <point x="45" y="0" type="line"/>
      <point x="123" y="642" type="line"/>
      <point x="43" y="642" type="line"/>
      <point x="47" y="671" type="line"/>
      <point x="66" y="688" type="line"/>
      <point x="182" y="688" type="line"/>
      <point x="142" y="361" type="line"/>
      <point x="174" y="417"/>
      <point x="222" y="453"/>
      <point x="292" y="453" type="curve" smooth="yes"/>
      <point x="377" y="453"/>
      <point x="433" y="401"/>
      <point x="418" y="280" type="curve" smooth="yes"/>
      <point x="389" y="46" type="line"/>
      <point x="469" y="46" type="line"/>
      <point x="465" y="15" type="line"/>
      <point x="446" y="0" type="line"/>
      <point x="331" y="0" type="line"/>
      <point x="364" y="267" type="line" smooth="yes"/>
      <point x="376" y="368"/>
      <point x="336" y="406"/>
      <point x="272" y="406" type="curve" smooth="yes"/>
      <point x="195" y="406"/>
      <point x="144" y="341"/>
      <point x="131" y="276" type="curve"/>
      <point x="98" y="0" type="line"/>
    </contour>
    <contour>
      <point x="162" y="863" type="line"/>
      <point x="146" y="863" type="line"/>
      <point x="19" y="745" type="line"/>
      <point x="40" y="718" type="line"/>
      <point x="147" y="808" type="line"/>
      <point x="238" y="718" type="line"/>
      <point x="264" y="745" type="line"/>
    </contour>
  </outline>
</glyph>
<glyph name="Hbar" format="1">
  <advance width="734"/>
  <unicode hex="0126"/>
  <outline>
    <contour>
      <point x="449" y="51" type="line"/>
      <point x="531" y="51" type="line"/>
      <point x="558" y="307" type="line"/>
      <point x="184" y="307" type="line"/>
      <point x="157" y="51" type="line"/>
      <point x="240" y="51" type="line"/>
      <point x="235" y="0" type="line"/>
      <point x="15" y="0" type="line"/>
      <point x="20" y="51" type="line"/>
      <point x="102" y="51" type="line"/>
      <point x="146" y="472" type="line"/>
      <point x="70" y="472" type="line"/>
      <point x="74" y="512" type="line"/>
      <point x="150" y="512" type="line"/>
      <point x="159" y="599" type="line"/>
      <point x="77" y="599" type="line"/>
      <point x="83" y="650" type="line"/>
      <point x="303" y="650" type="line"/>
      <point x="297" y="599" type="line"/>
      <point x="214" y="599" type="line"/>
      <point x="205" y="512" type="line"/>
      <point x="579" y="512" type="line"/>
      <point x="588" y="599" type="line"/>
      <point x="506" y="599" type="line"/>
      <point x="512" y="650" type="line"/>
      <point x="732" y="650" type="line"/>
      <point x="726" y="599" type="line"/>
      <point x="643" y="599" type="line"/>
      <point x="634" y="512" type="line"/>
      <point x="712" y="512" type="line"/>
      <point x="708" y="472" type="line"/>
      <point x="630" y="472" type="line"/>
      <point x="586" y="51" type="line"/>
      <point x="669" y="51" type="line"/>
      <point x="664" y="0" type="line"/>
      <point x="444" y="0" type="line"/>
    </contour>
    <contour>
      <point x="189" y="356" type="line"/>
      <point x="563" y="356" type="line"/>
      <point x="575" y="472" type="line"/>
      <point x="201" y="472" type="line"/>
    </contour>
  </outline>
</glyph>
<glyph name="hbar" format="1">
  <advance width="501"/>
  <unicode hex="0127"/>
  <outline>
    <contour>
      <point x="47" y="671" type="line"/>
      <point x="66" y="688" type="line"/>
      <point x="182" y="688" type="line"/>
      <point x="167" y="568" type="line"/>
      <point x="301" y="568" type="line"/>
      <point x="298" y="546" type="line"/>
      <point x="278" y="529" type="line"/>
      <point x="162" y="529" type="line"/>
      <point x="142" y="361" type="line"/>
      <point x="174" y="417"/>
      <point x="222" y="453"/>
      <point x="292" y="453" type="curve" smooth="yes"/>
      <point x="377" y="453"/>
      <point x="433" y="401"/>
      <point x="418" y="280" type="curve" smooth="yes"/>
      <point x="389" y="46" type="line"/>
      <point x="469" y="46" type="line"/>
      <point x="465" y="15" type="line"/>
      <point x="446" y="0" type="line"/>
      <point x="331" y="0" type="line"/>
      <point x="364" y="267" type="line" smooth="yes"/>
      <point x="376" y="368"/>
      <point x="336" y="406"/>
      <point x="272" y="406" type="curve" smooth="yes"/>
      <point x="198" y="406"/>
      <point x="147" y="345"/>
      <point x="132" y="283" type="curve"/>
      <point x="98" y="0" type="line"/>
      <point x="45" y="0" type="line"/>
      <point x="109" y="529" type="line"/>
      <point x="9" y="529" type="line"/>
      <point x="12" y="550" type="line"/>
      <point x="32" y="568" type="line"/>
      <point x="114" y="568" type="line"/>
      <point x="123" y="642" type="line"/>
      <point x="43" y="642" type="line"/>
    </contour>
  </outline>
</glyph>
<glyph name="Imacron" format="1">
  <advance width="303"/>
  <unicode hex="012A"/>
  <outline>
    <contour>
      <point x="18" y="51" type="line"/>
      <point x="101" y="51" type="line"/>
      <point x="158" y="599" type="line"/>
      <point x="75" y="599" type="line"/>
      <point x="81" y="650" type="line"/>
      <point x="301" y="650" type="line"/>
      <point x="296" y="599" type="line"/>
      <point x="212" y="599" type="line"/>
      <point x="155" y="51" type="line"/>
      <point x="239" y="51" type="line"/>
      <point x="233" y="0" type="line"/>
      <point x="13" y="0" type="line"/>
    </contour>
    <contour>
      <point x="75" y="782" type="line"/>
      <point x="340" y="782" type="line"/>
      <point x="335" y="736" type="line"/>
      <point x="70" y="736" type="line"/>
    </contour>
  </outline>
</glyph>
<glyph name="imacron" format="1">
  <advance width="251"/>
  <unicode hex="012B"/>
  <outline>
    <contour>
      <point x="37" y="426" type="line"/>
      <point x="56" y="444" type="line"/>
      <point x="173" y="444" type="line"/>
      <point x="124" y="46" type="line"/>
      <point x="204" y="46" type="line"/>
      <point x="200" y="15" type="line"/>
      <point x="181" y="0" type="line"/>
      <point x="66" y="0" type="line"/>
      <point x="114" y="397" type="line"/>
      <point x="33" y="397" type="line"/>
    </contour>
    <contour>
      <point x="33" y="618" type="line"/>
      <point x="266" y="618" type="line"/>
      <point x="262" y="572" type="line"/>
      <point x="28" y="572" type="line"/>
    </contour>
  </outline>
</glyph>
<glyph name="ibreve" format="1">
  <advance width="251"/>
  <unicode hex="012D"/>
  <outline>
    <contour>
      <point x="37" y="426" type="line"/>
      <point x="56" y="444" type="line"/>
      <point x="173" y="444" type="line"/>
      <point x="124" y="46" type="line"/>
      <point x="204" y="46" type="line"/>
      <point x="200" y="15" type="line"/>
      <point x="181" y="0" type="line"/>
      <point x="66" y="0" type="line"/>
      <point x="114" y="397" type="line"/>
      <point x="33" y="397" type="line"/>
    </contour>
    <contour>
      <point x="237" y="655" type="curve"/>
      <point x="284" y="655" type="line"/>
      <point x="275" y="576"/>
      <point x="232" y="537"/>
      <point x="156" y="537" type="curve" smooth="yes"/>
      <point x="82" y="537"/>
      <point x="45" y="577"/>
      <point x="53" y="655" type="curve"/>
      <point x="100" y="655" type="line"/>
      <point x="93" y="597"/>
      <point x="116" y="577"/>
      <point x="161" y="577" type="curve" smooth="yes"/>
      <point x="208" y="577"/>
      <point x="232" y="600"/>
    </contour>
  </outline>
</glyph>
<glyph name="Iogonek" format="1">
  <advance width="302"/>
  <unicode hex="012E"/>
  <outline>
    <contour>
      <point x="185" y="-189" type="line"/>
      <point x="162" y="-201"/>
      <point x="136" y="-209"/>
      <point x="108" y="-209" type="curve" smooth="yes"/>
      <point x="51" y="-209"/>
      <point x="18" y="-178"/>
      <point x="18" y="-126" type="curve" smooth="yes"/>
      <point x="18" y="-73"/>
      <point x="55" y="-27"/>
      <point x="102" y="0" type="curve"/>
      <point x="13" y="0" type="line"/>
      <point x="18" y="51" type="line"/>
      <point x="101" y="51" type="line"/>
      <point x="158" y="599" type="line"/>
      <point x="75" y="599" type="line"/>
      <point x="81" y="650" type="line"/>
      <point x="301" y="650" type="line"/>
      <point x="296" y="599" type="line"/>
      <point x="212" y="599" type="line"/>
      <point x="155" y="51" type="line"/>
      <point x="239" y="51" type="line"/>
      <point x="233" y="0" type="line"/>
      <point x="149" y="0" type="line"/>
      <point x="88" y="-34"/>
      <point x="68" y="-77"/>
      <point x="68" y="-113" type="curve" smooth="yes"/>
      <point x="68" y="-152"/>
      <point x="89" y="-165"/>
      <point x="124" y="-165" type="curve" smooth="yes"/>
      <point x="142" y="-165"/>
      <point x="159" y="-161"/>
      <point x="181" y="-149" type="curve"/>
    </contour>
  </outline>
</glyph>
<glyph name="Jcircumflex" format="1">
  <advance width="436"/>
  <unicode hex="0134"/>
  <outline>
    <contour>
      <point x="179" y="650" type="line"/>
      <point x="437" y="650" type="line"/>
      <point x="432" y="599" type="line"/>
      <point x="359" y="599" type="line"/>
      <point x="313" y="161" type="line"/>
      <point x="302" y="47"/>
      <point x="238" y="-10"/>
      <point x="140" y="-10" type="curve" smooth="yes"/>
      <point x="62" y="-10"/>
      <point x="21" y="26"/>
      <point x="0" y="82" type="curve"/>
      <point x="44" y="114" type="line"/>
      <point x="68" y="62"/>
      <point x="95" y="44"/>
      <point x="141" y="44" type="curve" smooth="yes"/>
      <point x="214" y="44"/>
      <point x="250" y="90"/>
      <point x="258" y="161" type="curve" smooth="yes"/>
      <point x="304" y="599" type="line"/>
      <point x="174" y="599" type="line"/>
    </contour>
    <contour>
      <point x="340" y="820" type="line"/>
      <point x="325" y="820" type="line"/>
      <point x="192" y="732" type="line"/>
      <point x="208" y="705" type="line"/>
      <point x="326" y="769" type="line"/>
      <point x="433" y="706" type="line"/>
      <point x="451" y="736" type="line"/>
    </contour>
  </outline>
</glyph>
<glyph name="Lslash" format="1">
  <advance width="526"/>
  <unicode hex="0141"/>
  <outline>
    <contour>
      <point x="465" y="0" type="line"/>
      <point x="505" y="202" type="line"/>
      <point x="455" y="206" type="line"/>
      <point x="419" y="51" type="line"/>
      <point x="157" y="51" type="line"/>
      <point x="182" y="291" type="line"/>
      <point x="349" y="360" type="line"/>
      <point x="354" y="408" type="line"/>
      <point x="187" y="340" type="line"/>
      <point x="215" y="599" type="line"/>
      <point x="326" y="599" type="line"/>
      <point x="331" y="650" type="line"/>
      <point x="82" y="650" type="line"/>
      <point x="77" y="599" type="line"/>
      <point x="160" y="599" type="line"/>
      <point x="130" y="316" type="line"/>
      <point x="48" y="283" type="line"/>
      <point x="44" y="235" type="line"/>
      <point x="125" y="268" type="line"/>
      <point x="102" y="51" type="line"/>
      <point x="19" y="51" type="line"/>
      <point x="14" y="0" type="line"/>
    </contour>
  </outline>
</glyph>
<glyph name="lslash" format="1">
  <advance width="255"/>
  <unicode hex="0142"/>
  <outline>
    <contour>
      <point x="26" y="310" type="line"/>
      <point x="111" y="349" type="line"/>
      <point x="147" y="642" type="line"/>
      <point x="66" y="642" type="line"/>
      <point x="70" y="671" type="line"/>
      <point x="88" y="688" type="line"/>
      <point x="206" y="688" type="line"/>
      <point x="167" y="374" type="line"/>
      <point x="253" y="413" type="line"/>
      <point x="248" y="365" type="line"/>
      <point x="161" y="326" type="line"/>
      <point x="127" y="46" type="line"/>
      <point x="206" y="46" type="line"/>
      <point x="202" y="15" type="line"/>
      <point x="184" y="0" type="line"/>
      <point x="69" y="0" type="line"/>
      <point x="105" y="300" type="line"/>
      <point x="21" y="262" type="line"/>
    </contour>
  </outline>
</glyph>
<glyph name="Ncommaaccent" format="1">
  <advance width="710"/>
  <unicode hex="0145"/>
  <outline>
    <contour>
      <point x="25" y="51" type="line"/>
      <point x="101" y="51" type="line"/>
      <point x="158" y="599" type="line"/>
      <point x="74" y="599" type="line"/>
      <point x="79" y="650" type="line"/>
      <point x="204" y="650" type="line"/>
      <point x="521" y="117" type="line"/>
      <point x="524" y="117" type="line"/>
      <point x="574" y="599" type="line"/>
      <point x="479" y="599" type="line"/>
      <point x="484" y="650" type="line"/>
      <point x="716" y="650" type="line"/>
      <point x="711" y="599" type="line"/>
      <point x="628" y="599" type="line"/>
      <point x="566" y="0" type="line"/>
      <point x="528" y="0" type="line"/>
      <point x="208" y="539" type="line"/>
      <point x="205" y="539" type="line"/>
      <point x="153" y="51" type="line"/>
      <point x="259" y="51" type="line"/>
      <point x="254" y="0" type="line"/>
      <point x="20" y="0" type="line"/>
    </contour>
    <contour>
      <point x="358" y="-66" type="line"/>
      <point x="306" y="-66" type="line"/>
      <point x="281" y="-219" type="line"/>
      <point x="326" y="-219" type="line"/>
    </contour>
  </outline>
</glyph>
<glyph name="napostrophe" format="1">
  <advance width="518"/>
  <unicode hex="0149"/>
  <outline>
    <contour>
      <point x="53" y="444" type="line"/>
      <point x="161" y="444" type="line"/>
      <point x="157" y="357" type="line"/>
      <point x="190" y="415"/>
      <point x="239" y="453"/>
      <point x="310" y="453" type="curve" smooth="yes"/>
      <point x="396" y="453"/>
      <point x="451" y="401"/>
      <point x="436" y="280" type="curve" smooth="yes"/>
      <point x="407" y="46" type="line"/>
      <point x="487" y="46" type="line"/>
      <point x="483" y="15" type="line"/>
      <point x="464" y="0" type="line"/>
      <point x="350" y="0" type="line"/>
      <point x="382" y="267" type="line" smooth="yes"/>
      <point x="394" y="368"/>
      <point x="358" y="406"/>
      <point x="290" y="406" type="curve" smooth="yes"/>
      <point x="211" y="406"/>
      <point x="160" y="337"/>
      <point x="149" y="270" type="curve" smooth="yes"/>
      <point x="148" y="262" type="line"/>
      <point x="116" y="0" type="line"/>
      <point x="64" y="0" type="line"/>
      <point x="112" y="397" type="line"/>
      <point x="30" y="397" type="line"/>
      <point x="34" y="426" type="line"/>
    </contour>
    <contour>
      <point x="45" y="509" type="line"/>
      <point x="93" y="509" type="line"/>
      <point x="159" y="703" type="line"/>
      <point x="110" y="703" type="line"/>
    </contour>
  </outline>
</glyph>
<glyph name="Obreve" format="1">
  <advance width="716"/>
  <unicode hex="014E"/>
  <outline>
    <contour>
      <point x="489" y="812" type="curve"/>
      <point x="535" y="812" type="line"/>
      <point x="527" y="732"/>
      <point x="482" y="700"/>
      <point x="408" y="700" type="curve" smooth="yes"/>
      <point x="335" y="700"/>
      <point x="297" y="733"/>
      <point x="305" y="812" type="curve"/>
      <point x="351" y="812" type="line"/>
      <point x="345" y="755"/>
      <point x="368" y="740"/>
      <point x="412" y="740" type="curve" smooth="yes"/>
      <point x="460" y="740"/>
      <point x="483" y="758"/>
    </contour>
    <contour>
      <point x="396" y="660" type="curve" smooth="yes"/>
      <point x="198" y="660"/>
      <point x="46" y="494"/>
      <point x="46" y="291" type="curve" smooth="yes"/>
      <point x="46" y="125"/>
      <point x="154" y="-10"/>
      <point x="329" y="-10" type="curve" smooth="yes"/>
      <point x="532" y="-10"/>
      <point x="681" y="158"/>
      <point x="681" y="359" type="curve" smooth="yes"/>
      <point x="681" y="526"/>
      <point x="571" y="660"/>
    </contour>
    <contour>
      <point x="337" y="42" type="curve" smooth="yes"/>
      <point x="181" y="42"/>
      <point x="105" y="158"/>
      <point x="105" y="296" type="curve" smooth="yes"/>
      <point x="105" y="465"/>
      <point x="222" y="608"/>
      <point x="390" y="608" type="curve" smooth="yes"/>
      <point x="539" y="608"/>
      <point x="622" y="499"/>
      <point x="622" y="355" type="curve" smooth="yes"/>
      <point x="622" y="188"/>
      <point x="509" y="42"/>
    </contour>
  </outline>
</glyph>
<glyph name="obreve" format="1">
  <advance width="480"/>
  <unicode hex="014F"/>
  <outline>
    <contour>
      <point x="36" y="188" type="curve" smooth="yes"/>
      <point x="36" y="329"/>
      <point x="113" y="453"/>
      <point x="260" y="453" type="curve" smooth="yes"/>
      <point x="386" y="453"/>
      <point x="432" y="361"/>
      <point x="432" y="252" type="curve" smooth="yes"/>
      <point x="432" y="107"/>
      <point x="351" y="-10"/>
      <point x="208" y="-10" type="curve" smooth="yes"/>
      <point x="87" y="-10"/>
      <point x="36" y="74"/>
    </contour>
    <contour>
      <point x="93" y="190" type="curve" smooth="yes"/>
      <point x="93" y="100"/>
      <point x="122" y="36"/>
      <point x="213" y="36" type="curve" smooth="yes"/>
      <point x="325" y="36"/>
      <point x="374" y="135"/>
      <point x="374" y="251" type="curve" smooth="yes"/>
      <point x="374" y="340"/>
      <point x="346" y="406"/>
      <point x="254" y="406" type="curve" smooth="yes"/>
      <point x="148" y="406"/>
      <point x="93" y="313"/>
    </contour>
    <contour>
      <point x="355" y="655" type="curve"/>
      <point x="402" y="655" type="line"/>
      <point x="393" y="576"/>
      <point x="350" y="537"/>
      <point x="274" y="537" type="curve" smooth="yes"/>
      <point x="200" y="537"/>
      <point x="163" y="577"/>
      <point x="171" y="655" type="curve"/>
      <point x="218" y="655" type="line"/>
      <point x="211" y="597"/>
      <point x="234" y="577"/>
      <point x="279" y="577" type="curve" smooth="yes"/>
      <point x="326" y="577"/>
      <point x="350" y="600"/>
    </contour>
  </outline>
</glyph>
<glyph name="ohungarumlaut" format="1">
  <advance width="479"/>
  <unicode hex="0151"/>
  <outline>
    <contour>
      <point x="487" y="631" type="line"/>
      <point x="460" y="678" type="line"/>
      <point x="297" y="550" type="line"/>
      <point x="312" y="523" type="line"/>
    </contour>
    <contour>
      <point x="342" y="682" type="line"/>
      <point x="299" y="714" type="line"/>
      <point x="184" y="541" type="line"/>
      <point x="208" y="522" type="line"/>
    </contour>
    <contour>
      <point x="36" y="188" type="curve" smooth="yes"/>
      <point x="36" y="329"/>
      <point x="113" y="453"/>
      <point x="260" y="453" type="curve" smooth="yes"/>
      <point x="386" y="453"/>
      <point x="432" y="361"/>
      <point x="432" y="252" type="curve" smooth="yes"/>
      <point x="432" y="107"/>
      <point x="351" y="-10"/>
      <point x="208" y="-10" type="curve" smooth="yes"/>
      <point x="87" y="-10"/>
      <point x="36" y="74"/>
    </contour>
    <contour>
      <point x="93" y="190" type="curve" smooth="yes"/>
      <point x="93" y="100"/>
      <point x="122" y="36"/>
      <point x="213" y="36" type="curve" smooth="yes"/>
      <point x="325" y="36"/>
      <point x="374" y="135"/>
      <point x="374" y="251" type="curve" smooth="yes"/>
      <point x="374" y="340"/>
      <point x="346" y="406"/>
      <point x="254" y="406" type="curve" smooth="yes"/>
      <point x="148" y="406"/>
      <point x="93" y="313"/>
    </contour>
  </outline>
</glyph>
<glyph name="oe" format="1">
  <advance width="772"/>
  <unicode hex="0153"/>
  <outline>
    <contour>
      <point x="36" y="188" type="curve" smooth="yes"/>
      <point x="36" y="329"/>
      <point x="113" y="453"/>
      <point x="260" y="453" type="curve" smooth="yes"/>
      <point x="345" y="453"/>
      <point x="393" y="411"/>
      <point x="416" y="351" type="curve"/>
      <point x="454" y="414"/>
      <point x="516" y="453"/>
      <point x="592" y="453" type="curve" smooth="yes"/>
      <point x="667" y="453"/>
      <point x="730" y="412"/>
      <point x="730" y="345" type="curve" smooth="yes"/>
      <point x="730" y="279"/>
      <point x="684" y="233"/>
      <point x="572" y="209" type="curve" smooth="yes"/>
      <point x="528" y="200"/>
      <point x="478" y="190"/>
      <point x="429" y="183" type="curve"/>
      <point x="429" y="92"/>
      <point x="461" y="36"/>
      <point x="546" y="36" type="curve" smooth="yes"/>
      <point x="606" y="36"/>
      <point x="652" y="67"/>
      <point x="676" y="130" type="curve"/>
      <point x="719" y="119" type="line"/>
      <point x="699" y="47"/>
      <point x="636" y="-10"/>
      <point x="537" y="-10" type="curve" smooth="yes"/>
      <point x="462" y="-10"/>
      <point x="411" y="24"/>
      <point x="387" y="85" type="curve"/>
      <point x="349" y="27"/>
      <point x="288" y="-10"/>
      <point x="208" y="-10" type="curve" smooth="yes"/>
      <point x="87" y="-10"/>
      <point x="36" y="74"/>
    </contour>
    <contour>
      <point x="93" y="190" type="curve" smooth="yes"/>
      <point x="93" y="100"/>
      <point x="122" y="36"/>
      <point x="213" y="36" type="curve" smooth="yes"/>
      <point x="325" y="36"/>
      <point x="374" y="135"/>
      <point x="374" y="251" type="curve" smooth="yes"/>
      <point x="374" y="340"/>
      <point x="346" y="406"/>
      <point x="254" y="406" type="curve" smooth="yes"/>
      <point x="148" y="406"/>
      <point x="93" y="313"/>
    </contour>
    <contour>
      <point x="552" y="245" type="curve" smooth="yes"/>
      <point x="659" y="270"/>
      <point x="672" y="306"/>
      <point x="672" y="340" type="curve" smooth="yes"/>
      <point x="672" y="387"/>
      <point x="639" y="406"/>
      <point x="588" y="406" type="curve" smooth="yes"/>
      <point x="484" y="406"/>
      <point x="440" y="315"/>
      <point x="431" y="225" type="curve"/>
      <point x="484" y="232"/>
      <point x="523" y="239"/>
    </contour>
  </outline>
</glyph>
<glyph name="rcommaaccent" format="1">
  <advance width="339"/>
  <unicode hex="0157"/>
  <outline>
    <contour>
      <point x="222" y="16" type="line"/>
      <point x="203" y="0" type="line"/>
      <point x="1" y="0" type="line"/>
      <point x="5" y="29" type="line"/>
      <point x="23" y="46" type="line"/>
      <point x="78" y="46" type="line"/>
      <point x="121" y="397" type="line"/>
      <point x="41" y="397" type="line"/>
      <point x="45" y="426" type="line"/>
      <point x="63" y="444" type="line"/>
      <point x="169" y="444" type="line"/>
      <point x="166" y="350" type="line"/>
      <point x="191" y="407"/>
      <point x="230" y="454"/>
      <point x="285" y="454" type="curve" smooth="yes"/>
      <point x="304" y="454"/>
      <point x="322" y="449"/>
      <point x="341" y="437" type="curve"/>
      <point x="330" y="382" type="line"/>
      <point x="310" y="393"/>
      <point x="293" y="397"/>
      <point x="276" y="397" type="curve" smooth="yes"/>
      <point x="219" y="397"/>
      <point x="176" y="329"/>
      <point x="160" y="263" type="curve"/>
      <point x="132" y="46" type="line"/>
      <point x="226" y="46" type="line"/>
    </contour>
    <contour>
      <point x="117" y="-66" type="line"/>
      <point x="65" y="-66" type="line"/>
      <point x="40" y="-219" type="line"/>
      <point x="85" y="-219" type="line"/>
    </contour>
  </outline>
</glyph>
<glyph name="Scircumflex" format="1">
  <advance width="519"/>
  <unicode hex="015C"/>
  <outline>
    <contour>
      <point x="460" y="191" type="curve" smooth="yes"/>
      <point x="460" y="64"/>
      <point x="375" y="-10"/>
      <point x="225" y="-10" type="curve" smooth="yes"/>
      <point x="145" y="-10"/>
      <point x="63" y="11"/>
      <point x="26" y="39" type="curve"/>
      <point x="49" y="158" type="line"/>
      <point x="94" y="153" type="line"/>
      <point x="83" y="71" type="line"/>
      <point x="120" y="50"/>
      <point x="179" y="41"/>
      <point x="225" y="41" type="curve" smooth="yes"/>
      <point x="327" y="41"/>
      <point x="400" y="84"/>
      <point x="400" y="183" type="curve" smooth="yes"/>
      <point x="400" y="285"/>
      <point x="323" y="296"/>
      <point x="247" y="315" type="curve" smooth="yes"/>
      <point x="167" y="335"/>
      <point x="79" y="365"/>
      <point x="79" y="478" type="curve" smooth="yes"/>
      <point x="79" y="604"/>
      <point x="187" y="660"/>
      <point x="292" y="660" type="curve" smooth="yes"/>
      <point x="357" y="660"/>
      <point x="436" y="639"/>
      <point x="471" y="611" type="curve"/>
      <point x="464" y="485" type="line"/>
      <point x="417" y="480" type="line"/>
      <point x="417" y="583" type="line"/>
      <point x="377" y="604"/>
      <point x="330" y="609"/>
      <point x="298" y="609" type="curve" smooth="yes"/>
      <point x="198" y="609"/>
      <point x="137" y="561"/>
      <point x="137" y="481" type="curve" smooth="yes"/>
      <point x="137" y="401"/>
      <point x="197" y="385"/>
      <point x="273" y="366" type="curve" smooth="yes"/>
      <point x="376" y="340"/>
      <point x="460" y="318"/>
    </contour>
    <contour>
      <point x="320" y="820" type="line"/>
      <point x="305" y="820" type="line"/>
      <point x="172" y="732" type="line"/>
      <point x="188" y="705" type="line"/>
      <point x="306" y="769" type="line"/>
      <point x="413" y="706" type="line"/>
      <point x="431" y="736" type="line"/>
    </contour>
  </outline>
</glyph>
<glyph name="Tcommaaccent" format="1">
  <advance width="601"/>
  <unicode hex="0162"/>
  <outline>
    <contour>
      <point x="291" y="-66" type="line"/>
      <point x="239" y="-66" type="line"/>
      <point x="214" y="-219" type="line"/>
      <point x="259" y="-219" type="line"/>
    </contour>
    <contour>
      <point x="592" y="458" type="line"/>
      <point x="593" y="650" type="line"/>
      <point x="83" y="650" type="line"/>
      <point x="45" y="458" type="line"/>
      <point x="95" y="454" type="line"/>
      <point x="129" y="599" type="line"/>
      <point x="307" y="599" type="line"/>
      <point x="249" y="51" type="line"/>
      <point x="136" y="51" type="line"/>
      <point x="131" y="0" type="line"/>
      <point x="414" y="0" type="line"/>
      <point x="419" y="51" type="line"/>
      <point x="304" y="51" type="line"/>
      <point x="362" y="599" type="line"/>
      <point x="537" y="599" type="line"/>
      <point x="541" y="454" type="line"/>
    </contour>
  </outline>
</glyph>
<glyph name="Tbar" format="1">
  <advance width="605"/>
  <unicode hex="0166"/>
  <outline>
    <contour>
      <point x="593" y="458" type="line"/>
      <point x="594" y="650" type="line"/>
      <point x="84" y="650" type="line"/>
      <point x="46" y="458" type="line"/>
      <point x="96" y="454" type="line"/>
      <point x="130" y="599" type="line"/>
      <point x="308" y="599" type="line"/>
      <point x="278" y="320" type="line"/>
      <point x="124" y="320" type="line"/>
      <point x="120" y="280" type="line"/>
      <point x="274" y="280" type="line"/>
      <point x="250" y="51" type="line"/>
      <point x="137" y="51" type="line"/>
      <point x="132" y="0" type="line"/>
      <point x="415" y="0" type="line"/>
      <point x="420" y="51" type="line"/>
      <point x="305" y="51" type="line"/>
      <point x="329" y="280" type="line"/>
      <point x="485" y="280" type="line"/>
      <point x="489" y="320" type="line"/>
      <point x="333" y="320" type="line"/>
      <point x="363" y="599" type="line"/>
      <point x="538" y="599" type="line"/>
      <point x="542" y="454" type="line"/>
    </contour>
  </outline>
</glyph>
<glyph name="Utilde" format="1">
  <advance width="698"/>
  <unicode hex="0168"/>
  <outline>
    <contour>
      <point x="489" y="650" type="line"/>
      <point x="698" y="650" type="line"/>
      <point x="693" y="599" type="line"/>
      <point x="629" y="599" type="line"/>
      <point x="595" y="266" type="line"/>
      <point x="580" y="128"/>
      <point x="519" y="-10"/>
      <point x="325" y="-10" type="curve" smooth="yes"/>
      <point x="138" y="-10"/>
      <point x="87" y="115"/>
      <point x="102" y="255" type="curve" smooth="yes"/>
      <point x="138" y="599" type="line"/>
      <point x="70" y="599" type="line"/>
      <point x="75" y="650" type="line"/>
      <point x="291" y="650" type="line"/>
      <point x="285" y="599" type="line"/>
      <point x="194" y="599" type="line"/>
      <point x="158" y="257" type="line" smooth="yes"/>
      <point x="144" y="119"/>
      <point x="199" y="42"/>
      <point x="331" y="42" type="curve" smooth="yes"/>
      <point x="453" y="42"/>
      <point x="526" y="116"/>
      <point x="543" y="266" type="curve"/>
      <point x="577" y="599" type="line"/>
      <point x="484" y="599" type="line"/>
    </contour>
    <contour>
      <point x="293" y="707" type="line"/>
      <point x="308" y="740"/>
      <point x="332" y="748"/>
      <point x="349" y="748" type="curve" smooth="yes"/>
      <point x="386" y="748"/>
      <point x="416" y="712"/>
      <point x="465" y="712" type="curve" smooth="yes"/>
      <point x="505" y="712"/>
      <point x="531" y="739"/>
      <point x="548" y="792" type="curve"/>
      <point x="518" y="800" type="line"/>
      <point x="503" y="762"/>
      <point x="485" y="757"/>
      <point x="468" y="757" type="curve" smooth="yes"/>
      <point x="418" y="757"/>
      <point x="397" y="793"/>
      <point x="353" y="793" type="curve" smooth="yes"/>
      <point x="308" y="793"/>
      <point x="277" y="752"/>
      <point x="266" y="719" type="curve"/>
    </contour>
  </outline>
</glyph>
<glyph name="umacron" format="1">
  <advance width="517"/>
  <unicode hex="016B"/>
  <outline>
    <contour>
      <point x="475" y="46" type="line"/>
      <point x="471" y="17" type="line"/>
      <point x="452" y="0" type="line"/>
      <point x="344" y="0" type="line"/>
      <point x="347" y="85" type="line"/>
      <point x="315" y="27"/>
      <point x="268" y="-9"/>
      <point x="198" y="-9" type="curve" smooth="yes"/>
      <point x="113" y="-9"/>
      <point x="58" y="42"/>
      <point x="72" y="163" type="curve" smooth="yes"/>
      <point x="100" y="397" type="line"/>
      <point x="21" y="397" type="line"/>
      <point x="25" y="428" type="line"/>
      <point x="44" y="444" type="line"/>
      <point x="159" y="444" type="line"/>
      <point x="127" y="176" type="line"/>
      <point x="114" y="76"/>
      <point x="146" y="37"/>
      <point x="219" y="37" type="curve" smooth="yes"/>
      <point x="293" y="37"/>
      <point x="339" y="98"/>
      <point x="354" y="160" type="curve"/>
      <point x="389" y="444" type="line"/>
      <point x="442" y="444" type="line"/>
      <point x="393" y="46" type="line"/>
    </contour>
    <contour>
      <point x="173" y="618" type="line"/>
      <point x="406" y="618" type="line"/>
      <point x="402" y="572" type="line"/>
      <point x="168" y="572" type="line"/>
    </contour>
  </outline>
</glyph>
<glyph name="uring" format="1">
  <advance width="517"/>
  <unicode hex="016F"/>
  <outline>
    <contour>
      <point x="475" y="46" type="line"/>
      <point x="471" y="17" type="line"/>
      <point x="452" y="0" type="line"/>
      <point x="344" y="0" type="line"/>
      <point x="347" y="85" type="line"/>
      <point x="315" y="27"/>
      <point x="268" y="-9"/>
      <point x="198" y="-9" type="curve" smooth="yes"/>
      <point x="113" y="-9"/>
      <point x="58" y="42"/>
      <point x="72" y="163" type="curve" smooth="yes"/>
      <point x="100" y="397" type="line"/>
      <point x="21" y="397" type="line"/>
      <point x="25" y="428" type="line"/>
      <point x="44" y="444" type="line"/>
      <point x="159" y="444" type="line"/>
      <point x="127" y="176" type="line"/>
      <point x="114" y="76"/>
      <point x="146" y="37"/>
      <point x="219" y="37" type="curve" smooth="yes"/>
      <point x="293" y="37"/>
      <point x="339" y="98"/>
      <point x="354" y="160" type="curve"/>
      <point x="389" y="444" type="line"/>
      <point x="442" y="444" type="line"/>
      <point x="393" y="46" type="line"/>
    </contour>
    <contour>
      <point x="274" y="514" type="curve" smooth="yes"/>
      <point x="343" y="514"/>
      <point x="382" y="562"/>
      <point x="382" y="617" type="curve" smooth="yes"/>
      <point x="382" y="665"/>
      <point x="349" y="698"/>
      <point x="296" y="698" type="curve" smooth="yes"/>
      <point x="231" y="698"/>
      <point x="189" y="656"/>
      <point x="189" y="595" type="curve" smooth="yes"/>
      <point x="189" y="548"/>
      <point x="218" y="514"/>
    </contour>
    <contour>
      <point x="279" y="549" type="curve" smooth="yes"/>
      <point x="245" y="549"/>
      <point x="230" y="568"/>
      <point x="230" y="598" type="curve" smooth="yes"/>
      <point x="230" y="636"/>
      <point x="253" y="663"/>
      <point x="292" y="663" type="curve" smooth="yes"/>
      <point x="328" y="663"/>
      <point x="342" y="641"/>
      <point x="342" y="614" type="curve" smooth="yes"/>
      <point x="342" y="577"/>
      <point x="319" y="549"/>
    </contour>
  </outline>
</glyph>
<glyph name="Uhungarumlaut" format="1">
  <advance width="698"/>
  <unicode hex="0170"/>
  <outline>
    <contour>
      <point x="489" y="650" type="line"/>
      <point x="698" y="650" type="line"/>
      <point x="693" y="599" type="line"/>
      <point x="629" y="599" type="line"/>
      <point x="595" y="266" type="line"/>
      <point x="580" y="128"/>
      <point x="519" y="-10"/>
      <point x="325" y="-10" type="curve" smooth="yes"/>
      <point x="138" y="-10"/>
      <point x="87" y="115"/>
      <point x="102" y="255" type="curve" smooth="yes"/>
      <point x="138" y="599" type="line"/>
      <point x="70" y="599" type="line"/>
      <point x="75" y="650" type="line"/>
      <point x="291" y="650" type="line"/>
      <point x="285" y="599" type="line"/>
      <point x="194" y="599" type="line"/>
      <point x="158" y="257" type="line" smooth="yes"/>
      <point x="144" y="119"/>
      <point x="199" y="42"/>
      <point x="331" y="42" type="curve" smooth="yes"/>
      <point x="453" y="42"/>
      <point x="526" y="116"/>
      <point x="543" y="266" type="curve"/>
      <point x="577" y="599" type="line"/>
      <point x="484" y="599" type="line"/>
    </contour>
    <contour>
      <point x="610" y="753" type="line"/>
      <point x="598" y="807" type="line"/>
      <point x="410" y="738" type="line"/>
      <point x="417" y="707" type="line"/>
    </contour>
    <contour>
      <point x="472" y="837" type="line"/>
      <point x="438" y="875" type="line"/>
      <point x="289" y="730" type="line"/>
      <point x="309" y="708" type="line"/>
    </contour>
  </outline>
</glyph>
<glyph name="Uogonek" format="1">
  <advance width="699"/>
  <unicode hex="0172"/>
  <outline>
    <contour>
      <point x="76" y="650" type="line"/>
      <point x="292" y="650" type="line"/>
      <point x="286" y="599" type="line"/>
      <point x="195" y="599" type="line"/>
      <point x="159" y="257" type="line" smooth="yes"/>
      <point x="145" y="119"/>
      <point x="200" y="42"/>
      <point x="332" y="42" type="curve" smooth="yes"/>
      <point x="454" y="42"/>
      <point x="527" y="116"/>
      <point x="544" y="266" type="curve"/>
      <point x="578" y="599" type="line"/>
      <point x="485" y="599" type="line"/>
      <point x="490" y="650" type="line"/>
      <point x="699" y="650" type="line"/>
      <point x="694" y="599" type="line"/>
      <point x="630" y="599" type="line"/>
      <point x="596" y="266" type="line" smooth="yes"/>
      <point x="583" y="144"/>
      <point x="534" y="23"/>
      <point x="390" y="-4" type="curve"/>
      <point x="335" y="-38"/>
      <point x="317" y="-78"/>
      <point x="317" y="-113" type="curve" smooth="yes"/>
      <point x="317" y="-152"/>
      <point x="338" y="-165"/>
      <point x="373" y="-165" type="curve" smooth="yes"/>
      <point x="391" y="-165"/>
      <point x="408" y="-161"/>
      <point x="430" y="-149" type="curve"/>
      <point x="434" y="-189" type="line"/>
      <point x="411" y="-201"/>
      <point x="385" y="-209"/>
      <point x="357" y="-209" type="curve" smooth="yes"/>
      <point x="300" y="-209"/>
      <point x="267" y="-178"/>
      <point x="267" y="-126" type="curve" smooth="yes"/>
      <point x="267" y="-79"/>
      <point x="296" y="-37"/>
      <point x="335" y="-9" type="curve"/>
      <point x="332" y="-9"/>
      <point x="329" y="-10"/>
      <point x="326" y="-10" type="curve" smooth="yes"/>
      <point x="139" y="-10"/>
      <point x="88" y="115"/>
      <point x="103" y="255" type="curve" smooth="yes"/>
      <point x="139" y="599" type="line"/>
      <point x="71" y="599" type="line"/>
    </contour>
  </outline>
</glyph>
<glyph name="Ycircumflex" format="1">
  <advance width="590"/>
  <unicode hex="0176"/>
  <outline>
    <contour>
      <point x="624" y="599" type="line"/>
      <point x="559" y="599" type="line"/>
      <point x="321" y="248" type="line"/>
      <point x="301" y="51" type="line"/>
      <point x="415" y="51" type="line"/>
      <point x="409" y="0" type="line"/>
      <point x="129" y="0" type="line"/>
      <point x="134" y="51" type="line"/>
      <point x="246" y="51" type="line"/>
      <point x="266" y="248" type="line"/>
      <point x="95" y="599" type="line"/>
      <point x="30" y="599" type="line"/>
      <point x="35" y="650" type="line"/>
      <point x="257" y="650" type="line"/>
      <point x="251" y="599" type="line"/>
      <point x="156" y="599" type="line"/>
      <point x="300" y="301" type="line"/>
      <point x="304" y="301" type="line"/>
      <point x="502" y="599" type="line"/>
      <point x="409" y="599" type="line"/>
      <point x="414" y="650" type="line"/>
      <point x="628" y="650" type="line"/>
    </contour>
    <contour>
      <point x="368" y="820" type="line"/>
      <point x="353" y="820" type="line"/>
      <point x="220" y="732" type="line"/>
      <point x="236" y="705" type="line"/>
      <point x="354" y="769" type="line"/>
      <point x="461" y="706" type="line"/>
      <point x="479" y="736" type="line"/>
    </contour>
  </outline>
</glyph>
<glyph name="Ydieresis" format="1">
  <advance width="590"/>
  <unicode hex="0178"/>
  <outline>
    <contour>
      <point x="624" y="599" type="line"/>
      <point x="559" y="599" type="line"/>
      <point x="321" y="248" type="line"/>
      <point x="301" y="51" type="line"/>
      <point x="415" y="51" type="line"/>
      <point x="409" y="0" type="line"/>
      <point x="129" y="0" type="line"/>
      <point x="134" y="51" type="line"/>
      <point x="246" y="51" type="line"/>
      <point x="266" y="248" type="line"/>
      <point x="95" y="599" type="line"/>
      <point x="30" y="599" type="line"/>
      <point x="35" y="650" type="line"/>
      <point x="257" y="650" type="line"/>
      <point x="251" y="599" type="line"/>
      <point x="156" y="599" type="line"/>
      <point x="300" y="301" type="line"/>
      <point x="304" y="301" type="line"/>
      <point x="502" y="599" type="line"/>
      <point x="409" y="599" type="line"/>
      <point x="414" y="650" type="line"/>
      <point x="628" y="650" type="line"/>
    </contour>
    <contour>
      <point x="388" y="722" type="line"/>
      <point x="455" y="722" type="line"/>
      <point x="462" y="793" type="line"/>
      <point x="395" y="793" type="line"/>
    </contour>
    <contour>
      <point x="224" y="722" type="line"/>
      <point x="290" y="722" type="line"/>
      <point x="297" y="793" type="line"/>
      <point x="231" y="793" type="line"/>
    </contour>
  </outline>
</glyph>
<glyph name="zacute" format="1">
  <advance width="448"/>
  <unicode hex="017A"/>
  <outline>
    <contour>
      <point x="399" y="631" type="line"/>
      <point x="370" y="678" type="line"/>
      <point x="207" y="549" type="line"/>
      <point x="223" y="523" type="line"/>
    </contour>
    <contour>
      <point x="368" y="0" type="line"/>
      <point x="404" y="133" type="line"/>
      <point x="361" y="141" type="line"/>
      <point x="327" y="46" type="line"/>
      <point x="84" y="46" type="line"/>
      <point x="409" y="408" type="line"/>
      <point x="396" y="444" type="line"/>
      <point x="77" y="444" type="line"/>
      <point x="51" y="309" type="line"/>
      <point x="97" y="303" type="line"/>
      <point x="118" y="397" type="line"/>
      <point x="339" y="397" type="line"/>
      <point x="10" y="36" type="line"/>
      <point x="18" y="0" type="line"/>
    </contour>
  </outline>
</glyph>
<glyph name="florin" format="1">
  <advance width="383"/>
  <unicode hex="0192"/>
  <outline>
    <contour>
      <point x="55" y="267" type="line"/>
      <point x="137" y="267" type="line"/>
      <point x="156" y="381" type="line" smooth="yes"/>
      <point x="172" y="478"/>
      <point x="229" y="529"/>
      <point x="324" y="529" type="curve" smooth="yes"/>
      <point x="340" y="529"/>
      <point x="369" y="528"/>
      <point x="389" y="525" type="curve"/>
      <point x="384" y="482" type="line"/>
      <point x="361" y="485"/>
      <point x="340" y="488"/>
      <point x="321" y="488" type="curve" smooth="yes"/>
      <point x="262" y="488"/>
      <point x="222" y="466"/>
      <point x="209" y="379" type="curve" smooth="yes"/>
      <point x="191" y="267" type="line"/>
      <point x="311" y="267" type="line"/>
      <point x="307" y="229" type="line"/>
      <point x="185" y="229" type="line"/>
      <point x="151" y="18" type="line" smooth="yes"/>
      <point x="141" y="-48"/>
      <point x="120" y="-112"/>
      <point x="23" y="-112" type="curve" smooth="yes"/>
      <point x="12" y="-112"/>
      <point x="2" y="-111"/>
      <point x="-20" y="-108" type="curve"/>
      <point x="-16" y="-67" type="line"/>
      <point x="-1" y="-71"/>
      <point x="19" y="-71"/>
      <point x="30" y="-71" type="curve" smooth="yes"/>
      <point x="75" y="-71"/>
      <point x="88" y="-45"/>
      <point x="99" y="25" type="curve" smooth="yes"/>
      <point x="131" y="229" type="line"/>
      <point x="51" y="229" type="line"/>
    </contour>
  </outline>
</glyph>
<glyph name="uni01C5" format="1">
  <advance width="1137"/>
  <unicode hex="01C5"/>
  <outline>
    <contour>
      <point x="13" y="0" type="line"/>
      <point x="19" y="50" type="line"/>
      <point x="101" y="50" type="line"/>
      <point x="158" y="600" type="line"/>
      <point x="76" y="600" type="line"/>
      <point x="81" y="650" type="line"/>
      <point x="362" y="650" type="line" smooth="yes"/>
      <point x="551" y="650"/>
      <point x="653" y="529"/>
      <point x="653" y="360" type="curve" smooth="yes"/>
      <point x="653" y="156"/>
      <point x="513" y="0"/>
      <point x="296" y="0" type="curve" smooth="yes"/>
    </contour>
    <contour>
      <point x="299" y="50" type="line" smooth="yes"/>
      <point x="481" y="50"/>
      <point x="595" y="180"/>
      <point x="595" y="356" type="curve" smooth="yes"/>
      <point x="595" y="500"/>
      <point x="512" y="600"/>
      <point x="356" y="600" type="curve" smooth="yes"/>
      <point x="212" y="600" type="line"/>
      <point x="155" y="50" type="line"/>
    </contour>
    <contour>
      <point x="1057" y="0" type="line"/>
      <point x="1093" y="133" type="line"/>
      <point x="1050" y="141" type="line"/>
      <point x="1016" y="46" type="line"/>
      <point x="773" y="46" type="line"/>
      <point x="1098" y="408" type="line"/>
      <point x="1085" y="444" type="line"/>
      <point x="766" y="444" type="line"/>
      <point x="740" y="309" type="line"/>
      <point x="786" y="303" type="line"/>
      <point x="807" y="397" type="line"/>
      <point x="1028" y="397" type="line"/>
      <point x="699" y="36" type="line"/>
      <point x="707" y="0" type="line"/>
    </contour>
    <contour>
      <point x="934" y="522" type="line"/>
      <point x="949" y="522" type="line"/>
      <point x="1077" y="639" type="line"/>
      <point x="1056" y="666" type="line"/>
      <point x="948" y="577" type="line"/>
      <point x="859" y="663" type="line"/>
      <point x="832" y="637" type="line"/>
    </contour>
  </outline>
</glyph>
<glyph name="uni01C7" format="1">
  <advance width="961"/>
  <unicode hex="01C7"/>
  <outline>
    <contour>
      <point x="464" y="0" type="line"/>
      <point x="504" y="202" type="line"/>
      <point x="454" y="206" type="line"/>
      <point x="418" y="51" type="line"/>
      <point x="156" y="51" type="line"/>
      <point x="214" y="599" type="line"/>
      <point x="325" y="599" type="line"/>
      <point x="330" y="650" type="line"/>
      <point x="81" y="650" type="line"/>
      <point x="76" y="599" type="line"/>
      <point x="159" y="599" type="line"/>
      <point x="101" y="51" type="line"/>
      <point x="18" y="51" type="line"/>
      <point x="13" y="0" type="line"/>
    </contour>
    <contour>
      <point x="704" y="650" type="line"/>
      <point x="962" y="650" type="line"/>
      <point x="957" y="599" type="line"/>
      <point x="884" y="599" type="line"/>
      <point x="838" y="161" type="line"/>
      <point x="827" y="47"/>
      <point x="763" y="-10"/>
      <point x="665" y="-10" type="curve" smooth="yes"/>
      <point x="587" y="-10"/>
      <point x="546" y="26"/>
      <point x="525" y="82" type="curve"/>
      <point x="569" y="114" type="line"/>
      <point x="593" y="62"/>
      <point x="620" y="44"/>
      <point x="666" y="44" type="curve" smooth="yes"/>
      <point x="739" y="44"/>
      <point x="775" y="90"/>
      <point x="783" y="161" type="curve" smooth="yes"/>
      <point x="829" y="599" type="line"/>
      <point x="699" y="599" type="line"/>
    </contour>
  </outline>
</glyph>
<glyph name="uni01C8" format="1">
  <advance width="768"/>
  <unicode hex="01C8"/>
  <outline>
    <contour>
      <point x="464" y="0" type="line"/>
      <point x="504" y="202" type="line"/>
      <point x="454" y="206" type="line"/>
      <point x="418" y="51" type="line"/>
      <point x="156" y="51" type="line"/>
      <point x="214" y="599" type="line"/>
      <point x="325" y="599" type="line"/>
      <point x="330" y="650" type="line"/>
      <point x="81" y="650" type="line"/>
      <point x="76" y="599" type="line"/>
      <point x="159" y="599" type="line"/>
      <point x="101" y="51" type="line"/>
      <point x="18" y="51" type="line"/>
      <point x="13" y="0" type="line"/>
    </contour>
    <contour>
      <point x="549" y="426" type="line"/>
      <point x="568" y="444" type="line"/>
      <point x="710" y="444" type="line"/>
      <point x="652" y="-27" type="line" smooth="yes"/>
      <point x="636" y="-155"/>
      <point x="588" y="-218"/>
      <point x="521" y="-223" type="curve"/>
      <point x="495" y="-224"/>
      <point x="470" y="-218"/>
      <point x="447" y="-208" type="curve"/>
      <point x="450" y="-166" type="line"/>
      <point x="519" y="-195"/>
      <point x="581" y="-171"/>
      <point x="599" y="-27" type="curve" smooth="yes"/>
      <point x="651" y="397" type="line"/>
      <point x="545" y="397" type="line"/>
    </contour>
    <contour>
      <point x="659" y="568" type="line"/>
      <point x="720" y="568" type="line"/>
      <point x="728" y="647" type="line"/>
      <point x="667" y="647" type="line"/>
    </contour>
  </outline>
</glyph>
<glyph name="uni01C9" format="1">
  <advance width="477"/>
  <unicode hex="01C9"/>
  <outline>
    <contour>
      <point x="258" y="426" type="line"/>
      <point x="277" y="444" type="line"/>
      <point x="419" y="444" type="line"/>
      <point x="361" y="-27" type="line" smooth="yes"/>
      <point x="345" y="-155"/>
      <point x="297" y="-218"/>
      <point x="230" y="-223" type="curve"/>
      <point x="204" y="-224"/>
      <point x="179" y="-218"/>
      <point x="156" y="-208" type="curve"/>
      <point x="159" y="-166" type="line"/>
      <point x="228" y="-195"/>
      <point x="290" y="-171"/>
      <point x="308" y="-27" type="curve" smooth="yes"/>
      <point x="360" y="397" type="line"/>
      <point x="254" y="397" type="line"/>
    </contour>
    <contour>
      <point x="53" y="671" type="line"/>
      <point x="71" y="688" type="line"/>
      <point x="189" y="688" type="line"/>
      <point x="110" y="46" type="line"/>
      <point x="189" y="46" type="line"/>
      <point x="185" y="15" type="line"/>
      <point x="167" y="0" type="line"/>
      <point x="52" y="0" type="line"/>
      <point x="130" y="642" type="line"/>
      <point x="49" y="642" type="line"/>
    </contour>
    <contour>
      <point x="368" y="568" type="line"/>
      <point x="429" y="568" type="line"/>
      <point x="437" y="647" type="line"/>
      <point x="376" y="647" type="line"/>
    </contour>
  </outline>
</glyph>
<glyph name="uni01CA" format="1">
  <advance width="1140"/>
  <unicode hex="01CA"/>
  <outline>
    <contour>
      <point x="25" y="51" type="line"/>
      <point x="101" y="51" type="line"/>
      <point x="158" y="599" type="line"/>
      <point x="74" y="599" type="line"/>
      <point x="79" y="650" type="line"/>
      <point x="204" y="650" type="line"/>
      <point x="521" y="117" type="line"/>
      <point x="524" y="117" type="line"/>
      <point x="574" y="599" type="line"/>
      <point x="479" y="599" type="line"/>
      <point x="484" y="650" type="line"/>
      <point x="716" y="650" type="line"/>
      <point x="711" y="599" type="line"/>
      <point x="628" y="599" type="line"/>
      <point x="566" y="0" type="line"/>
      <point x="528" y="0" type="line"/>
      <point x="208" y="539" type="line"/>
      <point x="205" y="539" type="line"/>
      <point x="153" y="51" type="line"/>
      <point x="259" y="51" type="line"/>
      <point x="254" y="0" type="line"/>
      <point x="20" y="0" type="line"/>
    </contour>
    <contour>
      <point x="883" y="650" type="line"/>
      <point x="1141" y="650" type="line"/>
      <point x="1136" y="599" type="line"/>
      <point x="1063" y="599" type="line"/>
      <point x="1017" y="161" type="line"/>
      <point x="1006" y="47"/>
      <point x="942" y="-10"/>
      <point x="844" y="-10" type="curve" smooth="yes"/>
      <point x="766" y="-10"/>
      <point x="725" y="26"/>
      <point x="704" y="82" type="curve"/>
      <point x="748" y="114" type="line"/>
      <point x="772" y="62"/>
      <point x="799" y="44"/>
      <point x="845" y="44" type="curve" smooth="yes"/>
      <point x="918" y="44"/>
      <point x="954" y="90"/>
      <point x="962" y="161" type="curve" smooth="yes"/>
      <point x="1008" y="599" type="line"/>
      <point x="878" y="599" type="line"/>
    </contour>
  </outline>
</glyph>
<glyph name="uni01F1" format="1">
  <advance width="1246"/>
  <unicode hex="01F1"/>
  <outline>
    <contour>
      <point x="362" y="650" type="line" smooth="yes"/>
      <point x="551" y="650"/>
      <point x="653" y="529"/>
      <point x="653" y="360" type="curve" smooth="yes"/>
      <point x="653" y="156"/>
      <point x="513" y="0"/>
      <point x="296" y="0" type="curve" smooth="yes"/>
      <point x="13" y="0" type="line"/>
      <point x="19" y="50" type="line"/>
      <point x="101" y="50" type="line"/>
      <point x="158" y="600" type="line"/>
      <point x="76" y="600" type="line"/>
      <point x="81" y="650" type="line"/>
    </contour>
    <contour>
      <point x="299" y="50" type="line" smooth="yes"/>
      <point x="481" y="50"/>
      <point x="595" y="180"/>
      <point x="595" y="356" type="curve" smooth="yes"/>
      <point x="595" y="500"/>
      <point x="512" y="600"/>
      <point x="356" y="600" type="curve" smooth="yes"/>
      <point x="212" y="600" type="line"/>
      <point x="155" y="50" type="line"/>
    </contour>
    <contour>
      <point x="1157" y="0" type="line"/>
      <point x="1203" y="185" type="line"/>
      <point x="1155" y="194" type="line"/>
      <point x="1111" y="51" type="line"/>
      <point x="771" y="51" type="line"/>
      <point x="772" y="54" type="line"/>
      <point x="1222" y="615" type="line"/>
      <point x="1217" y="650" type="line"/>
      <point x="791" y="650" type="line"/>
      <point x="745" y="466" type="line"/>
      <point x="791" y="458" type="line"/>
      <point x="835" y="599" type="line"/>
      <point x="1141" y="599" type="line"/>
      <point x="1141" y="596" type="line"/>
      <point x="692" y="37" type="line"/>
      <point x="690" y="0" type="line"/>
    </contour>
  </outline>
</glyph>
<glyph name="dotaccent" format="1">
  <advance width="199"/>
  <unicode hex="02D9"/>
  <outline>
    <contour>
      <point x="129" y="559" type="line"/>
      <point x="189" y="559" type="line"/>
      <point x="197" y="638" type="line"/>
      <point x="137" y="638" type="line"/>
    </contour>
  </outline>
</glyph>
<glyph name="ring" format="1">
  <advance width="255"/>
  <unicode hex="02DA"/>
  <outline>
    <contour>
      <point x="180" y="514" type="curve" smooth="yes"/>
      <point x="249" y="514"/>
      <point x="288" y="562"/>
      <point x="288" y="617" type="curve" smooth="yes"/>
      <point x="288" y="665"/>
      <point x="255" y="698"/>
      <point x="202" y="698" type="curve" smooth="yes"/>
      <point x="137" y="698"/>
      <point x="95" y="656"/>
      <point x="95" y="595" type="curve" smooth="yes"/>
      <point x="95" y="548"/>
      <point x="124" y="514"/>
    </contour>
    <contour>
      <point x="185" y="549" type="curve"/>
      <point x="151" y="549"/>
      <point x="136" y="568"/>
      <point x="136" y="598" type="curve" smooth="yes"/>
      <point x="136" y="636"/>
      <point x="159" y="663"/>
      <point x="198" y="663" type="curve" smooth="yes"/>
      <point x="234" y="663"/>
      <point x="248" y="641"/>
      <point x="248" y="614" type="curve" smooth="yes"/>
      <point x="248" y="577"/>
      <point x="225" y="549"/>
    </contour>
  </outline>
</glyph>
<glyph name="ogonek" format="1">
  <advance width="274"/>
  <unicode hex="02DB"/>
  <outline>
    <contour>
      <point x="200" y="-189" type="line"/>
      <point x="177" y="-201"/>
      <point x="151" y="-209"/>
      <point x="123" y="-209" type="curve" smooth="yes"/>
      <point x="66" y="-209"/>
      <point x="33" y="-178"/>
      <point x="33" y="-126" type="curve" smooth="yes"/>
      <point x="33" y="-64"/>
      <point x="84" y="-12"/>
      <point x="141" y="12" type="curve"/>
      <point x="179" y="8" type="line"/>
      <point x="106" y="-28"/>
      <point x="83" y="-74"/>
      <point x="83" y="-113" type="curve" smooth="yes"/>
      <point x="83" y="-152"/>
      <point x="104" y="-165"/>
      <point x="139" y="-165" type="curve" smooth="yes"/>
      <point x="157" y="-165"/>
      <point x="174" y="-161"/>
      <point x="196" y="-149" type="curve"/>
    </contour>
  </outline>
</glyph>
<glyph name="hungarumlaut" format="1">
  <advance width="421"/>
  <unicode hex="02DD"/>
  <outline>
    <contour>
      <point x="435" y="631" type="line"/>
      <point x="408" y="678" type="line"/>
      <point x="245" y="550" type="line"/>
      <point x="260" y="523" type="line"/>
    </contour>
    <contour>
      <point x="290" y="682" type="line"/>
      <point x="247" y="714" type="line"/>
      <point x="132" y="541" type="line"/>
      <point x="156" y="522" type="line"/>
    </contour>
  </outline>
</glyph>
<glyph name="dotbelowcmb" format="1">
  <advance width="816"/>
  <unicode hex="0323"/>
  <outline>
    <contour>
      <point x="83" y="-168" type="line"/>
      <point x="144" y="-168" type="line"/>
      <point x="152" y="-89" type="line"/>
      <point x="91" y="-89" type="line"/>
    </contour>
  </outline>
</glyph>
<glyph name="uni0394" format="1">
  <advance width="483"/>
  <unicode hex="0394"/>
  <outline>
    <contour>
      <point x="-29" y="0" type="line"/>
      <point x="452" y="0" type="line"/>
      <point x="286" y="661" type="line"/>
    </contour>
    <contour>
      <point x="40" y="46" type="line"/>
      <point x="273" y="536" type="line"/>
      <point x="394" y="46" type="line"/>
    </contour>
  </outline>
</glyph>
<glyph name="uni1E47" format="1">
  <advance width="518"/>
  <unicode hex="1E47"/>
  <outline>
    <contour>
      <point x="53" y="444" type="line"/>
      <point x="161" y="444" type="line"/>
      <point x="157" y="357" type="line"/>
      <point x="190" y="415"/>
      <point x="239" y="453"/>
      <point x="310" y="453" type="curve" smooth="yes"/>
      <point x="396" y="453"/>
      <point x="451" y="401"/>
      <point x="436" y="280" type="curve" smooth="yes"/>
      <point x="407" y="46" type="line"/>
      <point x="487" y="46" type="line"/>
      <point x="483" y="15" type="line"/>
      <point x="464" y="0" type="line"/>
      <point x="350" y="0" type="line"/>
      <point x="382" y="267" type="line" smooth="yes"/>
      <point x="394" y="368"/>
      <point x="358" y="406"/>
      <point x="290" y="406" type="curve" smooth="yes"/>
      <point x="211" y="406"/>
      <point x="160" y="337"/>
      <point x="149" y="270" type="curve" smooth="yes"/>
      <point x="148" y="262" type="line"/>
      <point x="116" y="0" type="line"/>
      <point x="64" y="0" type="line"/>
      <point x="112" y="397" type="line"/>
      <point x="30" y="397" type="line"/>
      <point x="34" y="426" type="line"/>
    </contour>
    <contour>
      <point x="189" y="-168" type="line"/>
      <point x="250" y="-168" type="line"/>
      <point x="258" y="-89" type="line"/>
      <point x="197" y="-89" type="line"/>
    </contour>
  </outline>
</glyph>
<glyph name="uni1E62" format="1">
  <advance width="519"/>
  <unicode hex="1E62"/>
  <outline>
    <contour>
      <point x="193" y="-168" type="line"/>
      <point x="254" y="-168" type="line"/>
      <point x="262" y="-89" type="line"/>
      <point x="201" y="-89" type="line"/>
    </contour>
    <contour>
      <point x="460" y="191" type="curve" smooth="yes"/>
      <point x="460" y="64"/>
      <point x="375" y="-10"/>
      <point x="225" y="-10" type="curve" smooth="yes"/>
      <point x="145" y="-10"/>
      <point x="63" y="11"/>
      <point x="26" y="39" type="curve"/>
      <point x="49" y="158" type="line"/>
      <point x="94" y="153" type="line"/>
      <point x="83" y="71" type="line"/>
      <point x="120" y="50"/>
      <point x="179" y="41"/>
      <point x="225" y="41" type="curve" smooth="yes"/>
      <point x="327" y="41"/>
      <point x="400" y="84"/>
      <point x="400" y="183" type="curve" smooth="yes"/>
      <point x="400" y="285"/>
      <point x="323" y="296"/>
      <point x="247" y="315" type="curve" smooth="yes"/>
      <point x="167" y="335"/>
      <point x="79" y="365"/>
      <point x="79" y="478" type="curve" smooth="yes"/>
      <point x="79" y="604"/>
      <point x="187" y="660"/>
      <point x="292" y="660" type="curve" smooth="yes"/>
      <point x="357" y="660"/>
      <point x="436" y="639"/>
      <point x="471" y="611" type="curve"/>
      <point x="464" y="485" type="line"/>
      <point x="417" y="480" type="line"/>
      <point x="417" y="583" type="line"/>
      <point x="377" y="604"/>
      <point x="330" y="609"/>
      <point x="298" y="609" type="curve" smooth="yes"/>
      <point x="198" y="609"/>
      <point x="137" y="561"/>
      <point x="137" y="481" type="curve" smooth="yes"/>
      <point x="137" y="401"/>
      <point x="197" y="385"/>
      <point x="273" y="366" type="curve" smooth="yes"/>
      <point x="376" y="340"/>
      <point x="460" y="318"/>
    </contour>
  </outline>
</glyph>
<glyph name="Wdieresis" format="1">
  <advance width="898"/>
  <unicode hex="1E84"/>
  <outline>
    <contour>
      <point x="928" y="599" type="line"/>
      <point x="872" y="599" type="line"/>
      <point x="642" y="0" type="line"/>
      <point x="593" y="0" type="line"/>
      <point x="482" y="547" type="line"/>
      <point x="478" y="547" type="line"/>
      <point x="253" y="0" type="line"/>
      <point x="203" y="0" type="line"/>
      <point x="88" y="599" type="line"/>
      <point x="34" y="599" type="line"/>
      <point x="39" y="650" type="line"/>
      <point x="249" y="650" type="line"/>
      <point x="243" y="599" type="line"/>
      <point x="146" y="599" type="line"/>
      <point x="236" y="93" type="line"/>
      <point x="241" y="93" type="line"/>
      <point x="449" y="599" type="line"/>
      <point x="381" y="599" type="line"/>
      <point x="387" y="650" type="line"/>
      <point x="597" y="650" type="line"/>
      <point x="591" y="599" type="line"/>
      <point x="523" y="599" type="line"/>
      <point x="625" y="91" type="line"/>
      <point x="630" y="91" type="line"/>
      <point x="816" y="599" type="line"/>
      <point x="719" y="599" type="line"/>
      <point x="724" y="650" type="line"/>
      <point x="933" y="650" type="line"/>
    </contour>
    <contour>
      <point x="543" y="722" type="line"/>
      <point x="610" y="722" type="line"/>
      <point x="617" y="793" type="line"/>
      <point x="550" y="793" type="line"/>
    </contour>
    <contour>
      <point x="379" y="722" type="line"/>
      <point x="445" y="722" type="line"/>
      <point x="452" y="793" type="line"/>
      <point x="386" y="793" type="line"/>
    </contour>
  </outline>
</glyph>
<glyph name="uni1EBD" format="1">
  <advance width="435"/>
  <unicode hex="1EBD"/>
  <outline>
    <contour>
      <point x="209" y="36" type="curve" smooth="yes"/>
      <point x="269" y="36"/>
      <point x="315" y="67"/>
      <point x="339" y="130" type="curve"/>
      <point x="382" y="119" type="line"/>
      <point x="362" y="47"/>
      <point x="299" y="-10"/>
      <point x="200" y="-10" type="curve" smooth="yes"/>
      <point x="92" y="-10"/>
      <point x="35" y="60"/>
      <point x="35" y="181" type="curve" smooth="yes"/>
      <point x="35" y="335"/>
      <point x="124" y="453"/>
      <point x="255" y="453" type="curve" smooth="yes"/>
      <point x="330" y="453"/>
      <point x="393" y="412"/>
      <point x="393" y="345" type="curve" smooth="yes"/>
      <point x="393" y="279"/>
      <point x="347" y="233"/>
      <point x="235" y="209" type="curve" smooth="yes"/>
      <point x="191" y="200"/>
      <point x="141" y="190"/>
      <point x="92" y="183" type="curve"/>
      <point x="92" y="92"/>
      <point x="124" y="36"/>
    </contour>
    <contour>
      <point x="215" y="245" type="curve" smooth="yes"/>
      <point x="322" y="270"/>
      <point x="335" y="306"/>
      <point x="335" y="340" type="curve" smooth="yes"/>
      <point x="335" y="387"/>
      <point x="302" y="406"/>
      <point x="251" y="406" type="curve" smooth="yes"/>
      <point x="147" y="406"/>
      <point x="104" y="315"/>
      <point x="94" y="225" type="curve"/>
      <point x="148" y="232"/>
      <point x="186" y="239"/>
    </contour>
    <contour>
      <point x="147" y="558" type="line"/>
      <point x="161" y="591"/>
      <point x="185" y="601"/>
      <point x="203" y="601" type="curve" smooth="yes"/>
      <point x="238" y="601"/>
      <point x="267" y="563"/>
      <point x="318" y="563" type="curve" smooth="yes"/>
      <point x="359" y="563"/>
      <point x="383" y="593"/>
      <point x="401" y="646" type="curve"/>
      <point x="370" y="654" type="line"/>
      <point x="357" y="616"/>
      <point x="339" y="611"/>
      <point x="321" y="611" type="curve" smooth="yes"/>
      <point x="270" y="611"/>
      <point x="250" y="648"/>
      <point x="207" y="648" type="curve" smooth="yes"/>
      <point x="162" y="648"/>
      <point x="129" y="603"/>
      <point x="119" y="569" type="curve"/>
    </contour>
  </outline>
</glyph>
<glyph name="Ygrave" format="1">
  <advance width="590"/>
  <unicode hex="1EF2"/>
  <outline>
    <contour>
      <point x="624" y="599" type="line"/>
      <point x="559" y="599" type="line"/>
      <point x="321" y="248" type="line"/>
      <point x="301" y="51" type="line"/>
      <point x="415" y="51" type="line"/>
      <point x="409" y="0" type="line"/>
      <point x="129" y="0" type="line"/>
      <point x="134" y="51" type="line"/>
      <point x="246" y="51" type="line"/>
      <point x="266" y="248" type="line"/>
      <point x="95" y="599" type="line"/>
      <point x="30" y="599" type="line"/>
      <point x="35" y="650" type="line"/>
      <point x="257" y="650" type="line"/>
      <point x="251" y="599" type="line"/>
      <point x="156" y="599" type="line"/>
      <point x="300" y="301" type="line"/>
      <point x="304" y="301" type="line"/>
      <point x="502" y="599" type="line"/>
      <point x="409" y="599" type="line"/>
      <point x="414" y="650" type="line"/>
      <point x="628" y="650" type="line"/>
    </contour>
    <contour>
      <point x="387" y="707" type="line"/>
      <point x="395" y="739" type="line"/>
      <point x="204" y="808" type="line"/>
      <point x="190" y="753" type="line"/>
    </contour>
  </outline>
</glyph>
<glyph name="endash" format="1">
  <advance width="619"/>
  <unicode hex="2013"/>
  <outline>
    <contour>
      <point x="60" y="251" type="line"/>
      <point x="552" y="251" type="line"/>
      <point x="548" y="209" type="line"/>
      <point x="56" y="209" type="line"/>
    </contour>
  </outline>
</glyph>
<glyph name="emdash" format="1">
  <advance width="1067"/>
  <unicode hex="2014"/>
  <outline>
    <contour>
      <point x="77" y="251" type="line"/>
      <point x="998" y="251" type="line"/>
      <point x="993" y="209" type="line"/>
      <point x="72" y="209" type="line"/>
    </contour>
  </outline>
</glyph>
<glyph name="quoteright" format="1">
  <advance width="194"/>
  <unicode hex="2019"/>
  <outline>
    <contour>
      <point x="70" y="474" type="line"/>
      <point x="123" y="474" type="line"/>
      <point x="195" y="686" type="line"/>
      <point x="142" y="686" type="line"/>
    </contour>
  </outline>
</glyph>
<glyph name="quotesinglbase" format="1">
  <advance width="195"/>
  <unicode hex="201A"/>
  <outline>
    <contour>
      <point x="-10" y="-107" type="line"/>
      <point x="43" y="-107" type="line"/>
      <point x="115" y="105" type="line"/>
      <point x="62" y="105" type="line"/>
    </contour>
  </outline>
</glyph>
<glyph name="quotedblright" format="1">
  <advance width="351"/>
  <unicode hex="201D"/>
  <outline>
    <contour>
      <point x="66" y="458" type="line"/>
      <point x="119" y="458" type="line"/>
      <point x="191" y="670" type="line"/>
      <point x="138" y="670" type="line"/>
    </contour>
    <contour>
      <point x="224" y="458" type="line"/>
      <point x="277" y="458" type="line"/>
      <point x="349" y="670" type="line"/>
      <point x="296" y="670" type="line"/>
    </contour>
  </outline>
</glyph>
<glyph name="dagger" format="1">
  <advance width="460"/>
  <unicode hex="2020"/>
  <outline>
    <contour>
      <point x="45" y="425" type="line"/>
      <point x="220" y="425" type="line"/>
      <point x="244" y="650" type="line"/>
      <point x="293" y="650" type="line"/>
      <point x="269" y="425" type="line"/>
      <point x="446" y="425" type="line"/>
      <point x="441" y="375" type="line"/>
      <point x="264" y="375" type="line"/>
      <point x="210" y="-141" type="line"/>
      <point x="161" y="-141" type="line"/>
      <point x="215" y="375" type="line"/>
      <point x="40" y="375" type="line"/>
    </contour>
  </outline>
</glyph>
<glyph name="daggerdbl" format="1">
  <advance width="509"/>
  <unicode hex="2021"/>
  <outline>
    <contour>
      <point x="38" y="108" type="line"/>
      <point x="214" y="108" type="line"/>
      <point x="242" y="375" type="line"/>
      <point x="66" y="375" type="line"/>
      <point x="72" y="425" type="line"/>
      <point x="247" y="425" type="line"/>
      <point x="271" y="650" type="line"/>
      <point x="321" y="650" type="line"/>
      <point x="297" y="425" type="line"/>
      <point x="473" y="425" type="line"/>
      <point x="467" y="375" type="line"/>
      <point x="292" y="375" type="line"/>
      <point x="264" y="108" type="line"/>
      <point x="439" y="108" type="line"/>
      <point x="434" y="58" type="line"/>
      <point x="259" y="58" type="line"/>
      <point x="238" y="-141" type="line"/>
      <point x="188" y="-141" type="line"/>
      <point x="209" y="58" type="line"/>
      <point x="33" y="58" type="line"/>
    </contour>
  </outline>
</glyph>
<glyph name="bullet" format="1">
  <advance width="352"/>
  <unicode hex="2022"/>
  <outline>
    <contour>
      <point x="69" y="235" type="curve" smooth="yes"/>
      <point x="69" y="181"/>
      <point x="107" y="139"/>
      <point x="161" y="139" type="curve" smooth="yes"/>
      <point x="221" y="139"/>
      <point x="276" y="190"/>
      <point x="276" y="254" type="curve" smooth="yes"/>
      <point x="276" y="308"/>
      <point x="237" y="351"/>
      <point x="182" y="351" type="curve" smooth="yes"/>
      <point x="122" y="351"/>
      <point x="69" y="298"/>
    </contour>
  </outline>
</glyph>
<glyph name="ellipsis" format="1">
  <advance width="554"/>
  <unicode hex="2026"/>
  <outline>
    <contour>
      <point x="35" y="0" type="line"/>
      <point x="113" y="0" type="line"/>
      <point x="121" y="84" type="line"/>
      <point x="43" y="84" type="line"/>
    </contour>
    <contour>
      <point x="210" y="0" type="line"/>
      <point x="288" y="0" type="line"/>
      <point x="296" y="84" type="line"/>
      <point x="218" y="84" type="line"/>
    </contour>
    <contour>
      <point x="385" y="0" type="line"/>
      <point x="463" y="0" type="line"/>
      <point x="471" y="84" type="line"/>
      <point x="393" y="84" type="line"/>
    </contour>
  </outline>
</glyph>
<glyph name="guilsinglleft" format="1">
  <advance width="277"/>
  <unicode hex="2039"/>
  <outline>
    <contour>
      <point x="200" y="25" type="line"/>
      <point x="96" y="271" type="line"/>
      <point x="251" y="511" type="line"/>
      <point x="204" y="511" type="line"/>
      <point x="44" y="271" type="line"/>
      <point x="153" y="25" type="line"/>
    </contour>
  </outline>
</glyph>
<glyph name="fraction" format="1">
  <advance width="130"/>
  <unicode hex="2044"/>
  <outline>
    <contour>
      <point x="307" y="650" type="line"/>
      <point x="89" y="325" type="line"/>
      <point x="-125" y="0" type="line"/>
      <point x="-168" y="0" type="line"/>
      <point x="59" y="337" type="line"/>
      <point x="265" y="650" type="line"/>
    </contour>
  </outline>
</glyph>
<glyph name="zerosuperior" format="1">
  <advance width="370"/>
  <unicode hex="2070"/>
  <outline>
    <contour>
      <point x="73" y="566" type="curve" smooth="yes"/>
      <point x="73" y="645"/>
      <point x="100" y="785"/>
      <point x="238" y="785" type="curve" smooth="yes"/>
      <point x="338" y="785"/>
      <point x="363" y="710"/>
      <point x="363" y="627" type="curve" smooth="yes"/>
      <point x="363" y="522"/>
      <point x="326" y="409"/>
      <point x="200" y="409" type="curve" smooth="yes"/>
      <point x="105" y="409"/>
      <point x="73" y="475"/>
    </contour>
    <contour>
      <point x="122" y="570" type="curve" smooth="yes"/>
      <point x="122" y="496"/>
      <point x="140" y="448"/>
      <point x="203" y="448" type="curve" smooth="yes"/>
      <point x="282" y="448"/>
      <point x="314" y="521"/>
      <point x="314" y="628" type="curve" smooth="yes"/>
      <point x="314" y="696"/>
      <point x="301" y="746"/>
      <point x="235" y="746" type="curve" smooth="yes"/>
      <point x="155" y="746"/>
      <point x="122" y="674"/>
    </contour>
  </outline>
</glyph>
<glyph name="foursuperior" format="1">
  <advance width="346"/>
  <unicode hex="2074"/>
  <outline>
    <contour>
      <point x="224" y="415" type="line"/>
      <point x="269" y="415" type="line"/>
      <point x="279" y="510" type="line"/>
      <point x="337" y="510" type="line"/>
      <point x="345" y="545" type="line"/>
      <point x="282" y="545" type="line"/>
      <point x="307" y="779" type="line"/>
      <point x="211" y="779" type="line"/>
      <point x="52" y="546" type="line"/>
      <point x="53" y="510" type="line"/>
      <point x="234" y="510" type="line"/>
    </contour>
    <contour>
      <point x="229" y="742" type="line"/>
      <point x="259" y="742" type="line"/>
      <point x="238" y="545" type="line"/>
      <point x="95" y="545" type="line"/>
    </contour>
  </outline>
</glyph>
<glyph name="fivesuperior" format="1">
  <advance width="328"/>
  <unicode hex="2075"/>
  <outline>
    <contour>
      <point x="317" y="527" type="curve" smooth="yes"/>
      <point x="317" y="612"/>
      <point x="248" y="637"/>
      <point x="167" y="637" type="curve" smooth="yes"/>
      <point x="139" y="637" type="line"/>
      <point x="150" y="742" type="line"/>
      <point x="285" y="742" type="line"/>
      <point x="284" y="690" type="line"/>
      <point x="320" y="694" type="line"/>
      <point x="326" y="779" type="line"/>
      <point x="110" y="779" type="line"/>
      <point x="94" y="613" type="line"/>
      <point x="109" y="600" type="line"/>
      <point x="125" y="601"/>
      <point x="141" y="602"/>
      <point x="158" y="602" type="curve" smooth="yes"/>
      <point x="220" y="602"/>
      <point x="268" y="589"/>
      <point x="268" y="526" type="curve" smooth="yes"/>
      <point x="268" y="475"/>
      <point x="237" y="445"/>
      <point x="184" y="445" type="curve" smooth="yes"/>
      <point x="128" y="445"/>
      <point x="96" y="480"/>
      <point x="94" y="513" type="curve"/>
      <point x="59" y="505" type="line"/>
      <point x="61" y="448"/>
      <point x="106" y="408"/>
      <point x="181" y="408" type="curve" smooth="yes"/>
      <point x="254" y="408"/>
      <point x="317" y="446"/>
    </contour>
  </outline>
</glyph>
<glyph name="eightsuperior" format="1">
  <advance width="347"/>
  <unicode hex="2078"/>
  <outline>
    <contour>
      <point x="185" y="409" type="curve" smooth="yes"/>
      <point x="269" y="409"/>
      <point x="333" y="450"/>
      <point x="333" y="513" type="curve" smooth="yes"/>
      <point x="333" y="564"/>
      <point x="291" y="587"/>
      <point x="247" y="608" type="curve"/>
      <point x="296" y="626"/>
      <point x="340" y="650"/>
      <point x="340" y="701" type="curve" smooth="yes"/>
      <point x="340" y="753"/>
      <point x="293" y="785"/>
      <point x="227" y="785" type="curve" smooth="yes"/>
      <point x="150" y="785"/>
      <point x="94" y="742"/>
      <point x="94" y="686" type="curve" smooth="yes"/>
      <point x="94" y="645"/>
      <point x="126" y="623"/>
      <point x="165" y="603" type="curve"/>
      <point x="116" y="584"/>
      <point x="64" y="557"/>
      <point x="64" y="498" type="curve" smooth="yes"/>
      <point x="64" y="437"/>
      <point x="115" y="409"/>
    </contour>
    <contour>
      <point x="144" y="692" type="curve" smooth="yes"/>
      <point x="144" y="727"/>
      <point x="179" y="749"/>
      <point x="223" y="749" type="curve" smooth="yes"/>
      <point x="263" y="749"/>
      <point x="293" y="731"/>
      <point x="293" y="698" type="curve" smooth="yes"/>
      <point x="293" y="661"/>
      <point x="255" y="641"/>
      <point x="214" y="624" type="curve"/>
      <point x="176" y="642"/>
      <point x="144" y="659"/>
    </contour>
    <contour>
      <point x="190" y="445" type="curve" smooth="yes"/>
      <point x="144" y="445"/>
      <point x="112" y="466"/>
      <point x="112" y="505" type="curve" smooth="yes"/>
      <point x="112" y="548"/>
      <point x="151" y="569"/>
      <point x="196" y="587" type="curve"/>
      <point x="241" y="566"/>
      <point x="283" y="548"/>
      <point x="283" y="509" type="curve" smooth="yes"/>
      <point x="283" y="469"/>
      <point x="240" y="445"/>
    </contour>
  </outline>
</glyph>
<glyph name="ninesuperior" format="1">
  <advance width="343"/>
  <unicode hex="2079"/>
  <outline>
    <contour>
      <point x="170" y="446" type="curve" smooth="yes"/>
      <point x="150" y="446"/>
      <point x="122" y="454"/>
      <point x="99" y="487" type="curve"/>
      <point x="71" y="459" type="line"/>
      <point x="103" y="417"/>
      <point x="149" y="409"/>
      <point x="178" y="409" type="curve" smooth="yes"/>
      <point x="283" y="409"/>
      <point x="339" y="517"/>
      <point x="339" y="638" type="curve" smooth="yes"/>
      <point x="339" y="728"/>
      <point x="299" y="785"/>
      <point x="218" y="785" type="curve" smooth="yes"/>
      <point x="122" y="785"/>
      <point x="83" y="717"/>
      <point x="83" y="654" type="curve" smooth="yes"/>
      <point x="83" y="589"/>
      <point x="126" y="553"/>
      <point x="186" y="553" type="curve" smooth="yes"/>
      <point x="241" y="553"/>
      <point x="276" y="582"/>
      <point x="292" y="613" type="curve"/>
      <point x="288" y="527"/>
      <point x="259" y="446"/>
    </contour>
    <contour>
      <point x="195" y="590" type="curve" smooth="yes"/>
      <point x="154" y="590"/>
      <point x="131" y="615"/>
      <point x="131" y="657" type="curve" smooth="yes"/>
      <point x="131" y="707"/>
      <point x="151" y="746"/>
      <point x="213" y="746" type="curve" smooth="yes"/>
      <point x="268" y="746"/>
      <point x="287" y="715"/>
      <point x="292" y="663" type="curve"/>
      <point x="286" y="632"/>
      <point x="259" y="590"/>
    </contour>
  </outline>
</glyph>
<glyph name="plussuperior" format="1">
  <advance width="294"/>
  <unicode hex="207A"/>
  <outline>
    <contour>
      <point x="66" y="581" type="line"/>
      <point x="164" y="581" type="line"/>
      <point x="154" y="485" type="line"/>
      <point x="188" y="485" type="line"/>
      <point x="198" y="581" type="line"/>
      <point x="293" y="581" type="line"/>
      <point x="296" y="614" type="line"/>
      <point x="201" y="614" type="line"/>
      <point x="212" y="711" type="line"/>
      <point x="178" y="711" type="line"/>
      <point x="167" y="614" type="line"/>
      <point x="69" y="614" type="line"/>
    </contour>
  </outline>
</glyph>
<glyph name="minussuperior" format="1">
  <advance width="329"/>
  <unicode hex="207B"/>
  <outline>
    <contour>
      <point x="83" y="581" type="line"/>
      <point x="310" y="581" type="line"/>
      <point x="313" y="614" type="line"/>
      <point x="86" y="614" type="line"/>
    </contour>
  </outline>
</glyph>
<glyph name="parenleftsuperior" format="1">
  <advance width="213"/>
  <unicode hex="207D"/>
  <outline>
    <contour>
      <point x="207" y="865" type="curve"/>
      <point x="249" y="865" type="line"/>
      <point x="159" y="765"/>
      <point x="111" y="662"/>
      <point x="111" y="550" type="curve" smooth="yes"/>
      <point x="111" y="465"/>
      <point x="137" y="374"/>
      <point x="190" y="301" type="curve"/>
      <point x="147" y="301" type="line"/>
      <point x="95" y="378"/>
      <point x="72" y="466"/>
      <point x="72" y="546" type="curve" smooth="yes"/>
      <point x="72" y="658"/>
      <point x="114" y="762"/>
    </contour>
  </outline>
</glyph>
<glyph name="parenrightsuperior" format="1">
  <advance width="212"/>
  <unicode hex="207E"/>
  <outline>
    <contour>
      <point x="69" y="300" type="curve"/>
      <point x="27" y="300" type="line"/>
      <point x="118" y="400"/>
      <point x="164" y="503"/>
      <point x="164" y="615" type="curve" smooth="yes"/>
      <point x="164" y="700"/>
      <point x="139" y="790"/>
      <point x="87" y="864" type="curve"/>
      <point x="130" y="864" type="line"/>
      <point x="181" y="786"/>
      <point x="204" y="699"/>
      <point x="204" y="617" type="curve" smooth="yes"/>
      <point x="204" y="506"/>
      <point x="160" y="403"/>
    </contour>
  </outline>
</glyph>
<glyph name="n.superior" format="1">
  <advance width="372"/>
  <unicode hex="207F"/>
  <outline>
    <contour>
      <point x="78" y="704" type="line"/>
      <point x="155" y="704" type="line"/>
      <point x="153" y="653" type="line"/>
      <point x="176" y="688"/>
      <point x="208" y="710"/>
      <point x="254" y="710" type="curve" smooth="yes"/>
      <point x="311" y="710"/>
      <point x="349" y="678"/>
      <point x="339" y="600" type="curve" smooth="yes"/>
      <point x="320" y="452" type="line"/>
      <point x="372" y="452" type="line"/>
      <point x="368" y="427" type="line"/>
      <point x="355" y="415" type="line"/>
      <point x="273" y="415" type="line"/>
      <point x="295" y="587" type="line" smooth="yes"/>
      <point x="303" y="650"/>
      <point x="280" y="674"/>
      <point x="238" y="674" type="curve" smooth="yes"/>
      <point x="189" y="674"/>
      <point x="157" y="642"/>
      <point x="148" y="600" type="curve"/>
      <point x="125" y="415" type="line"/>
      <point x="82" y="415" type="line"/>
      <point x="113" y="668" type="line"/>
      <point x="62" y="668" type="line"/>
      <point x="65" y="691" type="line"/>
    </contour>
  </outline>
</glyph>
<glyph name="oneinferior" format="1">
  <advance width="250"/>
  <unicode hex="2081"/>
  <outline>
    <contour>
      <point x="12" y="37" type="line"/>
      <point x="86" y="37" type="line"/>
      <point x="116" y="327" type="line"/>
      <point x="42" y="327" type="line"/>
      <point x="45" y="364" type="line"/>
      <point x="166" y="364" type="line"/>
      <point x="132" y="37" type="line"/>
      <point x="204" y="37" type="line"/>
      <point x="200" y="0" type="line"/>
      <point x="7" y="0" type="line"/>
    </contour>
  </outline>
</glyph>
<glyph name="twoinferior" format="1">
  <advance width="335"/>
  <unicode hex="2082"/>
  <outline>
    <contour>
      <point x="78" y="255" type="line"/>
      <point x="99" y="315" type="line"/>
      <point x="118" y="328"/>
      <point x="135" y="333"/>
      <point x="159" y="333" type="curve" smooth="yes"/>
      <point x="211" y="333"/>
      <point x="227" y="309"/>
      <point x="227" y="278" type="curve" smooth="yes"/>
      <point x="227" y="193"/>
      <point x="105" y="108"/>
      <point x="11" y="33" type="curve"/>
      <point x="12" y="0" type="line"/>
      <point x="271" y="0" type="line"/>
      <point x="290" y="87" type="line"/>
      <point x="252" y="91" type="line"/>
      <point x="238" y="37" type="line"/>
      <point x="71" y="37" type="line"/>
      <point x="125" y="80"/>
      <point x="279" y="180"/>
      <point x="279" y="280" type="curve" smooth="yes"/>
      <point x="279" y="329"/>
      <point x="242" y="370"/>
      <point x="169" y="370" type="curve" smooth="yes"/>
      <point x="129" y="370"/>
      <point x="90" y="358"/>
      <point x="60" y="330" type="curve"/>
      <point x="43" y="260" type="line"/>
    </contour>
  </outline>
</glyph>
<glyph name="threeinferior" format="1">
  <advance width="334"/>
  <unicode hex="2083"/>
  <outline>
    <contour>
      <point x="85" y="262" type="line"/>
      <point x="103" y="314" type="line"/>
      <point x="124" y="326"/>
      <point x="143" y="332"/>
      <point x="166" y="332" type="curve" smooth="yes"/>
      <point x="207" y="332"/>
      <point x="230" y="313"/>
      <point x="230" y="280" type="curve" smooth="yes"/>
      <point x="230" y="244"/>
      <point x="203" y="209"/>
      <point x="128" y="205" type="curve"/>
      <point x="125" y="173" type="line"/>
      <point x="203" y="171"/>
      <point x="227" y="147"/>
      <point x="227" y="109" type="curve" smooth="yes"/>
      <point x="227" y="66"/>
      <point x="196" y="30"/>
      <point x="139" y="30" type="curve" smooth="yes"/>
      <point x="83" y="30"/>
      <point x="56" y="65"/>
      <point x="54" y="98" type="curve"/>
      <point x="19" y="90" type="line"/>
      <point x="21" y="29"/>
      <point x="69" y="-7"/>
      <point x="138" y="-7" type="curve" smooth="yes"/>
      <point x="211" y="-7"/>
      <point x="277" y="34"/>
      <point x="277" y="107" type="curve" smooth="yes"/>
      <point x="277" y="148"/>
      <point x="256" y="183"/>
      <point x="194" y="192" type="curve"/>
      <point x="194" y="194" type="line"/>
      <point x="256" y="210"/>
      <point x="279" y="250"/>
      <point x="279" y="287" type="curve" smooth="yes"/>
      <point x="279" y="340"/>
      <point x="233" y="369"/>
      <point x="175" y="369" type="curve" smooth="yes"/>
      <point x="138" y="369"/>
      <point x="95" y="357"/>
      <point x="65" y="329" type="curve"/>
      <point x="50" y="267" type="line"/>
    </contour>
  </outline>
</glyph>
<glyph name="sixinferior" format="1">
  <advance width="343"/>
  <unicode hex="2086"/>
  <outline>
    <contour>
      <point x="197" y="333" type="curve" smooth="yes"/>
      <point x="217" y="333"/>
      <point x="242" y="329"/>
      <point x="268" y="292" type="curve"/>
      <point x="296" y="320" type="line"/>
      <point x="264" y="362"/>
      <point x="223" y="370"/>
      <point x="194" y="370" type="curve" smooth="yes"/>
      <point x="84" y="370"/>
      <point x="28" y="262"/>
      <point x="28" y="141" type="curve" smooth="yes"/>
      <point x="28" y="51"/>
      <point x="68" y="-6"/>
      <point x="149" y="-6" type="curve" smooth="yes"/>
      <point x="245" y="-6"/>
      <point x="284" y="62"/>
      <point x="284" y="125" type="curve" smooth="yes"/>
      <point x="284" y="190"/>
      <point x="241" y="226"/>
      <point x="181" y="226" type="curve" smooth="yes"/>
      <point x="125" y="226"/>
      <point x="91" y="197"/>
      <point x="74" y="166" type="curve"/>
      <point x="78" y="252"/>
      <point x="108" y="333"/>
    </contour>
    <contour>
      <point x="172" y="189" type="curve" smooth="yes"/>
      <point x="213" y="189"/>
      <point x="236" y="164"/>
      <point x="236" y="122" type="curve" smooth="yes"/>
      <point x="236" y="72"/>
      <point x="216" y="33"/>
      <point x="154" y="33" type="curve" smooth="yes"/>
      <point x="99" y="33"/>
      <point x="79" y="64"/>
      <point x="75" y="115" type="curve"/>
      <point x="81" y="147"/>
      <point x="107" y="189"/>
    </contour>
  </outline>
</glyph>
<glyph name="parenleft.inferior" format="1">
  <advance width="213"/>
  <unicode hex="208D"/>
  <outline>
    <contour>
      <point x="163" y="450" type="curve"/>
      <point x="205" y="450" type="line"/>
      <point x="115" y="350"/>
      <point x="67" y="247"/>
      <point x="67" y="135" type="curve" smooth="yes"/>
      <point x="67" y="50"/>
      <point x="93" y="-41"/>
      <point x="146" y="-114" type="curve"/>
      <point x="103" y="-114" type="line"/>
      <point x="51" y="-37"/>
      <point x="28" y="51"/>
      <point x="28" y="131" type="curve" smooth="yes"/>
      <point x="28" y="243"/>
      <point x="70" y="347"/>
    </contour>
  </outline>
</glyph>
<glyph name="parenright.inferior" format="1">
  <advance width="212"/>
  <unicode hex="208E"/>
  <outline>
    <contour>
      <point x="26" y="-115" type="curve"/>
      <point x="-16" y="-115" type="line"/>
      <point x="75" y="-15"/>
      <point x="121" y="88"/>
      <point x="121" y="200" type="curve" smooth="yes"/>
      <point x="121" y="285"/>
      <point x="96" y="375"/>
      <point x="44" y="449" type="curve"/>
      <point x="87" y="449" type="line"/>
      <point x="138" y="371"/>
      <point x="161" y="284"/>
      <point x="161" y="202" type="curve" smooth="yes"/>
      <point x="161" y="91"/>
      <point x="117" y="-12"/>
    </contour>
  </outline>
</glyph>
<glyph name="e.inferior" format="1">
  <advance width="308"/>
  <unicode hex="2091"/>
  <outline>
    <contour>
      <point x="140" y="30" type="curve" smooth="yes"/>
      <point x="181" y="30"/>
      <point x="208" y="53"/>
      <point x="222" y="89" type="curve"/>
      <point x="257" y="80" type="line"/>
      <point x="244" y="33"/>
      <point x="202" y="-7"/>
      <point x="132" y="-7" type="curve" smooth="yes"/>
      <point x="60" y="-7"/>
      <point x="19" y="38"/>
      <point x="19" y="120" type="curve" smooth="yes"/>
      <point x="19" y="218"/>
      <point x="78" y="295"/>
      <point x="169" y="295" type="curve" smooth="yes"/>
      <point x="221" y="295"/>
      <point x="265" y="268"/>
      <point x="265" y="221" type="curve" smooth="yes"/>
      <point x="265" y="181"/>
      <point x="233" y="150"/>
      <point x="158" y="135" type="curve" smooth="yes"/>
      <point x="130" y="129"/>
      <point x="99" y="124"/>
      <point x="66" y="119" type="curve"/>
      <point x="66" y="64"/>
      <point x="87" y="30"/>
    </contour>
    <contour>
      <point x="139" y="162" type="curve" smooth="yes"/>
      <point x="201" y="175"/>
      <point x="219" y="192"/>
      <point x="219" y="218" type="curve" smooth="yes"/>
      <point x="219" y="249"/>
      <point x="195" y="261"/>
      <point x="164" y="261" type="curve" smooth="yes"/>
      <point x="101" y="261"/>
      <point x="74" y="205"/>
      <point x="67" y="150" type="curve"/>
      <point x="99" y="153"/>
      <point x="122" y="158"/>
    </contour>
  </outline>
</glyph>
<glyph name="h.inferior" format="1">
  <advance width="364"/>
  <unicode hex="2095"/>
  <outline>
    <contour>
      <point x="32" y="434" type="line"/>
      <point x="46" y="447" type="line"/>
      <point x="128" y="447" type="line"/>
      <point x="101" y="237" type="line"/>
      <point x="123" y="272"/>
      <point x="155" y="295"/>
      <point x="201" y="295" type="curve" smooth="yes"/>
      <point x="257" y="295"/>
      <point x="296" y="263"/>
      <point x="286" y="185" type="curve" smooth="yes"/>
      <point x="267" y="37" type="line"/>
      <point x="318" y="37" type="line"/>
      <point x="315" y="12" type="line"/>
      <point x="301" y="0" type="line"/>
      <point x="220" y="0" type="line"/>
      <point x="241" y="172" type="line" smooth="yes"/>
      <point x="248" y="232"/>
      <point x="228" y="259"/>
      <point x="183" y="259" type="curve" smooth="yes"/>
      <point x="130" y="259"/>
      <point x="100" y="219"/>
      <point x="94" y="175" type="curve"/>
      <point x="93" y="176" type="line"/>
      <point x="71" y="0" type="line"/>
      <point x="28" y="0" type="line"/>
      <point x="79" y="410" type="line"/>
      <point x="29" y="410" type="line"/>
    </contour>
    <contour>
      <point x="148" y="368" type="move" name="top"/>
    </contour>
  </outline>
</glyph>
<glyph name="n.inferior" format="1">
  <advance width="373"/>
  <unicode hex="2099"/>
  <outline>
    <contour>
      <point x="34" y="289" type="line"/>
      <point x="111" y="289" type="line"/>
      <point x="109" y="238" type="line"/>
      <point x="132" y="273"/>
      <point x="164" y="295"/>
      <point x="210" y="295" type="curve" smooth="yes"/>
      <point x="267" y="295"/>
      <point x="305" y="263"/>
      <point x="295" y="185" type="curve" smooth="yes"/>
      <point x="276" y="37" type="line"/>
      <point x="328" y="37" type="line"/>
      <point x="324" y="12" type="line"/>
      <point x="311" y="0" type="line"/>
      <point x="229" y="0" type="line"/>
      <point x="251" y="172" type="line" smooth="yes"/>
      <point x="259" y="235"/>
      <point x="236" y="259"/>
      <point x="194" y="259" type="curve" smooth="yes"/>
      <point x="145" y="259"/>
      <point x="113" y="227"/>
      <point x="104" y="185" type="curve"/>
      <point x="81" y="0" type="line"/>
      <point x="38" y="0" type="line"/>
      <point x="69" y="253" type="line"/>
      <point x="18" y="253" type="line"/>
      <point x="21" y="276" type="line"/>
    </contour>
    <contour>
      <point x="158" y="368" type="move" name="top"/>
    </contour>
  </outline>
</glyph>
<glyph name="colonsign" format="1">
  <advance width="679"/>
  <unicode hex="20A1"/>
  <outline>
    <contour>
      <point x="646" y="689" type="line"/>
      <point x="690" y="689" type="line"/>
      <point x="397" y="45" type="line"/>
      <point x="429" y="49"/>
      <point x="460" y="58"/>
      <point x="487" y="72" type="curve"/>
      <point x="516" y="168" type="line"/>
      <point x="564" y="162" type="line"/>
      <point x="535" y="45" type="line"/>
      <point x="490" y="13"/>
      <point x="430" y="-3"/>
      <point x="372" y="-8" type="curve"/>
      <point x="344" y="-71" type="line"/>
      <point x="300" y="-71" type="line"/>
      <point x="328" y="-10" type="line"/>
      <point x="297" y="-9"/>
      <point x="268" y="-5"/>
      <point x="242" y="2" type="curve"/>
      <point x="209" y="-71" type="line"/>
      <point x="166" y="-71" type="line"/>
      <point x="205" y="15" type="line"/>
      <point x="103" y="61"/>
      <point x="49" y="163"/>
      <point x="49" y="288" type="curve" smooth="yes"/>
      <point x="49" y="491"/>
      <point x="193" y="660"/>
      <point x="380" y="660" type="curve" smooth="yes"/>
      <point x="422" y="660"/>
      <point x="459" y="652"/>
      <point x="489" y="639" type="curve"/>
      <point x="512" y="689" type="line"/>
      <point x="556" y="689" type="line"/>
      <point x="524" y="620" type="line"/>
      <point x="551" y="601"/>
      <point x="571" y="575"/>
      <point x="581" y="546" type="curve"/>
    </contour>
    <contour>
      <point x="384" y="608" type="curve" smooth="yes"/>
      <point x="222" y="608"/>
      <point x="108" y="468"/>
      <point x="108" y="294" type="curve" smooth="yes"/>
      <point x="108" y="188"/>
      <point x="150" y="107"/>
      <point x="229" y="67" type="curve"/>
      <point x="468" y="592" type="line"/>
      <point x="445" y="602"/>
      <point x="416" y="608"/>
    </contour>
    <contour>
      <point x="350" y="42" type="curve"/>
      <point x="351" y="42" type="line"/>
      <point x="555" y="489" type="line"/>
      <point x="550" y="519"/>
      <point x="532" y="550"/>
      <point x="503" y="572" type="curve"/>
      <point x="266" y="53" type="line"/>
      <point x="291" y="46"/>
      <point x="319" y="42"/>
    </contour>
  </outline>
</glyph>
<glyph name="lira" format="1">
  <advance width="569"/>
  <unicode hex="20A4"/>
  <outline>
    <contour>
      <point x="54" y="277" type="line"/>
      <point x="135" y="277" type="line"/>
      <point x="145" y="366" type="line"/>
      <point x="63" y="366" type="line"/>
      <point x="67" y="407" type="line"/>
      <point x="150" y="407" type="line"/>
      <point x="151" y="417" type="line" smooth="yes"/>
      <point x="170" y="591"/>
      <point x="255" y="660"/>
      <point x="376" y="660" type="curve" smooth="yes"/>
      <point x="426" y="660"/>
      <point x="489" y="648"/>
      <point x="523" y="615" type="curve"/>
      <point x="528" y="498" type="line"/>
      <point x="481" y="492" type="line"/>
      <point x="472" y="580" type="line"/>
      <point x="448" y="598"/>
      <point x="414" y="608"/>
      <point x="372" y="608" type="curve" smooth="yes"/>
      <point x="283" y="608"/>
      <point x="221" y="563"/>
      <point x="206" y="418" type="curve" smooth="yes"/>
      <point x="205" y="407" type="line"/>
      <point x="431" y="407" type="line"/>
      <point x="427" y="366" type="line"/>
      <point x="200" y="366" type="line"/>
      <point x="191" y="277" type="line"/>
      <point x="418" y="277" type="line"/>
      <point x="414" y="236" type="line"/>
      <point x="187" y="236" type="line"/>
      <point x="187" y="234" type="line" smooth="yes"/>
      <point x="181" y="176"/>
      <point x="158" y="93"/>
      <point x="89" y="51" type="curve"/>
      <point x="342" y="51" type="line" smooth="yes"/>
      <point x="412" y="51"/>
      <point x="449" y="93"/>
      <point x="476" y="132" type="curve"/>
      <point x="508" y="104" type="line"/>
      <point x="488" y="71"/>
      <point x="431" y="0"/>
      <point x="348" y="0" type="curve" smooth="yes"/>
      <point x="12" y="0" type="line"/>
      <point x="18" y="48" type="line"/>
      <point x="99" y="84"/>
      <point x="123" y="160"/>
      <point x="131" y="234" type="curve" smooth="yes"/>
      <point x="131" y="236" type="line"/>
      <point x="50" y="236" type="line"/>
    </contour>
  </outline>
</glyph>
<glyph name="dong" format="1">
  <advance width="540"/>
  <unicode hex="20AB"/>
  <outline>
    <contour>
      <point x="242" y="633" type="line"/>
      <point x="409" y="633" type="line"/>
      <point x="415" y="688" type="line"/>
      <point x="466" y="688" type="line"/>
      <point x="460" y="633" type="line"/>
      <point x="523" y="633" type="line"/>
      <point x="519" y="593" type="line"/>
      <point x="456" y="593" type="line"/>
      <point x="412" y="176" type="line"/>
      <point x="485" y="176" type="line"/>
      <point x="480" y="135" type="line"/>
      <point x="357" y="135" type="line"/>
      <point x="366" y="219" type="line"/>
      <point x="335" y="169"/>
      <point x="287" y="126"/>
      <point x="205" y="126" type="curve" smooth="yes"/>
      <point x="112" y="126"/>
      <point x="54" y="185"/>
      <point x="54" y="301" type="curve" smooth="yes"/>
      <point x="54" y="412"/>
      <point x="106" y="533"/>
      <point x="256" y="533" type="curve" smooth="yes"/>
      <point x="325" y="533"/>
      <point x="370" y="506"/>
      <point x="391" y="458" type="curve"/>
      <point x="405" y="593" type="line"/>
      <point x="238" y="593" type="line"/>
    </contour>
    <contour>
      <point x="260" y="491" type="curve" smooth="yes"/>
      <point x="141" y="491"/>
      <point x="108" y="390"/>
      <point x="108" y="308" type="curve" smooth="yes"/>
      <point x="108" y="211"/>
      <point x="154" y="169"/>
      <point x="219" y="169" type="curve" smooth="yes"/>
      <point x="303" y="169"/>
      <point x="362" y="238"/>
      <point x="374" y="300" type="curve"/>
      <point x="382" y="376" type="line"/>
      <point x="386" y="441"/>
      <point x="344" y="491"/>
    </contour>
    <contour>
      <point x="51" y="43" type="line"/>
      <point x="423" y="43" type="line"/>
      <point x="418" y="0" type="line"/>
      <point x="47" y="0" type="line"/>
    </contour>
  </outline>
</glyph>
<glyph name="uni20AD" format="1">
  <advance width="660"/>
  <unicode hex="20AD"/>
  <outline>
    <contour>
      <point x="384" y="51" type="line"/>
      <point x="461" y="51" type="line"/>
      <point x="308" y="306" type="line"/>
      <point x="195" y="306" type="line"/>
      <point x="168" y="51" type="line"/>
      <point x="247" y="51" type="line"/>
      <point x="241" y="0" type="line"/>
      <point x="25" y="0" type="line"/>
      <point x="31" y="51" type="line"/>
      <point x="113" y="51" type="line"/>
      <point x="140" y="306" type="line"/>
      <point x="57" y="306" type="line"/>
      <point x="63" y="356" type="line"/>
      <point x="145" y="356" type="line"/>
      <point x="170" y="599" type="line"/>
      <point x="88" y="599" type="line"/>
      <point x="93" y="650" type="line"/>
      <point x="310" y="650" type="line"/>
      <point x="305" y="599" type="line"/>
      <point x="225" y="599" type="line"/>
      <point x="200" y="356" type="line"/>
      <point x="309" y="356" type="line"/>
      <point x="509" y="600" type="line"/>
      <point x="432" y="600" type="line"/>
      <point x="438" y="651" type="line"/>
      <point x="650" y="651" type="line"/>
      <point x="644" y="600" type="line"/>
      <point x="573" y="600" type="line"/>
      <point x="369" y="356" type="line"/>
      <point x="558" y="356" type="line"/>
      <point x="552" y="306" type="line"/>
      <point x="372" y="306" type="line"/>
      <point x="526" y="51" type="line"/>
      <point x="599" y="51" type="line"/>
      <point x="594" y="0" type="line"/>
      <point x="378" y="0" type="line"/>
    </contour>
  </outline>
</glyph>
<glyph name="uni20AE" format="1">
  <advance width="608"/>
  <unicode hex="20AE"/>
  <outline>
    <contour>
      <point x="596" y="458" type="line"/>
      <point x="597" y="650" type="line"/>
      <point x="87" y="650" type="line"/>
      <point x="49" y="458" type="line"/>
      <point x="99" y="454" type="line"/>
      <point x="133" y="599" type="line"/>
      <point x="311" y="599" type="line"/>
      <point x="286" y="359" type="line"/>
      <point x="139" y="303" type="line"/>
      <point x="134" y="258" type="line"/>
      <point x="281" y="313" type="line"/>
      <point x="272" y="232" type="line"/>
      <point x="125" y="176" type="line"/>
      <point x="121" y="130" type="line"/>
      <point x="267" y="186" type="line"/>
      <point x="253" y="51" type="line"/>
      <point x="140" y="51" type="line"/>
      <point x="135" y="0" type="line"/>
      <point x="418" y="0" type="line"/>
      <point x="423" y="51" type="line"/>
      <point x="308" y="51" type="line"/>
      <point x="324" y="208" type="line"/>
      <point x="480" y="267" type="line"/>
      <point x="484" y="312" type="line"/>
      <point x="329" y="253" type="line"/>
      <point x="338" y="335" type="line"/>
      <point x="493" y="394" type="line"/>
      <point x="497" y="440" type="line"/>
      <point x="343" y="381" type="line"/>
      <point x="366" y="599" type="line"/>
      <point x="541" y="599" type="line"/>
      <point x="545" y="454" type="line"/>
    </contour>
  </outline>
</glyph>
<glyph name="uni20B1" format="1">
  <advance width="640"/>
  <unicode hex="20B1"/>
  <outline>
    <contour>
      <point x="32" y="51" type="line"/>
      <point x="114" y="51" type="line"/>
      <point x="148" y="374" type="line"/>
      <point x="70" y="374" type="line"/>
      <point x="74" y="413" type="line"/>
      <point x="152" y="413" type="line"/>
      <point x="159" y="486" type="line"/>
      <point x="82" y="486" type="line"/>
      <point x="86" y="525" type="line"/>
      <point x="163" y="525" type="line"/>
      <point x="171" y="599" type="line"/>
      <point x="89" y="599" type="line"/>
      <point x="95" y="650" type="line"/>
      <point x="350" y="650" type="line" smooth="yes"/>
      <point x="466" y="650"/>
      <point x="527" y="595"/>
      <point x="546" y="525" type="curve"/>
      <point x="632" y="525" type="line"/>
      <point x="627" y="486" type="line"/>
      <point x="552" y="486" type="line"/>
      <point x="552" y="482"/>
      <point x="553" y="478"/>
      <point x="553" y="474" type="curve" smooth="yes"/>
      <point x="553" y="452"/>
      <point x="551" y="432"/>
      <point x="547" y="413" type="curve"/>
      <point x="619" y="413" type="line"/>
      <point x="615" y="374" type="line"/>
      <point x="534" y="374" type="line"/>
      <point x="501" y="294"/>
      <point x="424" y="249"/>
      <point x="321" y="249" type="curve" smooth="yes"/>
      <point x="190" y="249" type="line"/>
      <point x="169" y="51" type="line"/>
      <point x="282" y="51" type="line"/>
      <point x="276" y="0" type="line"/>
      <point x="27" y="0" type="line"/>
    </contour>
    <contour>
      <point x="495" y="471" type="curve" smooth="yes"/>
      <point x="495" y="476"/>
      <point x="494" y="481"/>
      <point x="494" y="486" type="curve"/>
      <point x="214" y="486" type="line"/>
      <point x="207" y="413" type="line"/>
      <point x="487" y="413" type="line"/>
      <point x="492" y="430"/>
      <point x="495" y="450"/>
    </contour>
    <contour>
      <point x="320" y="299" type="line" smooth="yes"/>
      <point x="390" y="299"/>
      <point x="443" y="325"/>
      <point x="471" y="374" type="curve"/>
      <point x="203" y="374" type="line"/>
      <point x="195" y="299" type="line"/>
    </contour>
    <contour>
      <point x="342" y="599" type="curve"/>
      <point x="226" y="599" type="line"/>
      <point x="218" y="525" type="line"/>
      <point x="484" y="525" type="line"/>
      <point x="464" y="571"/>
      <point x="416" y="599"/>
    </contour>
  </outline>
</glyph>
<glyph name="uni20B9" format="1">
  <advance width="519"/>
  <unicode hex="20B9"/>
  <outline>
    <contour>
      <point x="62" y="264" type="line"/>
      <point x="212" y="264" type="line" smooth="yes"/>
      <point x="301" y="264"/>
      <point x="342" y="301"/>
      <point x="352" y="357" type="curve"/>
      <point x="72" y="357" type="line"/>
      <point x="75" y="393" type="line"/>
      <point x="355" y="393" type="line"/>
      <point x="352" y="450"/>
      <point x="315" y="476"/>
      <point x="233" y="476" type="curve" smooth="yes"/>
      <point x="84" y="476" type="line"/>
      <point x="89" y="521" type="line"/>
      <point x="492" y="521" type="line"/>
      <point x="487" y="477" type="line"/>
      <point x="380" y="477" type="line"/>
      <point x="402" y="455"/>
      <point x="412" y="425"/>
      <point x="413" y="393" type="curve"/>
      <point x="464" y="393" type="line"/>
      <point x="461" y="357" type="line"/>
      <point x="409" y="357" type="line"/>
      <point x="397" y="296"/>
      <point x="353" y="242"/>
      <point x="279" y="228" type="curve"/>
      <point x="359" y="45" type="line"/>
      <point x="427" y="45" type="line"/>
      <point x="421" y="0" type="line"/>
      <point x="318" y="0" type="line"/>
      <point x="224" y="221" type="line"/>
      <point x="57" y="221" type="line"/>
    </contour>
  </outline>
</glyph>
<glyph name="uni20BA" format="1">
  <advance width="586"/>
  <unicode hex="20BA"/>
  <outline>
    <contour>
      <point x="54" y="225" type="line"/>
      <point x="144" y="263" type="line"/>
      <point x="153" y="347" type="line"/>
      <point x="63" y="309" type="line"/>
      <point x="67" y="352" type="line"/>
      <point x="158" y="390" type="line"/>
      <point x="179" y="599" type="line"/>
      <point x="96" y="599" type="line"/>
      <point x="102" y="650" type="line"/>
      <point x="341" y="650" type="line"/>
      <point x="336" y="599" type="line"/>
      <point x="235" y="599" type="line"/>
      <point x="216" y="414" type="line"/>
      <point x="441" y="509" type="line"/>
      <point x="437" y="466" type="line"/>
      <point x="212" y="371" type="line"/>
      <point x="203" y="287" type="line"/>
      <point x="427" y="382" type="line"/>
      <point x="423" y="339" type="line"/>
      <point x="198" y="244" type="line"/>
      <point x="178" y="51" type="line"/>
      <point x="252" y="51" type="line" smooth="yes"/>
      <point x="422" y="51"/>
      <point x="486" y="165"/>
      <point x="504" y="334" type="curve"/>
      <point x="560" y="334" type="line"/>
      <point x="541" y="142"/>
      <point x="449" y="0"/>
      <point x="249" y="0" type="curve" smooth="yes"/>
      <point x="34" y="0" type="line"/>
      <point x="39" y="51" type="line"/>
      <point x="122" y="51" type="line"/>
      <point x="140" y="220" type="line"/>
      <point x="50" y="182" type="line"/>
    </contour>
  </outline>
</glyph>
<glyph name="uni2113" format="1">
  <advance width="372"/>
  <unicode hex="2113"/>
  <outline>
    <contour>
      <point x="47" y="192" type="line"/>
      <point x="100" y="229" type="line"/>
      <point x="100" y="138" type="line" smooth="yes"/>
      <point x="100" y="42"/>
      <point x="135" y="-10"/>
      <point x="211" y="-10" type="curve" smooth="yes"/>
      <point x="251" y="-10"/>
      <point x="292" y="4"/>
      <point x="322" y="30" type="curve"/>
      <point x="307" y="70" type="line"/>
      <point x="281" y="50"/>
      <point x="248" y="38"/>
      <point x="220" y="38" type="curve" smooth="yes"/>
      <point x="182" y="38"/>
      <point x="156" y="59"/>
      <point x="156" y="144" type="curve" smooth="yes"/>
      <point x="156" y="272" type="line"/>
      <point x="257" y="352"/>
      <point x="331" y="438"/>
      <point x="331" y="541" type="curve" smooth="yes"/>
      <point x="331" y="607"/>
      <point x="300" y="660"/>
      <point x="221" y="660" type="curve" smooth="yes"/>
      <point x="138" y="660"/>
      <point x="100" y="602"/>
      <point x="100" y="502" type="curve" smooth="yes"/>
      <point x="100" y="279" type="line"/>
      <point x="27" y="225" type="line"/>
    </contour>
    <contour>
      <point x="156" y="490" type="line" smooth="yes"/>
      <point x="156" y="562"/>
      <point x="159" y="611"/>
      <point x="218" y="611" type="curve" smooth="yes"/>
      <point x="262" y="611"/>
      <point x="277" y="583"/>
      <point x="277" y="537" type="curve" smooth="yes"/>
      <point x="277" y="456"/>
      <point x="233" y="392"/>
      <point x="156" y="325" type="curve"/>
    </contour>
  </outline>
</glyph>
<glyph name="uni2117" format="1">
  <advance width="619"/>
  <unicode hex="2117"/>
  <outline>
    <contour>
      <point x="311" y="-7" type="curve" smooth="yes"/>
      <point x="463" y="-7"/>
      <point x="601" y="123"/>
      <point x="601" y="285" type="curve" smooth="yes"/>
      <point x="601" y="421"/>
      <point x="505" y="529"/>
      <point x="365" y="529" type="curve" smooth="yes"/>
      <point x="210" y="529"/>
      <point x="73" y="396"/>
      <point x="73" y="236" type="curve" smooth="yes"/>
      <point x="73" y="99"/>
      <point x="173" y="-7"/>
    </contour>
    <contour>
      <point x="313" y="27" type="curve" smooth="yes"/>
      <point x="192" y="27"/>
      <point x="108" y="120"/>
      <point x="108" y="239" type="curve" smooth="yes"/>
      <point x="108" y="378"/>
      <point x="222" y="494"/>
      <point x="361" y="494" type="curve" smooth="yes"/>
      <point x="485" y="494"/>
      <point x="566" y="401"/>
      <point x="566" y="283" type="curve" smooth="yes"/>
      <point x="566" y="141"/>
      <point x="449" y="27"/>
    </contour>
    <contour>
      <point x="207" y="128" type="line"/>
      <point x="252" y="128" type="line"/>
      <point x="281" y="399" type="line"/>
      <point x="235" y="399" type="line"/>
      <point x="239" y="431" type="line"/>
      <point x="390" y="431" type="line" smooth="yes"/>
      <point x="471" y="431"/>
      <point x="503" y="387"/>
      <point x="503" y="331" type="curve" smooth="yes"/>
      <point x="503" y="256"/>
      <point x="447" y="208"/>
      <point x="370" y="208" type="curve" smooth="yes"/>
      <point x="298" y="208" type="line"/>
      <point x="289" y="128" type="line"/>
      <point x="352" y="128" type="line"/>
      <point x="348" y="96" type="line"/>
      <point x="203" y="96" type="line"/>
    </contour>
    <contour>
      <point x="368" y="240" type="line" smooth="yes"/>
      <point x="430" y="240"/>
      <point x="463" y="275"/>
      <point x="463" y="328" type="curve" smooth="yes"/>
      <point x="463" y="373"/>
      <point x="440" y="399"/>
      <point x="384" y="399" type="curve" smooth="yes"/>
      <point x="318" y="399" type="line"/>
      <point x="301" y="240" type="line"/>
    </contour>
  </outline>
</glyph>
<glyph name="trademark" format="1">
  <advance width="1059"/>
  <unicode hex="2122"/>
  <outline>
    <contour>
      <point x="1001" y="610" type="line"/>
      <point x="1001" y="650" type="line"/>
      <point x="900" y="650" type="line"/>
      <point x="736" y="313" type="line"/>
      <point x="733" y="313" type="line"/>
      <point x="563" y="650" type="line"/>
      <point x="463" y="650" type="line"/>
      <point x="463" y="610" type="line"/>
      <point x="521" y="610" type="line"/>
      <point x="521" y="267" type="line"/>
      <point x="466" y="267" type="line"/>
      <point x="466" y="227" type="line"/>
      <point x="620" y="227" type="line"/>
      <point x="620" y="267" type="line"/>
      <point x="567" y="267" type="line"/>
      <point x="567" y="547" type="line"/>
      <point x="570" y="547" type="line"/>
      <point x="719" y="248" type="line"/>
      <point x="746" y="248" type="line"/>
      <point x="892" y="545" type="line"/>
      <point x="895" y="545" type="line"/>
      <point x="895" y="267" type="line"/>
      <point x="844" y="267" type="line"/>
      <point x="844" y="227" type="line"/>
      <point x="998" y="227" type="line"/>
      <point x="998" y="267" type="line"/>
      <point x="944" y="267" type="line"/>
      <point x="944" y="610" type="line"/>
    </contour>
    <contour>
      <point x="449" y="518" type="line"/>
      <point x="439" y="650" type="line"/>
      <point x="63" y="650" type="line"/>
      <point x="53" y="518" type="line"/>
      <point x="96" y="518" type="line"/>
      <point x="106" y="610" type="line"/>
      <point x="228" y="610" type="line"/>
      <point x="228" y="267" type="line"/>
      <point x="152" y="267" type="line"/>
      <point x="152" y="227" type="line"/>
      <point x="352" y="227" type="line"/>
      <point x="352" y="267" type="line"/>
      <point x="276" y="267" type="line"/>
      <point x="276" y="610" type="line"/>
      <point x="397" y="610" type="line"/>
      <point x="407" y="518" type="line"/>
    </contour>
  </outline>
</glyph>
<glyph name="Omega" format="1">
  <advance width="709"/>
  <unicode hex="2126"/>
  <outline>
    <contour>
      <point x="382" y="608" type="curve" smooth="yes"/>
      <point x="512" y="608"/>
      <point x="611" y="537"/>
      <point x="611" y="390" type="curve" smooth="yes"/>
      <point x="611" y="290"/>
      <point x="566" y="153"/>
      <point x="416" y="153" type="curve"/>
      <point x="400" y="0" type="line"/>
      <point x="630" y="0" type="line"/>
      <point x="635" y="49" type="line"/>
      <point x="452" y="49" type="line"/>
      <point x="459" y="115" type="line"/>
      <point x="599" y="124"/>
      <point x="670" y="262"/>
      <point x="670" y="393" type="curve" smooth="yes"/>
      <point x="670" y="577"/>
      <point x="530" y="660"/>
      <point x="386" y="660" type="curve" smooth="yes"/>
      <point x="226" y="660"/>
      <point x="59" y="559"/>
      <point x="59" y="344" type="curve" smooth="yes"/>
      <point x="59" y="213"/>
      <point x="123" y="122"/>
      <point x="225" y="115" type="curve"/>
      <point x="218" y="49" type="line"/>
      <point x="27" y="49" type="line"/>
      <point x="22" y="0" type="line"/>
      <point x="262" y="0" type="line"/>
      <point x="278" y="153" type="line"/>
      <point x="167" y="154"/>
      <point x="117" y="235"/>
      <point x="117" y="346" type="curve" smooth="yes"/>
      <point x="117" y="517"/>
      <point x="235" y="608"/>
    </contour>
  </outline>
</glyph>
